<svg width="486" height="79" viewBox="0 0 486 79" fill="none" xmlns="http://www.w3.org/2000/svg">
<g clip-path="url(#clip0_266_1025)">
<path d="M196.818 78.978C196.042 78.978 195.265 78.8893 194.489 78.6897C193.691 78.4901 192.959 78.2239 192.271 77.8912V73.8991C192.515 73.8547 192.737 73.8547 192.981 73.8991C193.048 74.6975 193.292 75.4072 193.669 76.0504C194.046 76.6714 194.556 77.1815 195.199 77.5364C195.82 77.9134 196.529 78.0908 197.283 78.0908C198.348 78.0908 199.213 77.8247 199.856 77.3146C200.499 76.8045 200.832 76.0948 200.832 75.2076C200.832 74.6532 200.676 74.1874 200.388 73.8104C200.1 73.4333 199.701 73.1228 199.191 72.8789C198.703 72.6127 198.148 72.391 197.572 72.1692C196.995 71.9474 196.396 71.7256 195.82 71.4595C195.243 71.1933 194.689 70.905 194.201 70.5279C193.713 70.1731 193.314 69.7073 193.003 69.1751C192.715 68.6428 192.56 67.9552 192.56 67.1346C192.56 66.2253 192.759 65.4491 193.181 64.8059C193.602 64.1627 194.179 63.6748 194.933 63.3199C195.709 62.9872 196.618 62.8098 197.683 62.8098C198.636 62.8098 199.435 62.8985 200.078 63.0981C200.721 63.2977 201.297 63.5417 201.785 63.8522V67.3342C201.541 67.3786 201.32 67.3786 201.076 67.3342C200.965 66.2918 200.61 65.4047 199.989 64.7172C199.368 64.0296 198.547 63.697 197.505 63.697C196.574 63.697 195.82 63.9187 195.265 64.3401C194.711 64.7615 194.423 65.3382 194.423 66.0922C194.423 66.6911 194.578 67.2012 194.888 67.5782C195.199 67.9552 195.598 68.3101 196.108 68.5762C196.618 68.8424 197.173 69.1085 197.771 69.3081C198.37 69.5299 198.969 69.7739 199.568 70.04C200.166 70.3062 200.721 70.6167 201.231 70.9715C201.741 71.3264 202.14 71.7921 202.451 72.3466C202.761 72.9011 202.916 73.5886 202.916 74.4092C202.916 75.3185 202.65 76.0948 202.14 76.8045C201.63 77.492 200.92 78.0243 200.011 78.4013C199.102 78.7784 198.037 78.978 196.796 78.978H196.818Z" fill="white"/>
<path d="M209.946 77.8912C210.012 78.1574 210.012 78.4235 209.946 78.7119C209.436 78.6897 208.992 78.6675 208.571 78.6675H206.043C205.621 78.6675 205.156 78.6675 204.646 78.7119C204.579 78.4235 204.579 78.1574 204.646 77.8912H206.021C206.087 77.3368 206.154 76.7823 206.176 76.2722C206.22 75.7621 206.242 75.2298 206.242 74.6753V72.9011C206.242 71.8365 206.176 70.7719 206.021 69.7295H204.756C204.69 69.4412 204.69 69.1751 204.756 68.9089C205.333 68.9089 205.954 68.9089 206.641 68.8646C207.329 68.8202 207.994 68.7537 208.682 68.6206C208.593 68.9976 208.527 69.4412 208.482 69.9735C208.438 70.5058 208.393 71.0159 208.393 71.5482C208.393 72.0805 208.349 72.524 208.349 72.9011V74.6753C208.349 75.2298 208.349 75.7621 208.416 76.2722C208.46 76.7823 208.504 77.3368 208.593 77.8912H209.968H209.946ZM207.307 63.8079L208.527 64.4732V65.9148L207.307 66.5802L206.087 65.9148V64.4732L207.307 63.8079Z" fill="white"/>
<path d="M211.409 78.7118C211.343 78.4235 211.343 78.1573 211.409 77.8912H212.673C212.74 77.3367 212.806 76.7822 212.829 76.2721C212.873 75.762 212.895 75.2297 212.895 74.6753V72.901C212.895 71.8364 212.829 70.7718 212.673 69.7295H211.52C211.454 69.4411 211.454 69.175 211.52 68.9088C212.03 68.9088 212.585 68.9088 213.183 68.8645C213.782 68.8201 214.381 68.7536 215.002 68.6205C214.935 68.8867 214.869 69.175 214.847 69.5299C214.802 69.8625 214.78 70.1508 214.78 70.3726L215.002 71.3707V74.6975C215.002 75.2519 215.002 75.7842 215.068 76.2943C215.113 76.8044 215.157 77.3589 215.224 77.9133H216.488C216.554 78.1795 216.554 78.4456 216.488 78.7339C216.022 78.7118 215.601 78.6896 215.201 78.6896H212.718C212.319 78.6896 211.875 78.6896 211.431 78.7339L211.409 78.7118ZM217.84 78.7118C217.774 78.4235 217.774 78.1573 217.84 77.8912H219.105C219.171 77.3367 219.238 76.7822 219.282 76.2721C219.326 75.762 219.348 75.2297 219.348 74.6753V71.659C219.348 71.1045 219.215 70.6388 218.971 70.2617C218.728 69.8847 218.262 69.6851 217.574 69.6851C217.064 69.6851 216.576 69.8182 216.133 70.0843C215.689 70.3505 215.312 70.7718 215.024 71.3485L214.802 70.3505C215.201 69.796 215.689 69.3524 216.31 69.0419C216.909 68.7314 217.619 68.5762 218.417 68.5762C219.282 68.5762 219.947 68.7314 220.413 69.0641C220.879 69.3968 221.233 69.8182 221.522 70.3283C221.522 70.5501 221.5 70.7718 221.477 70.9936C221.455 71.2154 221.477 71.4372 221.477 71.659V74.6753C221.477 75.2297 221.477 75.762 221.544 76.2721C221.588 76.7822 221.633 77.3367 221.699 77.8912H222.963C223.03 78.1573 223.03 78.4235 222.963 78.7118C222.498 78.6896 222.076 78.6674 221.677 78.6674H219.193C218.794 78.6674 218.351 78.6674 217.885 78.7118H217.84Z" fill="white"/>
<path d="M229.374 79.0001C228.42 79.0001 227.577 78.7783 226.845 78.357C226.114 77.9356 225.537 77.3367 225.138 76.5605C224.739 75.7842 224.539 74.8527 224.539 73.7882C224.539 72.7236 224.761 71.7477 225.182 70.9937C225.604 70.2174 226.224 69.6186 227.023 69.2194C227.821 68.798 228.73 68.5984 229.773 68.5984C230.46 68.5984 231.081 68.6871 231.591 68.8202C232.123 68.9754 232.567 69.1972 232.966 69.4634V72.4575C232.722 72.5018 232.5 72.5018 232.257 72.4575C232.057 71.5038 231.746 70.7497 231.281 70.2396C230.815 69.7295 230.261 69.4634 229.618 69.4634C229.041 69.4634 228.553 69.6408 228.132 69.9735C227.71 70.3061 227.4 70.7941 227.178 71.4151C226.956 72.0361 226.868 72.8123 226.868 73.7216C226.868 74.5422 227.001 75.252 227.289 75.8951C227.555 76.5383 227.932 77.0262 228.42 77.3811C228.886 77.736 229.418 77.9134 229.995 77.9134C230.327 77.9134 230.66 77.869 230.97 77.7581C231.281 77.6472 231.591 77.492 231.924 77.2258C232.234 76.9819 232.567 76.6492 232.944 76.25C233.055 76.3165 233.166 76.4052 233.254 76.494C233.343 76.5827 233.454 76.6936 233.543 76.8045C233.121 77.3146 232.7 77.7138 232.279 78.0464C231.857 78.3791 231.414 78.6231 230.948 78.7783C230.482 78.9336 229.972 79.0223 229.418 79.0223L229.374 79.0001Z" fill="white"/>
<path d="M240.106 79.0001C239.175 79.0001 238.354 78.8005 237.622 78.4235C236.89 78.0464 236.314 77.4698 235.892 76.6935C235.471 75.9173 235.271 74.9414 235.271 73.7881C235.271 72.6348 235.493 71.7033 235.915 70.9271C236.336 70.1508 236.935 69.5742 237.689 69.175C238.443 68.7758 239.308 68.5762 240.283 68.5762C241.193 68.5762 241.991 68.7536 242.634 69.0863C243.299 69.419 243.809 69.9512 244.164 70.661C244.519 71.3707 244.697 72.28 244.697 73.3889C244.32 73.3446 243.898 73.3002 243.477 73.278C243.055 73.2558 242.523 73.2337 241.924 73.2337H237.312V72.4574H242.346C242.346 71.415 242.124 70.661 241.703 70.1508C241.281 69.6407 240.771 69.3968 240.128 69.3968C239.596 69.3968 239.13 69.5742 238.753 69.9069C238.354 70.2617 238.066 70.7497 237.844 71.3928C237.622 72.036 237.534 72.7901 237.534 73.6994C237.534 75.0967 237.822 76.1612 238.398 76.8488C238.975 77.5363 239.751 77.8912 240.705 77.8912C241.304 77.8912 241.858 77.7359 242.412 77.4476C242.967 77.1593 243.499 76.6713 244.031 75.9838C244.142 76.0503 244.253 76.1391 244.364 76.2278C244.453 76.3165 244.563 76.4274 244.652 76.5383C244.009 77.3589 243.322 77.9577 242.568 78.3791C241.814 78.8005 240.993 79.0001 240.084 79.0001H240.106Z" fill="white"/>
<path d="M253.966 70.9049V67.3563C253.966 67.0237 253.966 66.7132 253.966 66.3805C253.966 66.0478 253.922 65.7151 253.9 65.3603H251.571C251.505 65.0719 251.505 64.8058 251.571 64.5397C252.126 64.5397 252.68 64.4509 253.235 64.2735C253.789 64.0961 254.299 63.8299 254.787 63.5194C255.275 63.2089 255.696 62.8541 256.073 62.4771C256.162 62.4992 256.273 62.5436 256.384 62.6101C256.495 62.6767 256.605 62.721 256.65 62.7875C256.539 63.4973 256.472 64.207 256.45 64.9167C256.428 65.6264 256.406 66.2252 256.406 66.691V70.9049H253.966ZM255.186 78.6674H253.612C253.079 78.6674 252.436 78.6674 251.682 78.7118C251.616 78.4234 251.616 78.1573 251.682 77.8911H253.723C253.789 77.2258 253.856 76.5826 253.878 75.9394C253.922 75.3184 253.944 74.6531 253.944 73.9877V70.8827H255.164V78.6452L255.186 78.6674ZM255.186 78.6674V70.9049H256.406V74.0099C256.406 74.6753 256.406 75.3184 256.472 75.9616C256.517 76.5826 256.561 77.2258 256.628 77.9133H258.668C258.734 78.1795 258.734 78.4456 258.668 78.7339C257.936 78.7118 257.315 78.6896 256.761 78.6896H255.186V78.6674Z" fill="white"/>
<path d="M270.843 69.5742C270.843 70.8827 270.666 72.0804 270.311 73.2115C269.956 74.3426 269.402 75.3406 268.67 76.1612C267.938 77.004 266.984 77.6694 265.831 78.1351C264.678 78.6009 263.303 78.8448 261.729 78.8448C261.684 78.5122 261.684 78.1795 261.729 77.8468C263.303 77.8468 264.589 77.5585 265.521 76.9818C266.452 76.4052 267.162 75.6289 267.605 74.6531C268.049 73.6772 268.271 72.5905 268.293 71.3928C267.982 71.8586 267.539 72.2134 266.962 72.4796C266.386 72.7457 265.743 72.8788 264.989 72.8788C264.146 72.8788 263.37 72.7014 262.66 72.3022C261.95 71.9251 261.374 71.3707 260.93 70.6388C260.509 69.9069 260.287 69.0197 260.287 67.9773C260.287 66.9349 260.509 65.9813 260.93 65.205C261.352 64.4288 261.95 63.83 262.727 63.4086C263.503 62.9872 264.434 62.7654 265.476 62.7654C266.519 62.7654 267.472 63.0093 268.293 63.4751C269.113 63.9408 269.712 64.6727 270.178 65.6708C270.621 66.6688 270.843 67.9552 270.843 69.552V69.5742ZM268.293 67.8886C268.293 66.5579 268.049 65.5377 267.561 64.8058C267.073 64.0739 266.408 63.6969 265.565 63.6969C264.722 63.6969 264.035 64.0517 263.547 64.7615C263.081 65.4712 262.837 66.4914 262.837 67.7999C262.837 69.1084 263.081 70.1065 263.547 70.8384C264.035 71.5703 264.7 71.9251 265.565 71.9251C266.43 71.9251 267.095 71.5703 267.561 70.8827C268.049 70.173 268.293 69.175 268.293 67.8886Z" fill="white"/>
<path d="M277.253 79L275.9 78.2681V77.1813C275.9 76.3829 276.033 75.6288 276.322 74.9413C276.61 74.2538 276.943 73.544 277.297 72.8122L281.001 65.338H274.858C274.392 65.338 274.06 65.5154 273.904 65.8924C273.749 66.2473 273.594 66.6687 273.483 67.1344C273.239 67.201 273.017 67.201 272.773 67.1344L273.239 63.1423H279.959C280.358 63.1423 280.735 63.1423 281.112 63.1423C281.489 63.1423 281.888 63.1423 282.309 63.1201C282.465 63.4528 282.575 63.7855 282.642 64.1403L278.096 73.3444C277.896 73.7658 277.719 74.165 277.63 74.5642C277.519 74.9635 277.497 75.3405 277.564 75.6732C277.63 76.0059 277.852 76.272 278.185 76.4716L278.584 76.6934V78.2902L277.231 79.0221L277.253 79Z" fill="white"/>
<path d="M293.73 77.8911C293.796 78.1573 293.796 78.4234 293.73 78.7117C292.998 78.6896 292.377 78.6674 291.823 78.6674H288.784C288.252 78.6674 287.609 78.6674 286.877 78.7117C286.811 78.4234 286.811 78.1573 286.877 77.8911H288.917C288.984 77.2258 289.051 76.5826 289.073 75.9394C289.117 75.3184 289.139 74.6531 289.139 73.9877V66.203L283.906 73.0784H294.373C294.329 73.3224 294.262 73.6328 294.173 73.9433C294.085 74.276 293.952 74.5422 293.819 74.7418H282.287C282.242 74.5644 282.22 74.3869 282.198 74.2095C282.198 74.0321 282.176 73.8546 282.176 73.6772C282.486 73.3667 282.775 73.034 283.019 72.7013C283.262 72.3687 283.506 72.036 283.75 71.7255L288.829 65.0941C289.073 64.7614 289.361 64.3622 289.671 63.8965C289.982 63.4085 290.226 63.0093 290.381 62.6545C290.536 62.6323 290.669 62.6101 290.825 62.6101C290.98 62.6101 291.113 62.6101 291.268 62.6101C291.423 62.6101 291.556 62.6323 291.712 62.6545C291.645 63.1202 291.601 63.6525 291.579 64.2291C291.534 64.8058 291.512 65.3381 291.49 65.8482C291.49 66.3583 291.49 66.7797 291.49 67.0902V73.9655C291.49 74.6309 291.49 75.2741 291.534 75.9172C291.579 76.5382 291.623 77.1814 291.712 77.869H293.752L293.73 77.8911Z" fill="white"/>
<path d="M237.822 11.5994H227.244V39.0565H237.312V24.9509C237.312 23.1766 237.312 22.4226 238.576 22.1786C239.574 21.979 240.173 22.9327 240.35 23.4428L248.423 39.0565H262.017C257.138 31.8263 247.159 17.0332 246.139 15.6138C244.875 13.8395 243.61 12.0874 241.615 11.5773C239.996 11.178 238.754 12.9302 238.332 13.8395H237.822V11.5773V11.5994Z" fill="white"/>
<path d="M234.784 2.81668L238.066 3.83689L236.003 6.58703L236.048 10.0247L232.788 8.91578L229.528 10.0247L229.572 6.58703L227.51 3.83689L230.792 2.81668L232.788 0L234.784 2.81668ZM231.125 3.23807L228.352 4.10303L230.082 6.43178L230.038 9.33717L232.788 8.40567L235.538 9.33717L235.493 6.43178L237.223 4.10303L234.451 3.23807L232.766 0.864964L231.08 3.23807H231.125Z" fill="white"/>
<path d="M86.2223 25.4388L95.4034 5.54464L102.522 32.3142H97.7985V32.0702L98.2642 31.6044C98.2642 31.6044 98.3751 31.4492 98.4194 31.3605C98.4638 31.2496 98.4859 31.1387 98.4859 31.0056C98.4859 30.9391 98.4859 30.8504 98.4416 30.7395C98.4194 30.6286 98.3751 30.4733 98.3307 30.3181L94.3833 15.1036L86.0671 33.1791L77.3738 15.281L73.759 30.2959C73.7147 30.429 73.6925 30.5399 73.6703 30.6508C73.6703 30.7617 73.6703 30.8725 73.6703 30.9613C73.6703 31.0943 73.6703 31.2052 73.7147 31.3161C73.759 31.427 73.8034 31.5157 73.8699 31.5823L74.2913 32.048V32.292H69.5898L76.8194 5.52246L86.2445 25.4166L86.2223 25.4388Z" fill="white"/>
<path d="M121.063 25.3724V7.7626C121.063 7.62953 121.018 7.51863 120.996 7.42992C120.952 7.34121 120.885 7.23031 120.796 7.1416L120.353 6.67585V6.43188H125.564V6.67585L125.121 7.1416C125.121 7.1416 124.966 7.31903 124.921 7.40774C124.877 7.49645 124.855 7.62953 124.855 7.7626V26.5257C124.855 28.5883 123.945 30.1408 122.149 31.1831C120.331 32.2255 117.625 32.7578 114.01 32.7578C110.396 32.7578 107.69 32.2255 105.872 31.1831C104.053 30.1408 103.166 28.5883 103.166 26.5257V7.7626C103.166 7.62953 103.166 7.51863 103.122 7.42992C103.077 7.34121 103.011 7.23031 102.922 7.1416L102.479 6.67585V6.43188H107.69V6.67585L107.246 7.1416C107.246 7.1416 107.069 7.31903 107.025 7.42992C106.98 7.51863 106.98 7.62953 106.98 7.7626V25.3724C106.98 26.8362 107.49 27.8564 108.488 28.433C109.486 29.0097 111.327 29.298 113.988 29.298C116.649 29.298 118.557 29.0097 119.554 28.433C120.575 27.8564 121.085 26.8362 121.085 25.3724H121.063Z" fill="white"/>
<path d="M167.345 9.9361H159.317V28.7657H167.212C168.897 28.7657 170.206 28.6326 171.159 28.3887C172.113 28.1225 173 27.6789 173.776 27.0579C174.907 26.193 175.75 25.1062 176.304 23.8199C176.881 22.5335 177.169 21.0476 177.169 19.3842C177.169 17.8538 176.881 16.4344 176.304 15.1037C175.75 13.773 174.951 12.6419 173.909 11.7547C173.2 11.1337 172.312 10.6902 171.248 10.3797C170.184 10.0913 168.875 9.9361 167.323 9.9361H167.345ZM154.815 32.3143V32.0703L155.281 31.6045C155.281 31.6045 155.436 31.4271 155.458 31.3162C155.503 31.2053 155.525 31.0723 155.525 30.9392V7.7626C155.525 7.62953 155.525 7.51863 155.48 7.42992C155.436 7.34121 155.37 7.23031 155.281 7.1416L154.815 6.67585V6.43188H167.345C169.385 6.43188 171.115 6.65367 172.579 7.07506C174.042 7.49646 175.306 8.13963 176.393 9.04895C177.945 10.3131 179.099 11.8878 179.897 13.7064C180.717 15.5473 181.117 17.5655 181.117 19.7612C181.117 21.8016 180.74 23.6424 179.986 25.3058C179.254 26.9692 178.145 28.3887 176.681 29.5863C175.462 30.5622 174.175 31.2719 172.823 31.6933C171.47 32.1146 169.585 32.3143 167.19 32.3143H154.793H154.815Z" fill="white"/>
<path d="M140 9.9361H131.973V28.7657H139.867C141.553 28.7657 142.861 28.6326 143.815 28.3887C144.768 28.1225 145.656 27.6789 146.432 27.0579C147.563 26.193 148.405 25.1062 148.96 23.8199C149.536 22.5335 149.825 21.0476 149.825 19.3842C149.825 17.8538 149.536 16.4344 148.96 15.1037C148.405 13.773 147.607 12.6419 146.565 11.7547C145.855 11.1337 144.968 10.6902 143.904 10.3797C142.839 10.0913 141.531 9.9361 139.978 9.9361H140ZM127.493 32.3143V32.0703L127.959 31.6045C127.959 31.6045 128.114 31.4271 128.136 31.3162C128.18 31.2053 128.203 31.0723 128.203 30.9392V7.7626C128.203 7.62953 128.203 7.51863 128.158 7.42992C128.114 7.34121 128.047 7.23031 127.959 7.1416L127.493 6.67585V6.43188H140.023C142.063 6.43188 143.815 6.65367 145.256 7.07506C146.72 7.49646 147.984 8.13963 149.071 9.04895C150.623 10.3131 151.776 11.8878 152.575 13.7064C153.395 15.5473 153.794 17.5655 153.794 19.7612C153.794 21.8016 153.417 23.6424 152.663 25.3058C151.931 26.9692 150.823 28.3887 149.359 29.5863C148.139 30.5622 146.853 31.2719 145.5 31.6933C144.148 32.1146 142.262 32.3143 139.867 32.3143H127.471H127.493Z" fill="white"/>
<path d="M182.78 30.917V7.7626C182.78 7.6517 182.758 7.54081 182.713 7.42992C182.669 7.31903 182.603 7.23031 182.514 7.1416L182.07 6.67585V6.43188H187.282V6.67585L186.838 7.1416C186.838 7.1416 186.683 7.34121 186.639 7.42992C186.594 7.51863 186.594 7.62953 186.594 7.7626V30.917C186.594 31.0723 186.594 31.1831 186.639 31.294C186.683 31.4049 186.75 31.4936 186.838 31.5824L187.282 32.0481V32.2921H182.07V32.0481L182.514 31.5824C182.514 31.5824 182.669 31.4049 182.713 31.294C182.758 31.1831 182.78 31.0501 182.78 30.917Z" fill="white"/>
<path d="M208.215 24.3964V7.76253C208.215 7.62946 208.171 7.51857 208.149 7.42985C208.105 7.34114 208.038 7.23025 207.949 7.14153L207.484 6.67578V6.43182H212.362V6.67578L211.897 7.14153C211.897 7.14153 211.742 7.31896 211.697 7.42985C211.653 7.51857 211.653 7.62946 211.653 7.76253V33.157L193.49 14.6157V30.9169C193.49 31.0722 193.49 31.1831 193.535 31.294C193.579 31.4049 193.645 31.4936 193.734 31.5823L194.178 32.048V32.292H189.299V32.048L189.787 31.5823C189.787 31.5823 189.942 31.4049 189.964 31.294C190.008 31.1831 190.031 31.05 190.031 30.9169V5.54468L208.193 24.4186L208.215 24.3964Z" fill="white"/>
<path d="M18.9166 24.3964V7.76253C18.9166 7.62946 18.8723 7.51857 18.8501 7.42985C18.8057 7.34114 18.7392 7.23025 18.6505 7.14153L18.1848 6.67578V6.43182H23.0637V6.67578L22.5979 7.14153C22.5979 7.14153 22.4427 7.31896 22.3984 7.42985C22.354 7.51857 22.354 7.62946 22.354 7.76253V33.157L4.19138 14.6379V30.9391C4.19138 31.0944 4.19138 31.2053 4.23573 31.3162C4.28008 31.427 4.34661 31.5158 4.43532 31.6045L4.87885 32.0702V32.3142H0V32.0702L0.487885 31.6045C0.487885 31.6045 0.643121 31.427 0.665298 31.3162C0.709651 31.2053 0.731827 31.0722 0.731827 30.9391V5.54468L18.8945 24.4186L18.9166 24.3964Z" fill="white"/>
<path d="M114.121 39.8992H110.905C110.905 39.8992 110.839 39.8992 110.794 39.9214C110.75 39.9214 110.706 39.9658 110.661 40.0101L110.44 40.1875L110.373 40.1432L111.083 38.8125H119.155L118.401 40.1875H118.334V40.0545C118.334 40.0545 118.334 39.9658 118.29 39.9436C118.246 39.9214 118.201 39.8992 118.157 39.8992H115.296V46.4197C115.296 46.4197 115.296 46.5084 115.296 46.5528C115.296 46.575 115.318 46.6193 115.363 46.6415L115.518 46.7746V46.8633H113.899V46.7746L114.054 46.6415C114.054 46.6415 114.099 46.575 114.121 46.5528C114.121 46.5084 114.143 46.4863 114.143 46.4419V39.9214L114.121 39.8992ZM117.359 46.4419V42.0505C117.359 42.0505 117.359 41.984 117.336 41.9397C117.336 41.8953 117.314 41.8731 117.27 41.8509L117.115 41.7179V41.6292H119.288C119.51 41.6292 119.709 41.6735 119.909 41.7844C120.109 41.8953 120.264 42.0284 120.397 42.2058L119.931 43.1595H119.842V43.0708C119.842 42.9377 119.776 42.8268 119.643 42.7381C119.51 42.6494 119.355 42.605 119.155 42.605H118.357V46.4197C118.357 46.4197 118.357 46.5084 118.357 46.5306C118.357 46.575 118.401 46.5971 118.423 46.6193L118.578 46.7524V46.8411H117.115V46.7524L117.27 46.6193C117.27 46.6193 117.314 46.5528 117.336 46.5306C117.336 46.4863 117.359 46.4641 117.359 46.4197V46.4419ZM122.681 46.8633C122.06 46.8633 121.594 46.708 121.262 46.4197C120.929 46.1314 120.774 45.6878 120.774 45.1334C120.774 44.5789 120.929 44.1575 121.262 43.847C121.594 43.5365 122.06 43.3813 122.637 43.3813H123.479L122.903 44.4902H122.836C122.836 44.4902 122.814 44.3793 122.77 44.3571C122.725 44.3349 122.659 44.3128 122.592 44.3128C122.326 44.3128 122.104 44.3793 121.949 44.5345C121.794 44.6898 121.705 44.8894 121.705 45.1334C121.705 45.4217 121.794 45.6213 121.949 45.7765C122.104 45.9096 122.371 45.9761 122.703 45.9761H124.034V43.2038C124.034 42.9599 123.989 42.8046 123.901 42.7159C123.812 42.6272 123.635 42.5828 123.391 42.5828H121.705C121.705 42.5828 121.617 42.5828 121.572 42.605C121.528 42.605 121.484 42.6494 121.439 42.6937L121.217 42.8712L121.151 42.8268L121.816 41.6513H123.413C123.989 41.6513 124.389 41.7844 124.633 42.0505C124.877 42.3167 124.987 42.7603 124.987 43.3813V46.4641C124.987 46.4641 124.987 46.5528 124.987 46.575C124.987 46.6193 125.032 46.6415 125.054 46.6637L125.187 46.7968V46.8855H122.637L122.681 46.8633ZM130.132 41.6292V39.5887C130.132 39.5887 130.132 39.5 130.11 39.4778C130.11 39.4557 130.088 39.4113 130.044 39.3891L129.888 39.256V39.1673H131.33V39.256L131.197 39.3891C131.197 39.3891 131.153 39.4335 131.13 39.4778C131.13 39.5 131.13 39.5444 131.13 39.5887V46.4419C131.13 46.4419 131.13 46.5306 131.13 46.5528C131.13 46.5971 131.175 46.6193 131.197 46.6415L131.33 46.7746V46.8633H129.911V46.7746L130.044 46.6415C130.044 46.6415 130.088 46.575 130.11 46.5528C130.11 46.5084 130.132 46.4863 130.132 46.4419V42.5828H128.957C128.336 42.5828 127.87 42.7381 127.538 43.0264C127.205 43.3147 127.05 43.7361 127.05 44.2684C127.05 44.8007 127.205 45.2221 127.493 45.5104C127.804 45.7987 128.225 45.954 128.78 45.954H129.201C129.201 45.954 129.29 45.954 129.312 45.954C129.356 45.954 129.378 45.9096 129.445 45.8653L129.667 45.6878L129.733 45.7322L129.068 46.9298H128.691C127.915 46.9298 127.272 46.6859 126.762 46.1979C126.274 45.71 126.008 45.1112 126.008 44.3571C126.008 43.5365 126.274 42.8933 126.784 42.4054C127.316 41.9175 128.026 41.6957 128.957 41.6957H130.11L130.132 41.6292ZM132.55 40.365C132.55 40.1875 132.616 40.0545 132.727 39.9214C132.86 39.7883 133.015 39.744 133.193 39.744C133.37 39.744 133.525 39.8105 133.636 39.9214C133.769 40.0323 133.814 40.1875 133.814 40.365C133.814 40.5424 133.747 40.6977 133.636 40.8085C133.503 40.9416 133.37 40.986 133.193 40.986C133.015 40.986 132.86 40.9194 132.749 40.8085C132.616 40.6755 132.572 40.5424 132.572 40.365H132.55ZM132.683 46.4419V42.0505C132.683 42.0505 132.683 41.984 132.661 41.9397C132.661 41.8953 132.638 41.8731 132.594 41.8509L132.439 41.7179V41.6292H133.902V41.7179L133.747 41.8509C133.747 41.8509 133.703 41.9175 133.681 41.9397C133.681 41.9618 133.681 42.0062 133.681 42.0505V46.4419C133.681 46.4419 133.681 46.5306 133.681 46.5528C133.681 46.5971 133.725 46.6193 133.747 46.6415L133.902 46.7746V46.8633H132.439V46.7746L132.594 46.6415C132.594 46.6415 132.638 46.575 132.661 46.5528C132.661 46.5084 132.683 46.4863 132.683 46.4419ZM135.277 46.4419V42.0505C135.277 42.0505 135.277 41.984 135.255 41.9397C135.255 41.8953 135.233 41.8731 135.189 41.8509L135.033 41.7179V41.6292H136.231V42.0062H136.253L136.63 41.6292H137.406C138.16 41.6292 138.715 41.8509 139.092 42.2501C139.469 42.6494 139.668 43.2482 139.668 44.0244V46.4419C139.668 46.4419 139.668 46.5306 139.668 46.5528C139.668 46.5971 139.713 46.6193 139.735 46.6415L139.89 46.7746V46.8633H138.426V46.7746L138.582 46.6415C138.582 46.6415 138.626 46.575 138.648 46.5528C138.648 46.5084 138.67 46.4863 138.67 46.4419V44.0244C138.67 43.5587 138.559 43.2038 138.36 42.9599C138.16 42.7159 137.85 42.5828 137.451 42.5828H136.253V46.4419C136.253 46.4419 136.253 46.5306 136.253 46.5528C136.253 46.5971 136.297 46.6193 136.32 46.6415L136.475 46.7746V46.8633H135.011V46.7746L135.166 46.6415C135.166 46.6415 135.211 46.575 135.233 46.5528C135.233 46.5084 135.255 46.4863 135.255 46.4419H135.277ZM144.813 46.9298V42.5828H143.638C143.017 42.5828 142.551 42.7381 142.219 43.0264C141.886 43.3147 141.731 43.7361 141.731 44.2684C141.731 44.8007 141.864 45.2443 142.152 45.5326C142.44 45.7987 142.862 45.954 143.461 45.954H143.749C143.749 45.954 143.926 45.954 143.993 45.9096C144.059 45.8874 144.126 45.8431 144.192 45.7987L144.348 45.6656L144.414 45.71L143.749 46.9076H143.372C142.573 46.9076 141.908 46.6637 141.42 46.1979C140.932 45.7322 140.688 45.1112 140.688 44.3349C140.688 43.5143 140.955 42.8712 141.465 42.3832C141.997 41.8953 142.707 41.6735 143.638 41.6735H146.011V41.7622L145.878 41.8953C145.878 41.8953 145.833 41.9618 145.811 41.984C145.811 42.0284 145.789 42.0505 145.789 42.0949V47.0851C145.789 47.9279 145.589 48.5045 145.212 48.8594C144.835 49.192 144.192 49.3695 143.261 49.3695H141.487L142.063 48.438H143.704C144.126 48.438 144.414 48.3493 144.569 48.1496C144.725 47.95 144.813 47.5508 144.813 46.9742V46.9298ZM154.527 39.8992C154.039 39.8992 153.64 39.9436 153.329 40.0323C153.019 40.121 152.753 40.2541 152.531 40.4315C152.176 40.7198 151.932 41.0747 151.755 41.4739C151.577 41.8731 151.488 42.3167 151.488 42.8268C151.488 43.3591 151.577 43.8027 151.755 44.224C151.932 44.6233 152.198 44.9559 152.531 45.2221C152.775 45.4217 153.041 45.5548 153.351 45.6435C153.662 45.7322 154.061 45.7544 154.593 45.7544H158.075C158.075 45.7544 158.164 45.7544 158.208 45.7322C158.252 45.7322 158.297 45.6878 158.341 45.6435L158.563 45.466H158.651L157.897 46.8633H154.593C153.839 46.8633 153.24 46.7968 152.819 46.6637C152.398 46.5306 151.999 46.3088 151.644 45.9983C151.2 45.6213 150.845 45.1777 150.624 44.6676C150.402 44.1575 150.269 43.5587 150.269 42.9377C150.269 42.4498 150.335 41.984 150.468 41.5404C150.601 41.0969 150.801 40.6977 151.067 40.3428C151.245 40.0988 151.466 39.8549 151.71 39.6553C151.954 39.4557 152.198 39.2782 152.486 39.1452C152.73 39.0121 152.996 38.9234 153.285 38.879C153.573 38.8347 153.994 38.7903 154.549 38.7903H158.541L157.787 40.1654H157.72V40.0545V40.0323C157.72 39.9879 157.72 39.9436 157.654 39.9214C157.609 39.8992 157.565 39.877 157.52 39.877H154.527V39.8992ZM163.508 39.7662C162.555 39.7662 161.756 40.0545 161.157 40.6311C160.559 41.2078 160.248 41.9397 160.248 42.849C160.248 43.7583 160.559 44.4902 161.157 45.0668C161.756 45.6435 162.555 45.9318 163.508 45.9318C164.462 45.9318 165.26 45.6435 165.859 45.0668C166.48 44.4902 166.768 43.7583 166.768 42.849C166.768 41.9397 166.458 41.2078 165.859 40.6311C165.26 40.0545 164.462 39.7662 163.508 39.7662ZM163.508 38.6794C164.107 38.6794 164.684 38.7681 165.194 38.9455C165.726 39.123 166.169 39.3669 166.546 39.6774C167.034 40.0988 167.389 40.5646 167.633 41.0969C167.877 41.6292 168.01 42.2058 168.01 42.8268C168.01 43.4478 167.877 44.0244 167.633 44.5567C167.389 45.089 167.012 45.5548 166.546 45.9761C166.169 46.3088 165.726 46.5528 165.194 46.7302C164.684 46.9076 164.107 46.9964 163.508 46.9964C162.909 46.9964 162.355 46.9076 161.823 46.7302C161.313 46.5528 160.847 46.3088 160.47 45.9761C159.982 45.5769 159.605 45.089 159.361 44.5567C159.117 44.0244 158.984 43.4478 158.984 42.8046C158.984 42.1614 159.117 41.607 159.361 41.0747C159.605 40.5424 159.982 40.0545 160.448 39.6553C160.825 39.3448 161.268 39.0786 161.778 38.9234C162.311 38.7459 162.865 38.6572 163.464 38.6572L163.508 38.6794ZM168.609 46.3532C168.609 46.1536 168.675 45.9761 168.831 45.8209C168.986 45.6656 169.163 45.5991 169.363 45.5991C169.562 45.5991 169.74 45.6656 169.895 45.8209C170.05 45.9761 170.117 46.1536 170.117 46.3532C170.117 46.5528 170.05 46.7302 169.895 46.8855C169.74 47.0407 169.562 47.1073 169.363 47.1073C169.163 47.1073 168.986 47.0407 168.831 46.8855C168.675 46.7302 168.609 46.5528 168.609 46.3532ZM176.725 38.8125H178.278V38.9012C177.546 39.3669 177.014 39.9436 176.615 40.6089C176.238 41.2743 176.038 41.984 176.038 42.7824C176.038 43.6474 176.215 44.4015 176.592 45.0668C176.969 45.7322 177.524 46.3088 178.256 46.7968V46.8855H176.703C176.149 46.3088 175.727 45.6878 175.439 45.0003C175.151 44.3128 175.018 43.603 175.018 42.849C175.018 42.0949 175.173 41.4074 175.461 40.7198C175.75 40.0323 176.171 39.4113 176.725 38.8347V38.8125ZM179.254 46.4419V39.2339C179.254 39.2339 179.254 39.1673 179.254 39.123C179.254 39.1008 179.231 39.0564 179.187 39.0343L179.054 38.9012V38.8125H180.673V38.9012L180.54 39.0343C180.54 39.0343 180.495 39.1008 180.473 39.123C180.473 39.1452 180.473 39.1895 180.473 39.2339V45.7544H183.401C183.401 45.7544 183.489 45.7544 183.511 45.7544C183.556 45.7544 183.6 45.71 183.645 45.6656L183.866 45.4882L183.933 45.5326L183.201 46.8855H179.054V46.7968L179.187 46.6637C179.187 46.6637 179.231 46.5971 179.254 46.575C179.254 46.5306 179.276 46.5084 179.276 46.4641L179.254 46.4419ZM184.82 46.3532C184.82 46.1536 184.886 45.9761 185.042 45.8209C185.197 45.6656 185.374 45.5991 185.574 45.5991C185.773 45.5991 185.951 45.6656 186.106 45.8209C186.261 45.9761 186.328 46.1536 186.328 46.3532C186.328 46.5528 186.261 46.7302 186.106 46.8855C185.951 47.0407 185.773 47.1073 185.574 47.1073C185.374 47.1073 185.197 47.0407 185.042 46.8855C184.886 46.7302 184.82 46.5528 184.82 46.3532ZM188.213 46.4419V39.2339C188.213 39.2339 188.213 39.1673 188.213 39.123C188.213 39.1008 188.191 39.0564 188.146 39.0343L188.013 38.9012V38.8125H189.632V38.9012L189.499 39.0343C189.499 39.0343 189.455 39.1008 189.433 39.123C189.433 39.1452 189.433 39.1895 189.433 39.2339V45.7544H192.36C192.36 45.7544 192.449 45.7544 192.471 45.7544C192.515 45.7544 192.559 45.71 192.604 45.6656L192.826 45.4882L192.892 45.5326L192.16 46.8855H188.013V46.7968L188.146 46.6637C188.146 46.6637 188.191 46.5971 188.213 46.575C188.213 46.5306 188.235 46.5084 188.235 46.4641L188.213 46.4419ZM193.779 46.3532C193.779 46.1536 193.846 45.9761 194.001 45.8209C194.156 45.6656 194.334 45.5991 194.533 45.5991C194.733 45.5991 194.91 45.6656 195.065 45.8209C195.221 45.9761 195.287 46.1536 195.287 46.3532C195.287 46.5528 195.221 46.7302 195.065 46.8855C194.91 47.0407 194.733 47.1073 194.533 47.1073C194.334 47.1073 194.156 47.0407 194.001 46.8855C193.846 46.7302 193.779 46.5528 193.779 46.3532ZM200.831 39.8992C200.343 39.8992 199.944 39.9436 199.634 40.0323C199.323 40.121 199.057 40.2541 198.835 40.4315C198.481 40.7198 198.237 41.0747 198.059 41.4739C197.882 41.8731 197.793 42.3167 197.793 42.8268C197.793 43.3591 197.882 43.8027 198.059 44.224C198.237 44.6233 198.503 44.9559 198.835 45.2221C199.079 45.4217 199.346 45.5548 199.656 45.6435C199.966 45.7322 200.366 45.7544 200.898 45.7544H204.38C204.38 45.7544 204.468 45.7544 204.513 45.7322C204.557 45.7322 204.601 45.6878 204.646 45.6435L204.868 45.466H204.956L204.202 46.8633H200.898C200.144 46.8633 199.545 46.7968 199.124 46.6637C198.702 46.5306 198.303 46.3088 197.948 45.9983C197.505 45.6213 197.15 45.1777 196.928 44.6676C196.707 44.1575 196.573 43.5587 196.573 42.9377C196.573 42.4498 196.64 41.984 196.773 41.5404C196.906 41.0969 197.106 40.6977 197.372 40.3428C197.549 40.0988 197.771 39.8549 198.015 39.6553C198.259 39.4557 198.503 39.2782 198.791 39.1452C199.035 39.0121 199.301 38.9234 199.589 38.879C199.878 38.8347 200.299 38.7903 200.854 38.7903H204.845L204.091 40.1654H204.025V40.0545V40.0323C204.025 39.9879 204.025 39.9436 203.958 39.9214C203.914 39.8992 203.87 39.877 203.825 39.877H200.831V39.8992ZM205.888 46.3532C205.888 46.1536 205.954 45.9761 206.109 45.8209C206.265 45.6656 206.442 45.5991 206.642 45.5991C206.841 45.5991 207.019 45.6656 207.174 45.8209C207.329 45.9761 207.396 46.1536 207.396 46.3532C207.396 46.5528 207.329 46.7302 207.174 46.8855C207.019 47.0407 206.841 47.1073 206.642 47.1073C206.442 47.1073 206.265 47.0407 206.109 46.8855C205.954 46.7302 205.888 46.5528 205.888 46.3532ZM209.902 38.8125C210.434 39.3669 210.855 40.0101 211.143 40.6755C211.432 41.363 211.587 42.0505 211.587 42.7603C211.587 43.5365 211.454 44.2684 211.166 44.9338C210.877 45.6213 210.456 46.2423 209.902 46.8189H208.349V46.7302C209.081 46.2423 209.635 45.6657 210.012 45.0003C210.389 44.3349 210.567 43.5587 210.567 42.7159C210.567 41.9175 210.389 41.2078 209.99 40.5424C209.613 39.877 209.059 39.3226 208.349 38.8347V38.7459H209.902V38.8125Z" fill="white"/>
<path d="M229.704 44.5789V41.8731V41.8288C229.704 41.8288 229.704 41.8066 229.682 41.7844L229.616 41.7179V41.6735H230.414V41.7179L230.347 41.7844C230.347 41.7844 230.325 41.8066 230.325 41.8288V41.8731V45.9983L227.376 42.9821V45.6213C227.376 45.6213 227.376 45.6657 227.376 45.6878C227.376 45.6878 227.376 45.7322 227.398 45.7322L227.464 45.7987V45.8431H226.666V45.7987L226.755 45.7322C226.755 45.7322 226.777 45.71 226.777 45.6878C226.777 45.6878 226.777 45.6435 226.777 45.6213V41.4961L229.726 44.5567L229.704 44.5789ZM231.212 45.8653H230.325L232.964 41.5183L235.603 45.8653H234.694V45.8209C234.694 45.8209 234.76 45.8209 234.783 45.7987C234.805 45.7987 234.827 45.7544 234.827 45.7322V45.6878C234.827 45.6878 234.827 45.6657 234.827 45.6435L233.94 44.1797H232.654H232.543C232.543 44.1797 232.521 44.1797 232.498 44.1797L232.41 44.2462H232.388L232.765 43.5809H233.607L233.031 42.6272L231.168 45.6213C231.168 45.6213 231.168 45.6435 231.168 45.6657C231.168 45.6657 231.168 45.6878 231.168 45.71C231.168 45.7322 231.168 45.7544 231.19 45.7766C231.212 45.7766 231.234 45.7987 231.279 45.7987V45.8431L231.212 45.8653ZM237.577 44.6011C237.577 45.0003 237.466 45.333 237.222 45.5769C237 45.8209 236.668 45.9318 236.291 45.9318C235.98 45.9318 235.692 45.8431 235.47 45.6878C235.248 45.5326 235.093 45.3108 235.004 45.0225L235.559 44.6454L235.625 44.712C235.625 44.712 235.603 44.7563 235.603 44.7785C235.603 44.7785 235.603 44.8229 235.603 44.8451C235.603 44.9781 235.67 45.1112 235.803 45.2221C235.936 45.333 236.091 45.3773 236.291 45.3773C236.512 45.3773 236.668 45.3108 236.801 45.1999C236.934 45.0668 236.978 44.9116 236.978 44.6898C236.978 44.6898 236.978 44.6898 236.978 44.6454V44.6011V41.8953V41.851C236.978 41.851 236.978 41.8288 236.956 41.8066L236.889 41.7401V41.6957H237.732V41.7401L237.666 41.8066C237.666 41.8066 237.643 41.8288 237.621 41.851V41.8953V44.6011H237.577ZM240.615 44.7342L242.101 41.4961L243.254 45.8431H242.478V45.7987L242.544 45.7322C242.544 45.7322 242.544 45.71 242.567 45.6878C242.567 45.6878 242.567 45.6435 242.567 45.6213C242.567 45.6213 242.567 45.5991 242.567 45.5769C242.567 45.5769 242.567 45.5326 242.567 45.5104L241.924 43.0486L240.571 45.9762L239.151 43.0708L238.575 45.5104C238.575 45.5104 238.575 45.5548 238.575 45.5769V45.6213C238.575 45.6213 238.575 45.6657 238.575 45.6878C238.575 45.6878 238.575 45.71 238.597 45.7322L238.664 45.7987V45.8431H237.91L239.085 41.4961L240.615 44.7342ZM246.514 44.7342V41.8731V41.8288C246.514 41.8288 246.514 41.8066 246.492 41.7844L246.425 41.7179V41.6735H247.268V41.7179L247.202 41.7844C247.202 41.7844 247.179 41.8066 247.179 41.8288C247.179 41.8288 247.179 41.8731 247.179 41.8953V44.9338C247.179 45.2665 247.024 45.5104 246.736 45.6878C246.448 45.8653 246.004 45.9318 245.405 45.9318C244.806 45.9318 244.385 45.8431 244.075 45.6878C243.786 45.5104 243.631 45.2665 243.631 44.9338V41.8953V41.851C243.631 41.851 243.631 41.8288 243.609 41.8066L243.542 41.7401V41.6957H244.385V41.7401L244.319 41.8066C244.319 41.8066 244.296 41.8288 244.274 41.851V41.8953V44.7563C244.274 45.0003 244.363 45.1556 244.518 45.2443C244.673 45.333 244.984 45.3773 245.405 45.3773C245.827 45.3773 246.137 45.333 246.314 45.2443C246.47 45.1556 246.558 44.9781 246.558 44.7563L246.514 44.7342ZM249.863 42.228H248.554V45.2886H249.841C250.107 45.2886 250.328 45.2886 250.484 45.2221C250.639 45.1777 250.772 45.1112 250.905 45.0003C251.082 44.8672 251.216 44.6898 251.304 44.468C251.393 44.2684 251.437 44.0244 251.437 43.7583C251.437 43.5143 251.393 43.2704 251.304 43.0708C251.216 42.849 251.082 42.6716 250.927 42.5385C250.816 42.4276 250.661 42.3611 250.506 42.3167C250.328 42.2723 250.129 42.2502 249.863 42.2502V42.228ZM247.845 45.8653V45.8209L247.911 45.7544C247.911 45.7544 247.933 45.7322 247.933 45.71C247.933 45.71 247.933 45.6657 247.933 45.6435V41.8953V41.851C247.933 41.851 247.933 41.8288 247.911 41.8066L247.845 41.7401V41.6957H249.885C250.218 41.6957 250.506 41.7401 250.728 41.8066C250.972 41.8731 251.171 41.984 251.349 42.1171C251.592 42.3167 251.792 42.5828 251.925 42.8712C252.058 43.1595 252.125 43.4922 252.125 43.847C252.125 44.1797 252.058 44.468 251.947 44.7563C251.836 45.0225 251.659 45.2664 251.415 45.4439C251.216 45.5991 251.016 45.71 250.794 45.7766C250.572 45.8431 250.262 45.8875 249.885 45.8875H247.867L247.845 45.8653ZM254.498 42.228H253.189V45.2886H254.475C254.742 45.2886 254.963 45.2886 255.119 45.2221C255.274 45.1777 255.407 45.1112 255.54 45.0003C255.717 44.8672 255.85 44.6898 255.939 44.468C256.028 44.2684 256.072 44.0244 256.072 43.7583C256.072 43.5143 256.028 43.2704 255.939 43.0708C255.85 42.849 255.717 42.6716 255.562 42.5385C255.451 42.4276 255.296 42.3611 255.141 42.3167C254.963 42.2723 254.764 42.2502 254.498 42.2502V42.228ZM252.48 45.8653V45.8209L252.546 45.7544C252.546 45.7544 252.568 45.7322 252.568 45.71C252.568 45.71 252.568 45.6657 252.568 45.6435V41.8953V41.851C252.568 41.851 252.568 41.8288 252.546 41.8066L252.48 41.7401V41.6957H254.52C254.852 41.6957 255.141 41.7401 255.363 41.8066C255.606 41.8731 255.806 41.984 255.983 42.1171C256.227 42.3167 256.427 42.5828 256.56 42.8712C256.693 43.1595 256.76 43.4922 256.76 43.847C256.76 44.1797 256.693 44.468 256.582 44.7563C256.471 45.0225 256.294 45.2664 256.05 45.4439C255.85 45.5991 255.651 45.71 255.429 45.7766C255.207 45.8431 254.897 45.8875 254.52 45.8875H252.502L252.48 45.8653ZM257.248 45.6435V41.8953V41.851C257.248 41.851 257.248 41.8066 257.225 41.8066L257.159 41.7401V41.6957H258.002V41.7401L257.935 41.8066C257.935 41.8066 257.913 41.8288 257.913 41.851C257.913 41.851 257.913 41.8731 257.913 41.8953V45.6435C257.913 45.6435 257.913 45.6878 257.913 45.71C257.913 45.71 257.913 45.7544 257.935 45.7544L258.002 45.8209V45.8653H257.159V45.8209L257.225 45.7544C257.225 45.7544 257.248 45.7322 257.248 45.71C257.248 45.71 257.248 45.6657 257.248 45.6435ZM261.616 44.5789V41.8731V41.8288C261.616 41.8288 261.616 41.8066 261.594 41.7844L261.528 41.7179V41.6735H262.326V41.7179L262.259 41.7844C262.259 41.7844 262.237 41.8066 262.237 41.8288V41.8731V45.9983L259.288 42.9821V45.6213C259.288 45.6213 259.288 45.6657 259.288 45.6878C259.288 45.6878 259.288 45.7322 259.31 45.7322L259.376 45.7987V45.8431H258.578V45.7987L258.667 45.7322C258.667 45.7322 258.689 45.71 258.689 45.6878C258.689 45.6878 258.689 45.6435 258.689 45.6213V41.4961L261.639 44.5567L261.616 44.5789Z" fill="white"/>
<path d="M29.2075 32.3142H23.6855L40.0075 5.54468L56.2186 32.3142H50.6301V32.0702C50.874 32.0702 51.0515 32.0259 51.1845 31.915C51.3398 31.8263 51.4063 31.6932 51.4063 31.5379C51.4063 31.427 51.4063 31.3383 51.3619 31.2496C51.3398 31.1609 51.3176 31.0722 51.2732 31.0278L45.7734 22.0012H37.8342C37.4572 22.0012 37.2133 22.0012 37.0802 22.0455C36.9693 22.0455 36.8806 22.0899 36.8363 22.1564L36.304 22.6L36.1266 22.4447L38.433 18.4526H43.5779L39.9853 12.5309L28.5422 31.0057C28.5422 31.0057 28.4535 31.1609 28.4313 31.2496C28.4092 31.3383 28.387 31.427 28.387 31.5158C28.387 31.671 28.4535 31.8041 28.5866 31.8928C28.7418 31.9815 28.9192 32.048 29.1632 32.048V32.292L29.2075 32.3142Z" fill="white"/>
<path d="M68.8575 24.5074C68.8575 27.0358 68.1257 29.0318 66.6842 30.54C65.2427 32.0259 63.3356 32.7578 60.9183 32.7578C58.9668 32.7578 57.2813 32.2699 55.8842 31.2719C54.4871 30.296 53.5335 28.9431 53.0234 27.2132L56.4165 24.8179L56.7935 25.1728C56.7048 25.328 56.6382 25.4611 56.616 25.5942C56.5717 25.7272 56.5717 25.8603 56.5717 25.9934C56.5717 26.8583 56.993 27.6346 57.8136 28.2778C58.6563 28.9431 59.6542 29.2536 60.8296 29.2536C62.1602 29.2536 63.2025 28.8766 63.9565 28.1225C64.7105 27.3684 65.1097 26.326 65.1097 25.0175C65.1097 24.9732 65.1097 24.8844 65.1097 24.7735C65.1097 24.6627 65.1097 24.5518 65.1097 24.5074V7.7626C65.1097 7.62953 65.1097 7.51863 65.0653 7.42992C65.021 7.34121 64.9544 7.23031 64.8657 7.1416L64.4 6.67585V6.43188H69.6337V6.67585L69.1902 7.1416C69.1902 7.1416 69.0128 7.31903 68.9684 7.42992C68.9241 7.51863 68.9241 7.62953 68.9241 7.7626V24.5074H68.8575Z" fill="white"/>
<path d="M262.526 47.3733V47.8834H227.266V47.3733H262.526ZM262.526 40.3206V40.8307H227.266V40.3206H262.526Z" fill="white"/>
<path d="M454.531 13.4623C459.92 11.8433 464.422 12.0207 467.704 14.1055C471.031 16.2347 472.406 19.8941 472.406 23.6866H467.371C467.371 21.0252 466.462 19.2731 465.021 18.3638C463.491 17.3879 460.696 16.9 456.017 18.2973L454.576 13.4623H454.531Z" fill="white"/>
<path d="M286.233 16.634H291.244V25.4389C291.244 28.3443 290.38 30.54 288.628 32.0259C286.876 33.5119 284.392 34.266 281.176 34.266C277.961 34.266 275.499 33.5119 273.725 32.0038C271.973 30.4956 271.086 28.3221 271.086 25.4833V16.6562H276.12V25.6163C276.12 26.9914 276.586 28.1003 277.495 28.9431C278.426 29.7859 279.624 30.1851 281.11 30.1851C282.596 30.1851 283.904 29.7637 284.813 28.8988C285.745 28.056 286.21 26.8362 286.21 25.2615V16.6562L286.233 16.634Z" fill="white"/>
<path d="M283.172 9.58105H278.648V14.1055H283.172V9.58105Z" fill="white"/>
<path d="M316.438 28.2112H311.914V32.7356H316.438V28.2112Z" fill="white"/>
<path d="M321.96 28.2112H317.436V32.7356H321.96V28.2112Z" fill="white"/>
<path d="M464.577 28.2112H460.053V32.7356H464.577V28.2112Z" fill="white"/>
<path d="M485.733 6.54272H481.209V11.0671H485.733V6.54272Z" fill="white"/>
<path d="M290.492 20.4042C291.002 20.4042 291.046 20.005 291.334 20.3598C291.556 20.626 291.978 21.0252 292.598 21.4022C293.818 22.1784 295.792 22.9103 298.564 22.9103H318.212C318.212 22.9103 318.212 22.9103 318.257 22.9103C318.301 22.9103 318.346 22.9103 318.39 22.8882C318.501 22.866 318.567 22.7994 318.634 22.7551C318.7 22.7107 318.767 22.6442 318.811 22.5111C318.878 22.3781 318.944 22.1119 318.944 21.6683V13.1074H323.978V21.6683C323.978 23.864 323.158 25.5496 321.849 26.6363C320.63 27.6344 319.233 27.9671 318.19 27.9671H298.542C294.86 27.9671 291.955 26.9912 289.893 25.6827C288.873 25.0395 288.03 24.3076 287.431 23.5757C286.899 22.9103 286.278 21.9345 286.189 20.8256L290.47 20.4263L290.492 20.4042Z" fill="white"/>
<path d="M415.457 19.8942C415.967 19.8942 416.011 19.4949 416.299 19.8498C416.521 20.1159 416.942 20.5152 417.563 20.8922C418.783 21.6684 420.757 22.4003 423.529 22.4003H480.212C480.212 22.4003 480.212 22.4003 480.257 22.4003C480.301 22.4003 480.345 22.4003 480.39 22.3782C480.501 22.356 480.567 22.2894 480.634 22.2451C480.7 22.2007 480.767 22.1342 480.811 22.0011C480.878 21.868 480.944 21.6019 480.944 21.1583V12.5974H485.978V21.1583C485.978 23.354 485.158 25.0396 483.849 26.1263C482.629 27.1244 481.232 27.457 480.19 27.457H423.507C419.825 27.457 416.92 26.4812 414.858 25.1727C413.838 24.5295 412.995 23.7976 412.396 23.0657C411.864 22.4003 411.243 21.4245 411.154 20.3155L415.434 19.9163L415.457 19.8942Z" fill="white"/>
<path d="M334.245 13.1741C335.952 12.9523 338.525 13.1298 340.765 14.5048C343.138 15.9686 344.801 18.5635 344.889 22.4226H366.955C367.465 22.4448 368.175 22.3561 368.663 22.1121C368.885 22.0012 368.973 21.9125 368.995 21.8459C369.018 21.8016 369.084 21.7129 369.084 21.4246V3.01636H374.118V21.4024C374.118 24.0416 372.61 25.705 370.969 26.57C369.505 27.3241 367.864 27.5015 366.778 27.4571H329.033V22.4226H339.855C339.789 20.2269 338.924 19.2954 338.126 18.8075C337.128 18.1865 335.797 18.0534 334.888 18.1865L334.245 13.1963V13.1741Z" fill="white"/>
<path d="M382.946 3.01636H377.912V27.2132H382.946V3.01636Z" fill="white"/>
<path d="M392.525 22.6665C392.525 20.6261 393.169 18.9627 394.41 17.8538C395.519 16.8557 396.85 16.5674 397.892 16.6118H401.862V21.6463H397.759C397.759 21.6463 397.737 21.6906 397.715 21.735C397.67 21.8681 397.582 22.1564 397.582 22.6443V34.9978H392.548V22.6443L392.525 22.6665Z" fill="white"/>
<path d="M411.176 19.8943C411.176 18.3639 409.934 17.1219 408.404 17.1219C406.874 17.1219 405.632 18.3639 405.632 19.8943C405.632 21.4246 406.874 22.6666 408.404 22.6666V27.7011C404.102 27.7011 400.598 24.1969 400.598 19.8943C400.598 15.5916 404.102 12.0874 408.404 12.0874C412.706 12.0874 416.21 15.5916 416.21 19.8943C416.21 24.1969 412.706 27.7011 408.404 27.7011V22.6666C409.934 22.6666 411.176 21.4246 411.176 19.8943Z" fill="white"/>
<path d="M348.682 43.5809C348.682 43.4034 348.638 43.1595 348.527 42.9377C348.416 42.7159 348.305 42.5828 348.194 42.5163C347.795 42.3167 346.42 41.8288 344.291 42.5385L343.98 41.5848C346.376 40.7864 348.039 41.2965 348.638 41.607C349.037 41.8066 349.281 42.1836 349.436 42.5163C349.591 42.8712 349.658 43.2482 349.658 43.5809V44.5789H348.66V43.5809H348.682Z" fill="white"/>
<path d="M320.075 46.9299H319.587C319.964 46.3533 320.252 45.8653 320.407 45.444C320.562 45.0447 320.695 44.6012 320.762 44.1132C320.851 43.6253 320.873 43.1596 320.873 42.716C320.873 42.2059 320.829 41.6958 320.74 41.23C320.651 40.7421 320.518 40.2985 320.318 39.855C320.141 39.4114 319.897 38.99 319.564 38.5686H320.052L320.185 38.7239C320.518 39.1231 320.762 39.4336 320.917 39.6997C321.072 39.9659 321.25 40.2985 321.405 40.6977C321.671 41.3631 321.782 42.0285 321.782 42.716C321.782 43.4035 321.671 44.0245 321.427 44.6455C321.316 44.956 321.161 45.2665 320.984 45.5549C320.806 45.8654 320.496 46.3089 320.03 46.8856L320.075 46.9299Z" fill="white"/>
<path d="M272.838 46.9299H273.326C272.949 46.3533 272.661 45.8653 272.506 45.444C272.351 45.0447 272.218 44.6012 272.151 44.1132C272.062 43.6253 272.04 43.1596 272.04 42.716C272.04 42.2059 272.084 41.6958 272.173 41.23C272.262 40.7421 272.395 40.2985 272.595 39.855C272.772 39.4114 273.016 38.99 273.349 38.5686H272.861L272.728 38.7239C272.395 39.1231 272.151 39.4336 271.996 39.6997C271.841 39.9659 271.663 40.2985 271.508 40.6977C271.242 41.3631 271.131 42.0285 271.131 42.716C271.131 43.4035 271.242 44.0245 271.486 44.6455C271.597 44.956 271.752 45.2665 271.929 45.5549C272.107 45.8654 272.417 46.3089 272.883 46.8856L272.838 46.9299Z" fill="white"/>
<path d="M317.946 43.8469C317.946 44.4679 317.614 44.8671 317.215 45.0889C316.86 45.2885 316.439 45.3551 316.172 45.3551H312.402V44.357H316.172C316.328 44.357 316.549 44.3127 316.705 44.224C316.838 44.1352 316.926 44.0465 316.926 43.8469H317.924H317.946Z" fill="white"/>
<path d="M311.404 41.3186H312.424V44.224C312.424 44.6897 312.38 45.0224 312.313 45.2664C312.247 45.5104 312.136 45.6878 312.025 45.843C311.914 45.9983 311.781 46.1314 311.603 46.2644C311.049 46.6636 310.317 46.8854 309.43 46.8854C308.543 46.8854 307.789 46.6858 307.235 46.2866C307.057 46.1535 306.924 46.0205 306.813 45.8652C306.702 45.71 306.614 45.5104 306.525 45.2886C306.458 45.0668 306.414 44.7119 306.414 44.224V41.3408H307.434V44.2462C307.434 44.8006 307.501 45.1999 307.656 45.4216C307.811 45.6434 308.033 45.8208 308.343 45.9539C308.654 46.087 309.009 46.1535 309.43 46.1535C310.029 46.1535 310.517 46.0205 310.894 45.7543C311.093 45.6212 311.226 45.4438 311.315 45.2442C311.404 45.0446 311.448 44.7119 311.448 44.2462V41.3408L311.404 41.3186Z" fill="white"/>
<path d="M276.631 42.5828C276.631 42.3832 276.697 42.0727 276.875 41.8065C277.074 41.5182 277.429 41.3186 277.895 41.3186H282.175V42.3166H277.895C277.895 42.3166 277.784 42.3166 277.762 42.3388C277.762 42.3388 277.718 42.361 277.718 42.3832C277.718 42.4054 277.695 42.4275 277.673 42.4719C277.673 42.5162 277.673 42.5384 277.673 42.5606V47.3512H276.675V42.5606L276.631 42.5828Z" fill="white"/>
<path d="M287.209 42.5828C287.209 42.3832 287.276 42.0727 287.453 41.8065C287.653 41.5182 288.007 41.3186 288.473 41.3186H292.753V42.3166H288.473C288.473 42.3166 288.362 42.3166 288.34 42.3388C288.34 42.3388 288.296 42.361 288.296 42.3832C288.296 42.4054 288.273 42.4275 288.251 42.4719C288.251 42.5162 288.251 42.5384 288.251 42.5606V47.3512H287.253V42.5606L287.209 42.5828Z" fill="white"/>
<path d="M282.176 44.845V45.843H281.178V44.845H282.176ZM282.686 44.3348V42.8267C282.686 42.5384 282.464 42.3166 282.176 42.3166H281.178C280.89 42.3166 280.668 42.5384 280.668 42.8267V44.3348C280.668 44.6232 280.89 44.845 281.178 44.845V45.843C280.38 45.843 279.714 45.1998 279.67 44.4014V44.3127V42.8045C279.67 41.9617 280.357 41.2964 281.178 41.2964H282.176C283.019 41.2964 283.684 41.9839 283.684 42.8045V44.3127C283.684 45.1555 282.996 45.8208 282.176 45.8208V44.8228C282.464 44.8228 282.686 44.601 282.686 44.3127V44.3348Z" fill="white"/>
<path d="M292.754 44.845V45.843H291.756V44.845H292.754ZM293.264 44.3348V42.8267C293.264 42.5384 293.042 42.3166 292.754 42.3166H291.756C291.468 42.3166 291.246 42.5384 291.246 42.8267V44.3348C291.246 44.6232 291.468 44.845 291.756 44.845V45.843C290.958 45.843 290.292 45.1998 290.248 44.4014V44.3127V42.8045C290.248 41.9617 290.936 41.2964 291.756 41.2964H292.754C293.597 41.2964 294.262 41.9839 294.262 42.8045V44.3127C294.262 45.1555 293.575 45.8208 292.754 45.8208V44.8228C293.042 44.8228 293.264 44.601 293.264 44.3127V44.3348Z" fill="white"/>
<path d="M299.185 41.0746C299.805 40.875 301.247 40.8528 302.178 42.1835C303.065 43.4255 302.955 44.6675 302.711 45.1998L302.578 45.5103H298.342V44.5123H301.846C301.89 44.1352 301.846 43.4699 301.336 42.7823C300.715 41.9174 299.805 41.9396 299.451 42.0504L299.14 41.0968L299.185 41.0746Z" fill="white"/>
<path d="M284.703 44.335H286.211V45.8431H284.703V44.335Z" fill="white"/>
<path d="M295.281 44.335H296.789V45.8431H295.281V44.335Z" fill="white"/>
<path d="M303.332 44.335H304.84V45.8431H303.332V44.335Z" fill="white"/>
<path d="M299.805 39.3003H300.803V40.2983H299.805V39.3003Z" fill="white"/>
<path d="M312.912 39.3003H313.91V40.2983H312.912V39.3003Z" fill="white"/>
<path d="M314.93 39.3003H315.928V40.2983H314.93V39.3003Z" fill="white"/>
<path d="M313.91 37.7922H314.908V38.7903H313.91V37.7922Z" fill="white"/>
<path d="M328.035 38.3022H329.033V39.3003H328.035V38.3022Z" fill="white"/>
<path d="M350.701 39.3003H351.699V40.2983H350.701V39.3003Z" fill="white"/>
<path d="M332.561 46.8633H333.558V47.8613H332.561V46.8633Z" fill="white"/>
<path d="M330.055 38.3022H331.053V39.3003H330.055V38.3022Z" fill="white"/>
<path d="M352.719 39.3003H353.717V40.2983H352.719V39.3003Z" fill="white"/>
<path d="M346.176 46.8633H347.174V47.8613H346.176V46.8633Z" fill="white"/>
<path d="M334.578 46.8633H335.576V47.8613H334.578V46.8633Z" fill="white"/>
<path d="M274.104 44.335H275.612V45.8431H274.104V44.335Z" fill="white"/>
<path d="M313.91 41.3186H314.908V45.3551H313.91V41.3186Z" fill="white"/>
<path d="M316.947 41.3186H317.945V43.847H316.947V41.3186Z" fill="white"/>
<path d="M331.051 40.0544V44.845H334.333C334.333 44.845 334.333 44.845 334.378 44.845C334.4 44.845 334.422 44.8228 334.467 44.8007C334.511 44.7563 334.6 44.6454 334.6 44.3571V41.3408H335.598V44.3571C335.598 44.8672 335.442 45.2664 335.154 45.5325C334.888 45.7765 334.577 45.8652 334.333 45.8652H330.053V44.8894C329.721 45.0003 329.277 45.1112 328.789 45.1112C328.146 45.1112 327.614 45.0446 327.237 44.8894C327.037 44.8007 326.86 44.6676 326.727 44.4902C326.594 44.2905 326.527 44.0909 326.527 43.8692V41.6069C326.527 41.363 326.594 40.9859 326.816 40.6754C327.06 40.3428 327.459 40.0988 328.035 40.0988H331.051V40.0544ZM327.525 43.847C327.525 43.847 327.525 43.8692 327.525 43.8913C327.525 43.8913 327.525 43.9135 327.636 43.9579C327.814 44.0466 328.168 44.1131 328.789 44.1131C329.211 44.1131 329.588 44.0022 329.854 43.8913C329.92 43.8692 329.987 43.8248 330.031 43.8026V41.0747H328.013C327.769 41.0747 327.681 41.1634 327.614 41.2521C327.547 41.363 327.503 41.4961 327.503 41.5848V43.847H327.525Z" fill="white"/>
<path d="M338.104 45.3551V41.3186H339.102V45.3551C339.102 45.7321 338.969 46.2201 338.569 46.6415C338.148 47.0629 337.505 47.3734 336.596 47.3734V46.3753C337.283 46.3753 337.66 46.1535 337.838 45.9539C338.037 45.7321 338.104 45.4882 338.104 45.3551Z" fill="white"/>
<path d="M340.122 43.5808V39.3003H341.12V43.5808C341.12 43.736 341.164 43.9578 341.253 44.113C341.342 44.2461 341.43 44.3348 341.63 44.3348H356.244C356.355 44.3348 356.51 44.3126 356.643 44.2461C356.688 44.2239 356.732 44.1796 356.732 44.1796C356.732 44.1796 356.732 44.1352 356.732 44.0909V39.3003H357.73V44.0909C357.73 44.6231 357.42 44.9558 357.087 45.1333C356.776 45.2885 356.444 45.355 356.222 45.355H341.608C340.987 45.355 340.587 45.0224 340.366 44.6231C340.166 44.2683 340.1 43.8469 340.1 43.5808H340.122Z" fill="white"/>
<path d="M352.719 41.3186H353.717V44.3349H352.719V41.3186Z" fill="white"/>
<path d="M359.262 39.3003H360.26V45.355H359.262V39.3003Z" fill="white"/>
</g>
<defs>
<clipPath id="clip0_266_1025">
<rect width="486" height="79" fill="white"/>
</clipPath>
</defs>
</svg>
