<svg width="90" height="17" viewBox="0 0 90 17" fill="none" xmlns="http://www.w3.org/2000/svg">
<path d="M0 0H3.50809L8.20615 11.467H8.39159L13.0897 0H16.5977V15.825H13.8469V4.95305H13.7001L9.32657 15.7787H7.27117L2.89765 4.92987H2.75084V15.825H0V0Z" fill="#452667"/>
<path d="M23.0112 16.0646C22.2591 16.0646 21.5817 15.9306 20.979 15.6628C20.3814 15.3897 19.9075 14.9879 19.5572 14.4573C19.2121 13.9267 19.0395 13.2725 19.0395 12.4947C19.0395 11.825 19.1631 11.2712 19.4104 10.8333C19.6577 10.3955 19.9951 10.0452 20.4226 9.78247C20.8502 9.51975 21.3319 9.32142 21.8676 9.18748C22.4085 9.04839 22.9674 8.94794 23.5444 8.88613C24.2398 8.81401 24.8039 8.74961 25.2366 8.69295C25.6693 8.63113 25.9835 8.53841 26.1793 8.41477C26.3802 8.28599 26.4807 8.08766 26.4807 7.81979V7.77343C26.4807 7.19132 26.3081 6.74058 25.9629 6.42119C25.6178 6.10181 25.1207 5.94211 24.4716 5.94211C23.7865 5.94211 23.243 6.0915 22.8412 6.39028C22.4446 6.68906 22.1767 7.04193 22.0376 7.44889L19.4258 7.07799C19.6319 6.3568 19.9719 5.75409 20.4458 5.26986C20.9197 4.78048 21.4993 4.41473 22.1844 4.17262C22.8695 3.92535 23.6268 3.80172 24.4562 3.80172C25.028 3.80172 25.5972 3.86868 26.1638 4.00262C26.7305 4.13656 27.2482 4.35807 27.717 4.66715C28.1858 4.97108 28.5618 5.38577 28.8451 5.91121C29.1336 6.43665 29.2779 7.09345 29.2779 7.88161V15.825H26.5888V14.1946H26.4961C26.3261 14.5243 26.0866 14.8334 25.7775 15.1219C25.4736 15.4052 25.0898 15.6344 24.6262 15.8096C24.1677 15.9796 23.6294 16.0646 23.0112 16.0646ZM23.7375 14.0092C24.299 14.0092 24.7859 13.8984 25.198 13.6769C25.6101 13.4502 25.9269 13.1515 26.1484 12.7806C26.3751 12.4097 26.4884 12.0053 26.4884 11.5674V10.1688C26.4008 10.2409 26.2514 10.3079 26.0402 10.3697C25.8342 10.4315 25.6023 10.4856 25.3448 10.532C25.0872 10.5784 24.8322 10.6196 24.5798 10.6556C24.3274 10.6917 24.1084 10.7226 23.923 10.7483C23.5057 10.805 23.1323 10.8977 22.8026 11.0265C22.4729 11.1553 22.2127 11.3356 22.0221 11.5674C21.8315 11.7941 21.7362 12.0877 21.7362 12.4483C21.7362 12.9634 21.9243 13.3524 22.3003 13.6151C22.6764 13.8778 23.1554 14.0092 23.7375 14.0092Z" fill="#452667"/>
<path d="M32.0905 15.825V3.95626H34.8027V5.93439H34.9263C35.1427 5.24925 35.5136 4.72124 36.039 4.35034C36.5696 3.97429 37.1749 3.78626 37.8549 3.78626C38.0094 3.78626 38.182 3.79399 38.3726 3.80944C38.5684 3.81975 38.7306 3.83778 38.8594 3.86353V6.43665C38.7409 6.39543 38.5529 6.35937 38.2953 6.32847C38.0429 6.29241 37.7982 6.27438 37.5613 6.27438C37.0513 6.27438 36.5928 6.38513 36.1859 6.60664C35.784 6.823 35.4672 7.12436 35.2354 7.51071C35.0036 7.89706 34.8877 8.34266 34.8877 8.84749V15.825H32.0905Z" fill="#452667"/>
<path d="M43.515 8.87067V15.825H40.7178V0H43.4532V5.97302H43.5922C43.8704 5.30334 44.3006 4.77533 44.8827 4.38897C45.4699 3.99747 46.2169 3.80172 47.1235 3.80172C47.9477 3.80172 48.6664 3.97429 49.2794 4.31943C49.8924 4.66457 50.3663 5.16941 50.7011 5.83393C51.0411 6.49846 51.2111 7.3098 51.2111 8.26796V15.825H48.4139V8.70068C48.4139 7.90221 48.2079 7.28147 47.7958 6.83845C47.3888 6.39028 46.817 6.1662 46.0804 6.1662C45.5858 6.1662 45.1428 6.27438 44.7513 6.49074C44.365 6.70194 44.061 7.00845 43.8395 7.41026C43.6232 7.81206 43.515 8.29887 43.515 8.87067Z" fill="#452667"/>
<path d="M57.4778 16.0646C56.7257 16.0646 56.0483 15.9306 55.4456 15.6628C54.848 15.3897 54.3741 14.9879 54.0238 14.4573C53.6786 13.9267 53.5061 13.2725 53.5061 12.4947C53.5061 11.825 53.6297 11.2712 53.877 10.8333C54.1242 10.3955 54.4616 10.0452 54.8892 9.78247C55.3168 9.51975 55.7984 9.32142 56.3342 9.18748C56.8751 9.04839 57.434 8.94794 58.011 8.88613C58.7064 8.81401 59.2705 8.74961 59.7032 8.69295C60.1359 8.63113 60.4501 8.53841 60.6459 8.41477C60.8468 8.28599 60.9472 8.08766 60.9472 7.81979V7.77343C60.9472 7.19132 60.7747 6.74058 60.4295 6.42119C60.0844 6.10181 59.5873 5.94211 58.9382 5.94211C58.2531 5.94211 57.7096 6.0915 57.3078 6.39028C56.9111 6.68906 56.6433 7.04193 56.5042 7.44889L53.8924 7.07799C54.0985 6.3568 54.4385 5.75409 54.9124 5.26986C55.3863 4.78048 55.9659 4.41473 56.651 4.17262C57.3361 3.92535 58.0934 3.80172 58.9227 3.80172C59.4946 3.80172 60.0638 3.86868 60.6304 4.00262C61.1971 4.13656 61.7148 4.35807 62.1836 4.66715C62.6523 4.97108 63.0284 5.38577 63.3117 5.91121C63.6002 6.43665 63.7444 7.09345 63.7444 7.88161V15.825H61.0554V14.1946H60.9627C60.7927 14.5243 60.5532 14.8334 60.2441 15.1219C59.9401 15.4052 59.5564 15.6344 59.0927 15.8096C58.6343 15.9796 58.096 16.0646 57.4778 16.0646ZM58.2041 14.0092C58.7656 14.0092 59.2524 13.8984 59.6645 13.6769C60.0767 13.4502 60.3935 13.1515 60.615 12.7806C60.8416 12.4097 60.955 12.0053 60.955 11.5674V10.1688C60.8674 10.2409 60.718 10.3079 60.5068 10.3697C60.3007 10.4315 60.0689 10.4856 59.8114 10.532C59.5538 10.5784 59.2988 10.6196 59.0464 10.6556C58.794 10.6917 58.575 10.7226 58.3896 10.7483C57.9723 10.805 57.5988 10.8977 57.2692 11.0265C56.9395 11.1553 56.6793 11.3356 56.4887 11.5674C56.2981 11.7941 56.2028 12.0877 56.2028 12.4483C56.2028 12.9634 56.3908 13.3524 56.7669 13.6151C57.1429 13.8778 57.622 14.0092 58.2041 14.0092Z" fill="#452667"/>
<path d="M66.6807 15.825V0H69.4779V5.91893H69.5938C69.7381 5.63046 69.9415 5.32395 70.2043 4.99941C70.467 4.66972 70.8224 4.38897 71.2706 4.15716C71.7188 3.9202 72.2906 3.80172 72.986 3.80172C73.903 3.80172 74.7298 4.0361 75.4664 4.50488C76.2082 4.9685 76.7954 5.65621 77.2282 6.56801C77.666 7.47465 77.885 8.58735 77.885 9.9061C77.885 11.2094 77.6712 12.3169 77.2436 13.2287C76.8161 14.1405 76.2339 14.836 75.4973 15.315C74.7607 15.7941 73.9261 16.0337 72.9937 16.0337C72.3138 16.0337 71.7497 15.9203 71.3015 15.6937C70.8533 15.467 70.4927 15.194 70.2197 14.8746C69.9518 14.5501 69.7432 14.2436 69.5938 13.9551H69.4316V15.825H66.6807ZM69.4238 9.89064C69.4238 10.6582 69.532 11.3305 69.7484 11.9074C69.9699 12.4844 70.2867 12.9351 70.6988 13.2596C71.1161 13.579 71.6209 13.7387 72.2133 13.7387C72.8315 13.7387 73.3492 13.5739 73.7664 13.2442C74.1837 12.9094 74.4979 12.4535 74.7091 11.8765C74.9255 11.2944 75.0337 10.6324 75.0337 9.89064C75.0337 9.154 74.9281 8.49977 74.7169 7.92797C74.5057 7.35617 74.1914 6.908 73.7742 6.58346C73.3569 6.25892 72.8366 6.09665 72.2133 6.09665C71.6157 6.09665 71.1083 6.25377 70.6911 6.56801C70.2738 6.88224 69.957 7.32268 69.7406 7.88933C69.5294 8.45599 69.4238 9.12309 69.4238 9.89064Z" fill="#452667"/>
<path d="M83.6783 16.0646C82.9262 16.0646 82.2488 15.9306 81.6461 15.6628C81.0486 15.3897 80.5746 14.9879 80.2243 14.4573C79.8792 13.9267 79.7066 13.2725 79.7066 12.4947C79.7066 11.825 79.8303 11.2712 80.0775 10.8333C80.3248 10.3955 80.6622 10.0452 81.0898 9.78247C81.5173 9.51975 81.999 9.32142 82.5347 9.18748C83.0756 9.04839 83.6345 8.94794 84.2115 8.88613C84.9069 8.81401 85.471 8.74961 85.9037 8.69295C86.3364 8.63113 86.6507 8.53841 86.8464 8.41477C87.0473 8.28599 87.1478 8.08766 87.1478 7.81979V7.77343C87.1478 7.19132 86.9752 6.74058 86.6301 6.42119C86.2849 6.10181 85.7878 5.94211 85.1387 5.94211C84.4536 5.94211 83.9101 6.0915 83.5083 6.39028C83.1117 6.68906 82.8438 7.04193 82.7047 7.44889L80.093 7.07799C80.299 6.3568 80.639 5.75409 81.1129 5.26986C81.5869 4.78048 82.1664 4.41473 82.8515 4.17262C83.5367 3.92535 84.2939 3.80172 85.1233 3.80172C85.6951 3.80172 86.2643 3.86868 86.831 4.00262C87.3976 4.13656 87.9153 4.35807 88.3841 4.66715C88.8529 4.97108 89.2289 5.38577 89.5123 5.91121C89.8008 6.43665 89.945 7.09345 89.945 7.88161V15.825H87.256V14.1946H87.1632C86.9932 14.5243 86.7537 14.8334 86.4446 15.1219C86.1407 15.4052 85.7569 15.6344 85.2933 15.8096C84.8348 15.9796 84.2965 16.0646 83.6783 16.0646ZM84.4047 14.0092C84.9662 14.0092 85.453 13.8984 85.8651 13.6769C86.2772 13.4502 86.594 13.1515 86.8155 12.7806C87.0422 12.4097 87.1555 12.0053 87.1555 11.5674V10.1688C87.0679 10.2409 86.9186 10.3079 86.7074 10.3697C86.5013 10.4315 86.2695 10.4856 86.0119 10.532C85.7543 10.5784 85.4994 10.6196 85.2469 10.6556C84.9945 10.6917 84.7756 10.7226 84.5901 10.7483C84.1729 10.805 83.7994 10.8977 83.4697 11.0265C83.14 11.1553 82.8799 11.3356 82.6893 11.5674C82.4987 11.7941 82.4034 12.0877 82.4034 12.4483C82.4034 12.9634 82.5914 13.3524 82.9674 13.6151C83.3435 13.8778 83.8226 14.0092 84.4047 14.0092Z" fill="#452667"/>
</svg>
