<svg width="168" height="130" viewBox="0 0 168 130" fill="none" xmlns="http://www.w3.org/2000/svg">
<path d="M53.9468 20.6849V24.9189H33.6266V20.6849C33.6266 20.6849 19.4374 5.40927 41.8512 3.86904C41.8512 3.86904 43.1208 -4.66726 46.4957 3.61918C46.4957 3.61918 70.6012 4.34822 53.9451 20.6832M35.4477 15.4105C33.2028 11.423 36.2213 7.28322 36.2213 7.28322C27.1609 10.0505 35.4477 15.4139 35.4477 15.4139M42.5524 7.44751C32.7774 13.2935 42.623 15.9787 42.623 15.9787V7.69053L42.5524 7.4458V7.44751ZM51.8768 7.28322C51.8768 7.28322 54.9053 11.4264 52.652 15.4139C52.652 15.4139 60.9405 10.0505 51.8768 7.28322ZM45.4784 7.69224V15.9787C45.4784 15.9787 55.324 13.2935 45.554 7.44751L45.4784 7.69224ZM51.4923 17.8598H36.047V19.4905H51.4957L51.4923 17.8598ZM51.4957 21.1212H36.047V22.7519H51.4957V21.1212Z" fill="white"/>
<path d="M29.2988 36.7499C29.2988 36.7499 45.3428 30.7122 45.3428 50.7643V99.3672H68.0912V38.9097H77.0389C77.0389 38.9097 82.0853 38.2594 82.2652 46.2395V99.3672H105.207V40.4157C105.207 40.4157 113.966 36.1047 116.4 41.7095V99.3672H138.035V39.1219C138.035 39.1219 138.773 29.848 129.267 30.4932H107.257V32.4424C107.257 32.4424 107.627 37.4002 100.551 31.3625H70.331C70.331 31.3625 69.0245 36.9673 63.9915 32.4424C63.9915 32.4424 45.9011 28.3368 29.2988 31.1435V36.7516V36.7499Z" fill="white"/>
<path d="M59.4961 122.155V110.661H62.7209L66.233 121.74H65.0995L68.6117 110.661H71.8524V122.155H69.809V111.348H70.1442L66.7279 122.155H64.5089L61.1244 111.443H61.4437V122.155H59.4961Z" fill="white"/>
<path d="M79.1551 122.155C79.1019 121.943 79.0593 121.708 79.0274 121.453C79.0061 121.198 78.9954 120.889 78.9954 120.527H78.9316V116.664C78.9316 116.238 78.8092 115.919 78.5644 115.706C78.3302 115.482 77.9684 115.371 77.4788 115.371C76.9999 115.371 76.6168 115.461 76.3294 115.642C76.0527 115.812 75.8824 116.062 75.8185 116.392H73.8869C73.972 115.637 74.3339 115.025 74.9724 114.556C75.611 114.088 76.4678 113.854 77.5427 113.854C78.6602 113.854 79.5063 114.109 80.081 114.62C80.6557 115.12 80.9431 115.86 80.9431 116.839V120.527C80.9431 120.782 80.959 121.043 80.991 121.309C81.0335 121.575 81.0921 121.857 81.1666 122.155H79.1551ZM76.3294 122.315C75.5099 122.315 74.8554 122.113 74.3658 121.708C73.8869 121.293 73.6474 120.74 73.6474 120.048C73.6474 119.303 73.9188 118.712 74.4616 118.276C75.0044 117.84 75.7706 117.547 76.7604 117.398L79.2987 117.015V118.292L77.0957 118.627C76.6168 118.702 76.2549 118.835 76.0101 119.026C75.776 119.218 75.6589 119.484 75.6589 119.825C75.6589 120.133 75.7706 120.373 75.9941 120.543C76.2176 120.703 76.5263 120.782 76.9201 120.782C77.4948 120.782 77.9737 120.639 78.3569 120.351C78.74 120.064 78.9316 119.713 78.9316 119.298L79.1551 120.527C78.9422 121.112 78.591 121.559 78.1014 121.868C77.6225 122.166 77.0318 122.315 76.3294 122.315Z" fill="white"/>
<path d="M83.14 122.155V114.014H85.1036V115.977H85.1515V122.155H83.14ZM85.1515 117.909L84.944 115.977C85.1356 115.285 85.4602 114.759 85.9178 114.397C86.3754 114.035 86.9235 113.854 87.5621 113.854C87.7856 113.854 87.9453 113.875 88.041 113.918V115.818C87.9878 115.796 87.9133 115.786 87.8175 115.786C87.7218 115.775 87.6047 115.77 87.4663 115.77C86.6894 115.77 86.1094 115.94 85.7262 116.281C85.3431 116.621 85.1515 117.164 85.1515 117.909Z" fill="white"/>
<path d="M89.5201 122.155V110.661H91.5316V122.155H89.5201ZM95.2353 122.155V117.015C95.2353 116.515 95.1076 116.137 94.8522 115.881C94.5967 115.626 94.2242 115.498 93.7347 115.498C93.309 115.498 92.9258 115.594 92.5852 115.786C92.2553 115.977 91.9946 116.243 91.803 116.584C91.6221 116.924 91.5316 117.318 91.5316 117.765L91.3241 115.818C91.6008 115.222 92.0052 114.748 92.5374 114.397C93.0695 114.035 93.7081 113.854 94.4531 113.854C95.3364 113.854 96.0229 114.104 96.5125 114.604C97.0127 115.105 97.2628 115.77 97.2628 116.6V122.155H95.2353Z" fill="white"/>
<path d="M104.375 122.155C104.322 121.943 104.28 121.708 104.248 121.453C104.226 121.198 104.216 120.889 104.216 120.527H104.152V116.664C104.152 116.238 104.03 115.919 103.785 115.706C103.551 115.482 103.189 115.371 102.699 115.371C102.22 115.371 101.837 115.461 101.55 115.642C101.273 115.812 101.103 116.062 101.039 116.392H99.1073C99.1924 115.637 99.5543 115.025 100.193 114.556C100.831 114.088 101.688 113.854 102.763 113.854C103.881 113.854 104.727 114.109 105.301 114.62C105.876 115.12 106.163 115.86 106.163 116.839V120.527C106.163 120.782 106.179 121.043 106.211 121.309C106.254 121.575 106.312 121.857 106.387 122.155H104.375ZM101.55 122.315C100.73 122.315 100.076 122.113 99.5862 121.708C99.1073 121.293 98.8678 120.74 98.8678 120.048C98.8678 119.303 99.1392 118.712 99.682 118.276C100.225 117.84 100.991 117.547 101.981 117.398L104.519 117.015V118.292L102.316 118.627C101.837 118.702 101.475 118.835 101.231 119.026C100.996 119.218 100.879 119.484 100.879 119.825C100.879 120.133 100.991 120.373 101.215 120.543C101.438 120.703 101.747 120.782 102.14 120.782C102.715 120.782 103.194 120.639 103.577 120.351C103.96 120.064 104.152 119.713 104.152 119.298L104.375 120.527C104.163 121.112 103.811 121.559 103.322 121.868C102.843 122.166 102.252 122.315 101.55 122.315Z" fill="white"/>
<path d="M113.006 122.315C112.229 122.315 111.591 122.134 111.09 121.772C110.601 121.4 110.297 120.889 110.18 120.24L110.324 120.224V122.155H108.36V110.661H110.372V115.85L110.228 115.818C110.367 115.211 110.691 114.732 111.202 114.381C111.724 114.03 112.367 113.854 113.134 113.854C113.857 113.854 114.485 114.03 115.018 114.381C115.56 114.721 115.981 115.206 116.279 115.834C116.577 116.461 116.726 117.201 116.726 118.053C116.726 118.915 116.571 119.665 116.263 120.304C115.954 120.942 115.523 121.437 114.97 121.788C114.416 122.139 113.762 122.315 113.006 122.315ZM112.495 120.655C113.144 120.655 113.661 120.431 114.044 119.984C114.427 119.527 114.618 118.888 114.618 118.069C114.618 117.249 114.422 116.616 114.028 116.169C113.645 115.722 113.128 115.498 112.479 115.498C111.841 115.498 111.324 115.727 110.931 116.185C110.537 116.632 110.34 117.265 110.34 118.085C110.34 118.904 110.537 119.537 110.931 119.984C111.324 120.431 111.846 120.655 112.495 120.655Z" fill="white"/>
<path d="M123.496 122.155C123.443 121.943 123.401 121.708 123.369 121.453C123.347 121.198 123.337 120.889 123.337 120.527H123.273V116.664C123.273 116.238 123.151 115.919 122.906 115.706C122.672 115.482 122.31 115.371 121.82 115.371C121.341 115.371 120.958 115.461 120.671 115.642C120.394 115.812 120.224 116.062 120.16 116.392H118.228C118.313 115.637 118.675 115.025 119.314 114.556C119.952 114.088 120.809 113.854 121.884 113.854C123.002 113.854 123.848 114.109 124.422 114.62C124.997 115.12 125.284 115.86 125.284 116.839V120.527C125.284 120.782 125.3 121.043 125.332 121.309C125.375 121.575 125.433 121.857 125.508 122.155H123.496ZM120.671 122.315C119.851 122.315 119.197 122.113 118.707 121.708C118.228 121.293 117.989 120.74 117.989 120.048C117.989 119.303 118.26 118.712 118.803 118.276C119.346 117.84 120.112 117.547 121.102 117.398L123.64 117.015V118.292L121.437 118.627C120.958 118.702 120.596 118.835 120.351 119.026C120.117 119.218 120 119.484 120 119.825C120 120.133 120.112 120.373 120.335 120.543C120.559 120.703 120.868 120.782 121.261 120.782C121.836 120.782 122.315 120.639 122.698 120.351C123.081 120.064 123.273 119.713 123.273 119.298L123.496 120.527C123.284 121.112 122.932 121.559 122.443 121.868C121.964 122.166 121.373 122.315 120.671 122.315Z" fill="white"/>
<path d="M138.804 103.873H44.6289V107.232H138.804V103.873Z" fill="white"/>
<path d="M138.802 126.641H44.6289V130H138.802V126.641Z" fill="white"/>
</svg>
