<svg width="486" height="80" viewBox="0 0 486 80" fill="none" xmlns="http://www.w3.org/2000/svg">
<g clip-path="url(#clip0_632_31)">
<path d="M196.817 79.4792C196.041 79.4792 195.265 79.3905 194.489 79.1909C193.69 78.9913 192.958 78.7251 192.271 78.3924V74.4003C192.515 74.356 192.737 74.356 192.981 74.4003C193.047 75.1987 193.291 75.9085 193.668 76.5516C194.045 77.1726 194.555 77.6827 195.198 78.0376C195.819 78.4146 196.529 78.5921 197.283 78.5921C198.347 78.5921 199.212 78.3259 199.855 77.8158C200.499 77.3057 200.831 76.596 200.831 75.7088C200.831 75.1544 200.676 74.6886 200.388 74.3116C200.099 73.9346 199.7 73.6241 199.19 73.3801C198.702 73.114 198.148 72.8922 197.571 72.6704C196.995 72.4486 196.396 72.2268 195.819 71.9607C195.243 71.6945 194.688 71.4062 194.2 71.0292C193.712 70.6743 193.313 70.2086 193.003 69.6763C192.715 69.144 192.559 68.4565 192.559 67.6359C192.559 66.7265 192.759 65.9503 193.18 65.3071C193.602 64.6639 194.178 64.176 194.932 63.8211C195.708 63.4885 196.618 63.311 197.682 63.311C198.636 63.311 199.434 63.3998 200.077 63.5994C200.72 63.799 201.297 64.0429 201.785 64.3534V67.8355C201.541 67.8798 201.319 67.8798 201.075 67.8355C200.964 66.7931 200.609 65.9059 199.988 65.2184C199.368 64.5309 198.547 64.1982 197.505 64.1982C196.573 64.1982 195.819 64.42 195.265 64.8414C194.71 65.2627 194.422 65.8394 194.422 66.5935C194.422 67.1923 194.577 67.7024 194.888 68.0794C195.198 68.4565 195.597 68.8113 196.108 69.0775C196.618 69.3436 197.172 69.6097 197.771 69.8094C198.37 70.0311 198.968 70.2751 199.567 70.5412C200.166 70.8074 200.72 71.1179 201.23 71.4727C201.74 71.8276 202.14 72.2933 202.45 72.8478C202.761 73.4023 202.916 74.0898 202.916 74.9104C202.916 75.8197 202.65 76.596 202.14 77.3057C201.63 77.9932 200.92 78.5255 200.011 78.9026C199.101 79.2796 198.037 79.4792 196.795 79.4792H196.817Z" fill="#2E2E2E"/>
<path d="M209.946 78.3925C210.012 78.6586 210.012 78.9248 209.946 79.2131C209.436 79.1909 208.992 79.1687 208.571 79.1687H206.043C205.621 79.1687 205.156 79.1687 204.646 79.2131C204.579 78.9248 204.579 78.6586 204.646 78.3925H206.021C206.087 77.838 206.154 77.2835 206.176 76.7734C206.22 76.2633 206.242 75.731 206.242 75.1766V73.4023C206.242 72.3377 206.176 71.2731 206.021 70.2308H204.756C204.69 69.9424 204.69 69.6763 204.756 69.4101C205.333 69.4101 205.954 69.4101 206.641 69.3658C207.329 69.3214 207.994 69.2549 208.682 69.1218C208.593 69.4989 208.527 69.9424 208.482 70.4747C208.438 71.007 208.393 71.5171 208.393 72.0494C208.393 72.5817 208.349 73.0252 208.349 73.4023V75.1766C208.349 75.731 208.349 76.2633 208.416 76.7734C208.46 77.2835 208.504 77.838 208.593 78.3925H209.968H209.946ZM207.307 64.3091L208.527 64.9744V66.416L207.307 67.0814L206.087 66.416V64.9744L207.307 64.3091Z" fill="#2E2E2E"/>
<path d="M211.41 79.2132C211.343 78.9249 211.343 78.6588 211.41 78.3926H212.674C212.74 77.8382 212.807 77.2837 212.829 76.7736C212.873 76.2635 212.895 75.7312 212.895 75.1767V73.4025C212.895 72.3379 212.829 71.2733 212.674 70.2309H211.52C211.454 69.9426 211.454 69.6765 211.52 69.4103C212.03 69.4103 212.585 69.4103 213.184 69.366C213.782 69.3216 214.381 69.2551 215.002 69.122C214.936 69.3881 214.869 69.6765 214.847 70.0313C214.803 70.364 214.78 70.6523 214.78 70.8741L215.002 71.8721V75.1989C215.002 75.7534 215.002 76.2857 215.069 76.7958C215.113 77.3059 215.157 77.8603 215.224 78.4148H216.488C216.554 78.681 216.554 78.9471 216.488 79.2354C216.022 79.2132 215.601 79.1911 215.202 79.1911H212.718C212.319 79.1911 211.875 79.1911 211.432 79.2354L211.41 79.2132ZM217.841 79.2132C217.774 78.9249 217.774 78.6588 217.841 78.3926H219.105C219.171 77.8382 219.238 77.2837 219.282 76.7736C219.327 76.2635 219.349 75.7312 219.349 75.1767V72.1605C219.349 71.606 219.216 71.1402 218.972 70.7632C218.728 70.3862 218.262 70.1866 217.575 70.1866C217.065 70.1866 216.577 70.3196 216.133 70.5858C215.69 70.8519 215.313 71.2733 215.024 71.85L214.803 70.8519C215.202 70.2975 215.69 69.8539 216.311 69.5434C216.909 69.2329 217.619 69.0776 218.417 69.0776C219.282 69.0776 219.947 69.2329 220.413 69.5656C220.879 69.8982 221.234 70.3196 221.522 70.8297C221.522 71.0515 221.5 71.2733 221.478 71.4951C221.456 71.7169 221.478 71.9387 221.478 72.1605V75.1767C221.478 75.7312 221.478 76.2635 221.544 76.7736C221.589 77.2837 221.633 77.8382 221.699 78.3926H222.964C223.03 78.6588 223.03 78.9249 222.964 79.2132C222.498 79.1911 222.076 79.1689 221.677 79.1689H219.193C218.794 79.1689 218.351 79.1689 217.885 79.2132H217.841Z" fill="#2E2E2E"/>
<path d="M229.372 79.5013C228.419 79.5013 227.576 79.2796 226.844 78.8582C226.112 78.4368 225.536 77.838 225.137 77.0617C224.737 76.2855 224.538 75.354 224.538 74.2894C224.538 73.2248 224.76 72.249 225.181 71.4949C225.602 70.7186 226.223 70.1198 227.022 69.7206C227.82 69.2992 228.729 69.0996 229.772 69.0996C230.459 69.0996 231.08 69.1883 231.59 69.3214C232.122 69.4766 232.566 69.6984 232.965 69.9646V72.9587C232.721 73.003 232.499 73.003 232.255 72.9587C232.056 72.005 231.745 71.2509 231.28 70.7408C230.814 70.2307 230.259 69.9646 229.616 69.9646C229.04 69.9646 228.552 70.142 228.13 70.4747C227.709 70.8074 227.399 71.2953 227.177 71.9163C226.955 72.5373 226.866 73.3135 226.866 74.2229C226.866 75.0435 226.999 75.7532 227.288 76.3964C227.554 77.0395 227.931 77.5275 228.419 77.8823C228.884 78.2372 229.417 78.4146 229.993 78.4146C230.326 78.4146 230.659 78.3702 230.969 78.2594C231.28 78.1485 231.59 77.9932 231.923 77.7271C232.233 77.4831 232.566 77.1504 232.943 76.7512C233.054 76.8177 233.165 76.9065 233.253 76.9952C233.342 77.0839 233.453 77.1948 233.542 77.3057C233.12 77.8158 232.699 78.215 232.277 78.5477C231.856 78.8803 231.413 79.1243 230.947 79.2796C230.481 79.4348 229.971 79.5235 229.417 79.5235L229.372 79.5013Z" fill="#2E2E2E"/>
<path d="M240.106 79.5016C239.175 79.5016 238.354 79.302 237.622 78.9249C236.89 78.5479 236.314 77.9712 235.892 77.195C235.471 76.4187 235.271 75.4429 235.271 74.2896C235.271 73.1363 235.493 72.2048 235.915 71.4286C236.336 70.6523 236.935 70.0757 237.689 69.6765C238.443 69.2772 239.308 69.0776 240.283 69.0776C241.193 69.0776 241.991 69.2551 242.634 69.5877C243.299 69.9204 243.809 70.4527 244.164 71.1624C244.519 71.8721 244.697 72.7815 244.697 73.8904C244.32 73.846 243.898 73.8017 243.477 73.7795C243.055 73.7573 242.523 73.7351 241.924 73.7351H237.312V72.9589H242.346C242.346 71.9165 242.124 71.1624 241.703 70.6523C241.281 70.1422 240.771 69.8982 240.128 69.8982C239.596 69.8982 239.13 70.0757 238.753 70.4084C238.354 70.7632 238.066 71.2511 237.844 71.8943C237.622 72.5375 237.534 73.2916 237.534 74.2009C237.534 75.5981 237.822 76.6627 238.398 77.3502C238.975 78.0378 239.751 78.3926 240.705 78.3926C241.304 78.3926 241.858 78.2374 242.412 77.9491C242.967 77.6607 243.499 77.1728 244.031 76.4853C244.142 76.5518 244.253 76.6405 244.364 76.7292C244.453 76.8179 244.563 76.9288 244.652 77.0397C244.009 77.8603 243.322 78.4592 242.568 78.8806C241.814 79.3019 240.993 79.5016 240.084 79.5016H240.106Z" fill="#2E2E2E"/>
<path d="M253.966 71.4064V67.8578C253.966 67.5251 253.966 67.2146 253.966 66.8819C253.966 66.5493 253.922 66.2166 253.9 65.8617H251.571C251.505 65.5734 251.505 65.3073 251.571 65.0411C252.126 65.0411 252.68 64.9524 253.234 64.775C253.789 64.5975 254.299 64.3314 254.787 64.0209C255.275 63.7104 255.696 63.3556 256.073 62.9785C256.162 63.0007 256.273 63.0451 256.383 63.1116C256.494 63.1781 256.605 63.2225 256.65 63.289C256.539 63.9987 256.472 64.7084 256.45 65.4182C256.428 66.1279 256.406 66.7267 256.406 67.1924V71.4064H253.966ZM255.186 79.1689H253.611C253.079 79.1689 252.436 79.1689 251.682 79.2132C251.615 78.9249 251.615 78.6587 251.682 78.3926H253.722C253.789 77.7273 253.855 77.0841 253.878 76.4409C253.922 75.8199 253.944 75.1545 253.944 74.4892V71.3842H255.164V79.1467L255.186 79.1689ZM255.186 79.1689V71.4064H256.406V74.5114C256.406 75.1767 256.406 75.8199 256.472 76.4631C256.517 77.0841 256.561 77.7273 256.627 78.4148H258.668C258.734 78.6809 258.734 78.9471 258.668 79.2354C257.936 79.2132 257.315 79.191 256.76 79.191H255.186V79.1689Z" fill="#2E2E2E"/>
<path d="M270.843 70.0754C270.843 71.384 270.665 72.5816 270.31 73.7127C269.956 74.8438 269.401 75.8418 268.669 76.6624C267.938 77.5052 266.984 78.1706 265.831 78.6363C264.678 79.1021 263.303 79.3461 261.728 79.3461C261.684 79.0134 261.684 78.6807 261.728 78.348C263.303 78.348 264.589 78.0597 265.52 77.4831C266.452 76.9064 267.161 76.1302 267.605 75.1543C268.048 74.1785 268.27 73.0917 268.292 71.8941C267.982 72.3598 267.538 72.7147 266.962 72.9808C266.385 73.247 265.742 73.38 264.988 73.38C264.145 73.38 263.369 73.2026 262.66 72.8034C261.95 72.4263 261.373 71.8719 260.93 71.14C260.508 70.4081 260.287 69.521 260.287 68.4786C260.287 67.4362 260.508 66.4825 260.93 65.7062C261.351 64.93 261.95 64.3312 262.726 63.9098C263.502 63.4884 264.434 63.2666 265.476 63.2666C266.518 63.2666 267.472 63.5106 268.292 63.9763C269.113 64.4421 269.712 65.174 270.177 66.172C270.621 67.17 270.843 68.4564 270.843 70.0532V70.0754ZM268.292 68.3899C268.292 67.0591 268.048 66.0389 267.561 65.307C267.073 64.5751 266.407 64.1981 265.565 64.1981C264.722 64.1981 264.034 64.553 263.547 65.2627C263.081 65.9724 262.837 66.9926 262.837 68.3011C262.837 69.6097 263.081 70.6077 263.547 71.3396C264.034 72.0715 264.7 72.4263 265.565 72.4263C266.43 72.4263 267.095 72.0715 267.561 71.384C268.048 70.6742 268.292 69.6762 268.292 68.3899Z" fill="#2E2E2E"/>
<path d="M277.252 79.5014L275.899 78.7695V77.6828C275.899 76.8844 276.032 76.1303 276.32 75.4428C276.609 74.7552 276.941 74.0455 277.296 73.3136L280.999 65.8394H274.857C274.391 65.8394 274.058 66.0169 273.903 66.3939C273.748 66.7488 273.593 67.1702 273.482 67.6359C273.238 67.7024 273.016 67.7024 272.772 67.6359L273.238 63.6438H279.957C280.356 63.6438 280.733 63.6438 281.11 63.6438C281.487 63.6438 281.887 63.6438 282.308 63.6216C282.463 63.9543 282.574 64.2869 282.641 64.6418L278.094 73.8459C277.895 74.2673 277.717 74.6665 277.629 75.0657C277.518 75.4649 277.496 75.842 277.562 76.1746C277.629 76.5073 277.85 76.7735 278.183 76.9731L278.582 77.1949V78.7917L277.229 79.5236L277.252 79.5014Z" fill="#2E2E2E"/>
<path d="M293.729 78.3928C293.795 78.659 293.795 78.9251 293.729 79.2134C292.997 79.1913 292.376 79.1691 291.822 79.1691H288.783C288.251 79.1691 287.608 79.1691 286.876 79.2134C286.81 78.9251 286.81 78.659 286.876 78.3928H288.916C288.983 77.7275 289.05 77.0843 289.072 76.4411C289.116 75.8201 289.138 75.1548 289.138 74.4894V66.7047L283.905 73.5801H294.372C294.328 73.8241 294.261 74.1346 294.172 74.4451C294.084 74.7777 293.951 75.0439 293.818 75.2435H282.286C282.241 75.0661 282.219 74.8886 282.197 74.7112C282.197 74.5338 282.175 74.3563 282.175 74.1789C282.485 73.8684 282.774 73.5357 283.018 73.2031C283.261 72.8704 283.505 72.5377 283.749 72.2272L288.828 65.5958C289.072 65.2631 289.36 64.8639 289.67 64.3982C289.981 63.9102 290.225 63.511 290.38 63.1562C290.535 63.134 290.668 63.1118 290.824 63.1118C290.979 63.1118 291.112 63.1118 291.267 63.1118C291.422 63.1118 291.555 63.134 291.711 63.1562C291.644 63.6219 291.6 64.1542 291.578 64.7308C291.533 65.3075 291.511 65.8398 291.489 66.3499C291.489 66.86 291.489 67.2814 291.489 67.5919V74.4672C291.489 75.1326 291.489 75.7758 291.533 76.4189C291.578 77.0399 291.622 77.6831 291.711 78.3707H293.751L293.729 78.3928Z" fill="#2E2E2E"/>
<path d="M237.822 12.1009H227.244V39.558H237.312V25.4524C237.312 23.6781 237.312 22.924 238.576 22.6801C239.574 22.4805 240.173 23.4341 240.35 23.9443L248.422 39.558H262.017C257.138 32.3277 247.158 17.5347 246.138 16.1152C244.874 14.3409 243.61 12.5888 241.614 12.0787C239.995 11.6795 238.753 13.4316 238.332 14.3409H237.822V12.0787V12.1009Z" fill="#EB2329"/>
<path d="M234.784 3.31814L238.066 4.33835L236.003 7.08849L236.048 10.5262L232.788 9.41724L229.528 10.5262L229.572 7.08849L227.51 4.33835L230.792 3.31814L232.788 0.501465L234.784 3.31814ZM231.125 3.73953L228.352 4.6045L230.082 6.93325L230.038 9.83864L232.788 8.90714L235.538 9.83864L235.493 6.93325L237.223 4.6045L234.451 3.73953L232.766 1.36643L231.08 3.73953H231.125Z" fill="#EB2329"/>
<path d="M86.2225 25.9403L95.4036 6.0461L102.522 32.8156H97.7987V32.5717L98.2644 32.1059C98.2644 32.1059 98.3753 31.9507 98.4197 31.8619C98.464 31.751 98.4862 31.6402 98.4862 31.5071C98.4862 31.4405 98.4862 31.3518 98.4418 31.2409C98.4197 31.13 98.3753 30.9748 98.331 30.8195L94.3835 15.6051L86.0673 33.6806L77.3741 15.7825L73.7593 30.7974C73.7149 30.9304 73.6928 31.0413 73.6706 31.1522C73.6706 31.2631 73.6706 31.374 73.6706 31.4627C73.6706 31.5958 73.6706 31.7067 73.7149 31.8176C73.7593 31.9285 73.8036 32.0172 73.8702 32.0837L74.2915 32.5495V32.7934H69.5901L76.8197 6.02393L86.2447 25.9181L86.2225 25.9403Z" fill="#2B388F"/>
<path d="M121.062 25.8736V8.26382C121.062 8.13075 121.018 8.01985 120.995 7.93114C120.951 7.84243 120.885 7.73153 120.796 7.64282L120.352 7.17707V6.93311H125.564V7.17707L125.12 7.64282C125.12 7.64282 124.965 7.82025 124.921 7.90896C124.876 7.99768 124.854 8.13075 124.854 8.26382V27.0269C124.854 29.0895 123.945 30.642 122.149 31.6844C120.33 32.7268 117.625 33.259 114.01 33.259C110.395 33.259 107.69 32.7268 105.871 31.6844C104.053 30.642 103.166 29.0895 103.166 27.0269V8.26382C103.166 8.13075 103.166 8.01985 103.121 7.93114C103.077 7.84243 103.01 7.73153 102.922 7.64282L102.478 7.17707V6.93311H107.69V7.17707L107.246 7.64282C107.246 7.64282 107.069 7.82025 107.024 7.93114C106.98 8.01985 106.98 8.13075 106.98 8.26382V25.8736C106.98 27.3374 107.49 28.3576 108.488 28.9342C109.486 29.5109 111.326 29.7992 113.988 29.7992C116.649 29.7992 118.556 29.5109 119.554 28.9342C120.574 28.3576 121.084 27.3374 121.084 25.8736H121.062Z" fill="#2B388F"/>
<path d="M167.345 10.4373H159.317V29.2669H167.212C168.897 29.2669 170.205 29.1338 171.159 28.8899C172.113 28.6237 173 28.1802 173.776 27.5592C174.907 26.6942 175.75 25.6074 176.304 24.3211C176.881 23.0347 177.169 21.5488 177.169 19.8854C177.169 18.3551 176.881 16.9356 176.304 15.6049C175.75 14.2742 174.951 13.1431 173.909 12.256C173.199 11.635 172.312 11.1914 171.248 10.8809C170.183 10.5926 168.875 10.4373 167.322 10.4373H167.345ZM154.815 32.8155V32.5715L155.281 32.1058C155.281 32.1058 155.436 31.9283 155.458 31.8174C155.502 31.7065 155.525 31.5735 155.525 31.4404V8.26382C155.525 8.13075 155.525 8.01985 155.48 7.93114C155.436 7.84243 155.369 7.73153 155.281 7.64282L154.815 7.17707V6.93311H167.345C169.385 6.93311 171.115 7.15489 172.578 7.57628C174.042 7.99768 175.306 8.64085 176.393 9.55017C177.945 10.8144 179.098 12.389 179.897 14.2077C180.717 16.0485 181.116 18.0667 181.116 20.2624C181.116 22.3028 180.739 24.1437 179.985 25.8071C179.254 27.4704 178.145 28.8899 176.681 30.0875C175.461 31.0634 174.175 31.7731 172.822 32.1945C171.47 32.6159 169.585 32.8155 167.189 32.8155H154.793H154.815Z" fill="#2B388F"/>
<path d="M140.001 10.4373H131.973V29.2669H139.868C141.553 29.2669 142.861 29.1338 143.815 28.8899C144.769 28.6237 145.656 28.1802 146.432 27.5592C147.563 26.6942 148.406 25.6074 148.96 24.3211C149.537 23.0347 149.825 21.5488 149.825 19.8854C149.825 18.3551 149.537 16.9356 148.96 15.6049C148.406 14.2742 147.607 13.1431 146.565 12.256C145.855 11.635 144.968 11.1914 143.904 10.8809C142.839 10.5926 141.531 10.4373 139.979 10.4373H140.001ZM127.493 32.8155V32.5715L127.959 32.1058C127.959 32.1058 128.114 31.9283 128.136 31.8174C128.181 31.7065 128.203 31.5735 128.203 31.4404V8.26382C128.203 8.13075 128.203 8.01985 128.158 7.93114C128.114 7.84243 128.048 7.73153 127.959 7.64282L127.493 7.17707V6.93311H140.023C142.063 6.93311 143.815 7.15489 145.257 7.57628C146.72 7.99768 147.984 8.64085 149.071 9.55017C150.623 10.8144 151.777 12.389 152.575 14.2077C153.395 16.0485 153.795 18.0667 153.795 20.2624C153.795 22.3028 153.418 24.1437 152.664 25.8071C151.932 27.4704 150.823 28.8899 149.359 30.0875C148.14 31.0634 146.853 31.7731 145.501 32.1945C144.148 32.6159 142.263 32.8155 139.868 32.8155H127.471H127.493Z" fill="#2B388F"/>
<path d="M182.779 31.4182V8.26382C182.779 8.15293 182.757 8.04203 182.713 7.93114C182.669 7.82025 182.602 7.73153 182.513 7.64282L182.07 7.17707V6.93311H187.281V7.17707L186.838 7.64282C186.838 7.64282 186.683 7.84243 186.638 7.93114C186.594 8.01985 186.594 8.13075 186.594 8.26382V31.4182C186.594 31.5735 186.594 31.6844 186.638 31.7953C186.683 31.9062 186.749 31.9949 186.838 32.0836L187.281 32.5493V32.7933H182.07V32.5493L182.513 32.0836C182.513 32.0836 182.669 31.9062 182.713 31.7953C182.757 31.6844 182.779 31.5513 182.779 31.4182Z" fill="#2B388F"/>
<path d="M208.216 24.8977V8.26375C208.216 8.13068 208.172 8.01979 208.149 7.93108C208.105 7.84236 208.039 7.73147 207.95 7.64275L207.484 7.177V6.93304H212.363V7.177L211.897 7.64275C211.897 7.64275 211.742 7.82018 211.698 7.93108C211.653 8.01979 211.653 8.13068 211.653 8.26375V33.6582L193.491 15.1169V31.4182C193.491 31.5734 193.491 31.6843 193.535 31.7952C193.579 31.9061 193.646 31.9948 193.735 32.0835L194.178 32.5493V32.7932H189.299V32.5493L189.787 32.0835C189.787 32.0835 189.942 31.9061 189.965 31.7952C190.009 31.6843 190.031 31.5512 190.031 31.4182V6.0459L208.194 24.9198L208.216 24.8977Z" fill="#2B388F"/>
<path d="M18.9166 24.8977V8.26375C18.9166 8.13068 18.8723 8.01979 18.8501 7.93108C18.8057 7.84236 18.7392 7.73147 18.6505 7.64275L18.1848 7.177V6.93304H23.0637V7.177L22.5979 7.64275C22.5979 7.64275 22.4427 7.82018 22.3984 7.93108C22.354 8.01979 22.354 8.13068 22.354 8.26375V33.6582L4.19138 15.1391V31.4403C4.19138 31.5956 4.19138 31.7065 4.23573 31.8174C4.28008 31.9283 4.34661 32.017 4.43532 32.1057L4.87885 32.5714V32.8154H0V32.5714L0.487885 32.1057C0.487885 32.1057 0.643121 31.9283 0.665298 31.8174C0.709651 31.7065 0.731827 31.5734 0.731827 31.4403V6.0459L18.8945 24.9198L18.9166 24.8977Z" fill="#2B388F"/>
<path d="M114.121 40.4007H110.905C110.905 40.4007 110.839 40.4007 110.794 40.4229C110.75 40.4229 110.705 40.4672 110.661 40.5116L110.439 40.689L110.373 40.6447L111.082 39.3139H119.155L118.401 40.689H118.334V40.5559C118.334 40.5559 118.334 40.4672 118.29 40.445C118.245 40.4229 118.201 40.4007 118.157 40.4007H115.296V46.9212C115.296 46.9212 115.296 47.0099 115.296 47.0543C115.296 47.0764 115.318 47.1208 115.363 47.143L115.518 47.276V47.3648H113.899V47.276L114.054 47.143C114.054 47.143 114.098 47.0764 114.121 47.0543C114.121 47.0099 114.143 46.9877 114.143 46.9434V40.4229L114.121 40.4007ZM117.358 46.9434V42.552C117.358 42.552 117.358 42.4855 117.336 42.4411C117.336 42.3968 117.314 42.3746 117.27 42.3524L117.114 42.2193V42.1306H119.288C119.51 42.1306 119.709 42.175 119.909 42.2859C120.108 42.3968 120.264 42.5298 120.397 42.7073L119.931 43.6609H119.842V43.5722C119.842 43.4392 119.776 43.3283 119.643 43.2395C119.51 43.1508 119.354 43.1065 119.155 43.1065H118.356V46.9212C118.356 46.9212 118.356 47.0099 118.356 47.0321C118.356 47.0764 118.401 47.0986 118.423 47.1208L118.578 47.2539V47.3426H117.114V47.2539L117.27 47.1208C117.27 47.1208 117.314 47.0543 117.336 47.0321C117.336 46.9877 117.358 46.9655 117.358 46.9212V46.9434ZM122.681 47.3648C122.06 47.3648 121.594 47.2095 121.262 46.9212C120.929 46.6329 120.774 46.1893 120.774 45.6348C120.774 45.0804 120.929 44.659 121.262 44.3485C121.594 44.038 122.06 43.8827 122.636 43.8827H123.479L122.903 44.9916H122.836C122.836 44.9916 122.814 44.8808 122.77 44.8586C122.725 44.8364 122.659 44.8142 122.592 44.8142C122.326 44.8142 122.104 44.8808 121.949 45.036C121.794 45.1913 121.705 45.3909 121.705 45.6348C121.705 45.9232 121.794 46.1228 121.949 46.278C122.104 46.4111 122.37 46.4776 122.703 46.4776H124.034V43.7053C124.034 43.4613 123.989 43.3061 123.901 43.2174C123.812 43.1287 123.634 43.0843 123.39 43.0843H121.705C121.705 43.0843 121.616 43.0843 121.572 43.1065C121.528 43.1065 121.483 43.1508 121.439 43.1952L121.217 43.3726L121.151 43.3283L121.816 42.1528H123.413C123.989 42.1528 124.388 42.2859 124.632 42.552C124.876 42.8181 124.987 43.2617 124.987 43.8827V46.9655C124.987 46.9655 124.987 47.0543 124.987 47.0764C124.987 47.1208 125.032 47.143 125.054 47.1651L125.187 47.2982V47.3869H122.636L122.681 47.3648ZM130.132 42.1306V40.0902C130.132 40.0902 130.132 40.0015 130.11 39.9793C130.11 39.9571 130.088 39.9128 130.043 39.8906L129.888 39.7575V39.6688H131.33V39.7575L131.197 39.8906C131.197 39.8906 131.152 39.9349 131.13 39.9793C131.13 40.0015 131.13 40.0458 131.13 40.0902V46.9434C131.13 46.9434 131.13 47.0321 131.13 47.0543C131.13 47.0986 131.174 47.1208 131.197 47.143L131.33 47.276V47.3648H129.91V47.276L130.043 47.143C130.043 47.143 130.088 47.0764 130.11 47.0543C130.11 47.0099 130.132 46.9877 130.132 46.9434V43.0843H128.957C128.336 43.0843 127.87 43.2395 127.537 43.5279C127.205 43.8162 127.05 44.2376 127.05 44.7699C127.05 45.3021 127.205 45.7235 127.493 46.0119C127.804 46.3002 128.225 46.4554 128.779 46.4554H129.201C129.201 46.4554 129.289 46.4554 129.312 46.4554C129.356 46.4554 129.378 46.4111 129.445 46.3667L129.666 46.1893L129.733 46.2337L129.068 47.4313H128.691C127.914 47.4313 127.271 47.1873 126.761 46.6994C126.273 46.2115 126.007 45.6126 126.007 44.8586C126.007 44.038 126.273 43.3948 126.783 42.9069C127.316 42.4189 128.025 42.1972 128.957 42.1972H130.11L130.132 42.1306ZM132.549 40.8664C132.549 40.689 132.616 40.5559 132.727 40.4229C132.86 40.2898 133.015 40.2454 133.193 40.2454C133.37 40.2454 133.525 40.312 133.636 40.4229C133.769 40.5338 133.813 40.689 133.813 40.8664C133.813 41.0439 133.747 41.1991 133.636 41.31C133.503 41.4431 133.37 41.4874 133.193 41.4874C133.015 41.4874 132.86 41.4209 132.749 41.31C132.616 41.1769 132.572 41.0439 132.572 40.8664H132.549ZM132.682 46.9434V42.552C132.682 42.552 132.682 42.4855 132.66 42.4411C132.66 42.3968 132.638 42.3746 132.594 42.3524L132.439 42.2193V42.1306H133.902V42.2193L133.747 42.3524C133.747 42.3524 133.703 42.4189 133.68 42.4411C133.68 42.4633 133.68 42.5077 133.68 42.552V46.9434C133.68 46.9434 133.68 47.0321 133.68 47.0543C133.68 47.0986 133.725 47.1208 133.747 47.143L133.902 47.276V47.3648H132.439V47.276L132.594 47.143C132.594 47.143 132.638 47.0764 132.66 47.0543C132.66 47.0099 132.682 46.9877 132.682 46.9434ZM135.277 46.9434V42.552C135.277 42.552 135.277 42.4855 135.255 42.4411C135.255 42.3968 135.233 42.3746 135.188 42.3524L135.033 42.2193V42.1306H136.231V42.5077H136.253L136.63 42.1306H137.406C138.16 42.1306 138.714 42.3524 139.091 42.7516C139.468 43.1508 139.668 43.7497 139.668 44.5259V46.9434C139.668 46.9434 139.668 47.0321 139.668 47.0543C139.668 47.0986 139.712 47.1208 139.735 47.143L139.89 47.276V47.3648H138.426V47.276L138.581 47.143C138.581 47.143 138.626 47.0764 138.648 47.0543C138.648 47.0099 138.67 46.9877 138.67 46.9434V44.5259C138.67 44.0602 138.559 43.7053 138.36 43.4613C138.16 43.2174 137.85 43.0843 137.45 43.0843H136.253V46.9434C136.253 46.9434 136.253 47.0321 136.253 47.0543C136.253 47.0986 136.297 47.1208 136.319 47.143L136.475 47.276V47.3648H135.011V47.276L135.166 47.143C135.166 47.143 135.211 47.0764 135.233 47.0543C135.233 47.0099 135.255 46.9877 135.255 46.9434H135.277ZM144.813 47.4313V43.0843H143.638C143.017 43.0843 142.551 43.2395 142.218 43.5279C141.886 43.8162 141.731 44.2376 141.731 44.7699C141.731 45.3021 141.864 45.7457 142.152 46.034C142.44 46.3002 142.862 46.4554 143.46 46.4554H143.749C143.749 46.4554 143.926 46.4554 143.993 46.4111C144.059 46.3889 144.126 46.3445 144.192 46.3002L144.347 46.1671L144.414 46.2115L143.749 47.4091H143.372C142.573 47.4091 141.908 47.1651 141.42 46.6994C140.932 46.2336 140.688 45.6126 140.688 44.8364C140.688 44.0158 140.954 43.3726 141.464 42.8847C141.997 42.3968 142.706 42.175 143.638 42.175H146.011V42.2637L145.878 42.3968C145.878 42.3968 145.833 42.4633 145.811 42.4855C145.811 42.5298 145.789 42.552 145.789 42.5964V47.5865C145.789 48.4293 145.589 49.006 145.212 49.3608C144.835 49.6935 144.192 49.8709 143.261 49.8709H141.487L142.063 48.9394H143.704C144.126 48.9394 144.414 48.8507 144.569 48.6511C144.724 48.4515 144.813 48.0523 144.813 47.4756V47.4313ZM154.526 40.4007C154.039 40.4007 153.639 40.445 153.329 40.5338C153.018 40.6225 152.752 40.7555 152.531 40.933C152.176 41.2213 151.932 41.5762 151.754 41.9754C151.577 42.3746 151.488 42.8182 151.488 43.3283C151.488 43.8605 151.577 44.3041 151.754 44.7255C151.932 45.1247 152.198 45.4574 152.531 45.7235C152.774 45.9231 153.041 46.0562 153.351 46.1449C153.662 46.2336 154.061 46.2558 154.593 46.2558H158.075C158.075 46.2558 158.163 46.2558 158.208 46.2337C158.252 46.2337 158.296 46.1893 158.341 46.1449L158.563 45.9675H158.651L157.897 47.3648H154.593C153.839 47.3648 153.24 47.2982 152.819 47.1651C152.397 47.0321 151.998 46.8103 151.643 46.4998C151.2 46.1228 150.845 45.6792 150.623 45.1691C150.402 44.659 150.268 44.0602 150.268 43.4392C150.268 42.9512 150.335 42.4855 150.468 42.0419C150.601 41.5983 150.801 41.1991 151.067 40.8443C151.244 40.6003 151.466 40.3563 151.71 40.1567C151.954 39.9571 152.198 39.7797 152.486 39.6466C152.73 39.5135 152.996 39.4248 153.285 39.3805C153.573 39.3361 153.994 39.2918 154.549 39.2918H158.54L157.786 40.6668H157.72V40.5559V40.5338C157.72 40.4894 157.72 40.445 157.653 40.4229C157.609 40.4007 157.565 40.3785 157.52 40.3785H154.526V40.4007ZM163.508 40.2676C162.554 40.2676 161.756 40.5559 161.157 41.1326C160.558 41.7092 160.248 42.4411 160.248 43.3504C160.248 44.2598 160.558 44.9916 161.157 45.5683C161.756 46.1449 162.554 46.4333 163.508 46.4333C164.462 46.4333 165.26 46.1449 165.859 45.5683C166.48 44.9916 166.768 44.2598 166.768 43.3504C166.768 42.4411 166.457 41.7092 165.859 41.1326C165.26 40.5559 164.462 40.2676 163.508 40.2676ZM163.508 39.1809C164.107 39.1809 164.683 39.2696 165.193 39.447C165.726 39.6244 166.169 39.8684 166.546 40.1789C167.034 40.6003 167.389 41.066 167.633 41.5983C167.877 42.1306 168.01 42.7073 168.01 43.3283C168.01 43.9493 167.877 44.5259 167.633 45.0582C167.389 45.5905 167.012 46.0562 166.546 46.4776C166.169 46.8103 165.726 47.0543 165.193 47.2317C164.683 47.4091 164.107 47.4978 163.508 47.4978C162.909 47.4978 162.355 47.4091 161.822 47.2317C161.312 47.0543 160.847 46.8103 160.47 46.4776C159.982 46.0784 159.605 45.5905 159.361 45.0582C159.117 44.5259 158.984 43.9493 158.984 43.3061C158.984 42.6629 159.117 42.1084 159.361 41.5762C159.605 41.0439 159.982 40.5559 160.448 40.1567C160.825 39.8462 161.268 39.5801 161.778 39.4248C162.31 39.2474 162.865 39.1587 163.464 39.1587L163.508 39.1809ZM168.609 46.8546C168.609 46.655 168.675 46.4776 168.83 46.3224C168.986 46.1671 169.163 46.1006 169.363 46.1006C169.562 46.1006 169.74 46.1671 169.895 46.3224C170.05 46.4776 170.117 46.655 170.117 46.8546C170.117 47.0543 170.05 47.2317 169.895 47.3869C169.74 47.5422 169.562 47.6087 169.363 47.6087C169.163 47.6087 168.986 47.5422 168.83 47.3869C168.675 47.2317 168.609 47.0543 168.609 46.8546ZM176.725 39.3139H178.278V39.4027C177.546 39.8684 177.013 40.445 176.614 41.1104C176.237 41.7758 176.038 42.4855 176.038 43.2839C176.038 44.1489 176.215 44.9029 176.592 45.5683C176.969 46.2336 177.524 46.8103 178.255 47.2982V47.3869H176.703C176.149 46.8103 175.727 46.1893 175.439 45.5018C175.151 44.8142 175.018 44.1045 175.018 43.3504C175.018 42.5964 175.173 41.9088 175.461 41.2213C175.749 40.5338 176.171 39.9128 176.725 39.3361V39.3139ZM179.253 46.9434V39.7353C179.253 39.7353 179.253 39.6688 179.253 39.6244C179.253 39.6023 179.231 39.5579 179.187 39.5357L179.054 39.4027V39.3139H180.673V39.4027L180.54 39.5357C180.54 39.5357 180.495 39.6023 180.473 39.6244C180.473 39.6466 180.473 39.691 180.473 39.7353V46.2558H183.4C183.4 46.2558 183.489 46.2558 183.511 46.2558C183.556 46.2558 183.6 46.2115 183.644 46.1671L183.866 45.9897L183.933 46.034L183.201 47.3869H179.054V47.2982L179.187 47.1651C179.187 47.1651 179.231 47.0986 179.253 47.0764C179.253 47.0321 179.275 47.0099 179.275 46.9655L179.253 46.9434ZM184.82 46.8546C184.82 46.655 184.886 46.4776 185.041 46.3224C185.197 46.1671 185.374 46.1006 185.574 46.1006C185.773 46.1006 185.951 46.1671 186.106 46.3224C186.261 46.4776 186.328 46.655 186.328 46.8546C186.328 47.0543 186.261 47.2317 186.106 47.3869C185.951 47.5422 185.773 47.6087 185.574 47.6087C185.374 47.6087 185.197 47.5422 185.041 47.3869C184.886 47.2317 184.82 47.0543 184.82 46.8546ZM188.213 46.9434V39.7353C188.213 39.7353 188.213 39.6688 188.213 39.6244C188.213 39.6023 188.19 39.5579 188.146 39.5357L188.013 39.4027V39.3139H189.632V39.4027L189.499 39.5357C189.499 39.5357 189.455 39.6023 189.432 39.6244C189.432 39.6466 189.432 39.691 189.432 39.7353V46.2558H192.36C192.36 46.2558 192.448 46.2558 192.471 46.2558C192.515 46.2558 192.559 46.2115 192.604 46.1671L192.825 45.9897L192.892 46.034L192.16 47.3869H188.013V47.2982L188.146 47.1651C188.146 47.1651 188.19 47.0986 188.213 47.0764C188.213 47.0321 188.235 47.0099 188.235 46.9655L188.213 46.9434ZM193.779 46.8546C193.779 46.655 193.846 46.4776 194.001 46.3224C194.156 46.1671 194.333 46.1006 194.533 46.1006C194.733 46.1006 194.91 46.1671 195.065 46.3224C195.22 46.4776 195.287 46.655 195.287 46.8546C195.287 47.0543 195.22 47.2317 195.065 47.3869C194.91 47.5422 194.733 47.6087 194.533 47.6087C194.333 47.6087 194.156 47.5422 194.001 47.3869C193.846 47.2317 193.779 47.0543 193.779 46.8546ZM200.831 40.4007C200.343 40.4007 199.944 40.445 199.634 40.5338C199.323 40.6225 199.057 40.7555 198.835 40.933C198.48 41.2213 198.236 41.5762 198.059 41.9754C197.882 42.3746 197.793 42.8182 197.793 43.3283C197.793 43.8605 197.882 44.3041 198.059 44.7255C198.236 45.1247 198.503 45.4574 198.835 45.7235C199.079 45.9231 199.345 46.0562 199.656 46.1449C199.966 46.2336 200.365 46.2558 200.898 46.2558H204.379C204.379 46.2558 204.468 46.2558 204.512 46.2337C204.557 46.2337 204.601 46.1893 204.645 46.1449L204.867 45.9675H204.956L204.202 47.3648H200.898C200.144 47.3648 199.545 47.2982 199.124 47.1651C198.702 47.0321 198.303 46.8103 197.948 46.4998C197.505 46.1228 197.15 45.6792 196.928 45.1691C196.706 44.659 196.573 44.0602 196.573 43.4392C196.573 42.9512 196.64 42.4855 196.773 42.0419C196.906 41.5983 197.105 41.1991 197.372 40.8443C197.549 40.6003 197.771 40.3563 198.015 40.1567C198.259 39.9571 198.503 39.7797 198.791 39.6466C199.035 39.5135 199.301 39.4248 199.589 39.3805C199.878 39.3361 200.299 39.2918 200.853 39.2918H204.845L204.091 40.6668H204.025V40.5559V40.5338C204.025 40.4894 204.025 40.445 203.958 40.4229C203.914 40.4007 203.869 40.3785 203.825 40.3785H200.831V40.4007ZM205.887 46.8546C205.887 46.655 205.954 46.4776 206.109 46.3224C206.264 46.1671 206.442 46.1006 206.641 46.1006C206.841 46.1006 207.018 46.1671 207.174 46.3224C207.329 46.4776 207.395 46.655 207.395 46.8546C207.395 47.0543 207.329 47.2317 207.174 47.3869C207.018 47.5422 206.841 47.6087 206.641 47.6087C206.442 47.6087 206.264 47.5422 206.109 47.3869C205.954 47.2317 205.887 47.0543 205.887 46.8546ZM209.901 39.3139C210.434 39.8684 210.855 40.5116 211.143 41.1769C211.432 41.8645 211.587 42.552 211.587 43.2617C211.587 44.038 211.454 44.7699 211.165 45.4352C210.877 46.1228 210.456 46.7438 209.901 47.3204H208.349V47.2317C209.081 46.7438 209.635 46.1671 210.012 45.5018C210.389 44.8364 210.567 44.0602 210.567 43.2174C210.567 42.4189 210.389 41.7092 209.99 41.0439C209.613 40.3785 209.059 39.824 208.349 39.3361V39.2474H209.901V39.3139Z" fill="#2B388F"/>
<path d="M229.705 45.0804V42.3746V42.3302C229.705 42.3302 229.705 42.3081 229.683 42.2859L229.616 42.2193V42.175H230.415V42.2193L230.348 42.2859C230.348 42.2859 230.326 42.3081 230.326 42.3302V42.3746V46.4998L227.377 43.4835V46.1228C227.377 46.1228 227.377 46.1671 227.377 46.1893C227.377 46.1893 227.377 46.2337 227.399 46.2337L227.465 46.3002V46.3446H226.667V46.3002L226.756 46.2337C226.756 46.2337 226.778 46.2115 226.778 46.1893C226.778 46.1893 226.778 46.1449 226.778 46.1228V41.9976L229.727 45.0582L229.705 45.0804ZM231.213 46.3667H230.326L232.965 42.0197L235.604 46.3667H234.695V46.3224C234.695 46.3224 234.761 46.3224 234.784 46.3002C234.806 46.3002 234.828 46.2558 234.828 46.2337V46.1893C234.828 46.1893 234.828 46.1671 234.828 46.1449L233.941 44.6812H232.655H232.544C232.544 44.6812 232.522 44.6812 232.499 44.6812L232.411 44.7477H232.389L232.766 44.0823H233.608L233.032 43.1287L231.169 46.1228C231.169 46.1228 231.169 46.145 231.169 46.1671C231.169 46.1671 231.169 46.1893 231.169 46.2115C231.169 46.2337 231.169 46.2558 231.191 46.278C231.213 46.278 231.235 46.3002 231.28 46.3002V46.3446L231.213 46.3667ZM237.578 45.1026C237.578 45.5018 237.467 45.8344 237.223 46.0784C237.001 46.3224 236.669 46.4333 236.292 46.4333C235.981 46.4333 235.693 46.3446 235.471 46.1893C235.249 46.0341 235.094 45.8123 235.005 45.5239L235.56 45.1469L235.626 45.2135C235.626 45.2135 235.604 45.2578 235.604 45.28C235.604 45.28 235.604 45.3243 235.604 45.3465C235.604 45.4796 235.671 45.6127 235.804 45.7236C235.937 45.8344 236.092 45.8788 236.292 45.8788C236.513 45.8788 236.669 45.8123 236.802 45.7014C236.935 45.5683 236.979 45.4131 236.979 45.1913C236.979 45.1913 236.979 45.1913 236.979 45.1469V45.1026V42.3968V42.3524C236.979 42.3524 236.979 42.3302 236.957 42.3081L236.89 42.2415V42.1972H237.733V42.2415L237.667 42.3081C237.667 42.3081 237.644 42.3302 237.622 42.3524V42.3968V45.1026H237.578ZM240.616 45.2356L242.102 41.9976L243.255 46.3446H242.479V46.3002L242.545 46.2337C242.545 46.2337 242.545 46.2115 242.568 46.1893C242.568 46.1893 242.568 46.1449 242.568 46.1228C242.568 46.1228 242.568 46.1006 242.568 46.0784C242.568 46.0784 242.568 46.0341 242.568 46.0119L241.924 43.5501L240.572 46.4776L239.152 43.5722L238.576 46.0119C238.576 46.0119 238.576 46.0562 238.576 46.0784V46.1228C238.576 46.1228 238.576 46.1671 238.576 46.1893C238.576 46.1893 238.576 46.2115 238.598 46.2337L238.665 46.3002V46.3446H237.911L239.086 41.9976L240.616 45.2356ZM246.515 45.2356V42.3746V42.3302C246.515 42.3302 246.515 42.3081 246.493 42.2859L246.426 42.2193V42.175H247.269V42.2193L247.203 42.2859C247.203 42.2859 247.18 42.3081 247.18 42.3302C247.18 42.3302 247.18 42.3746 247.18 42.3968V45.4352C247.18 45.7679 247.025 46.0119 246.737 46.1893C246.449 46.3667 246.005 46.4333 245.406 46.4333C244.807 46.4333 244.386 46.3446 244.076 46.1893C243.787 46.0119 243.632 45.7679 243.632 45.4352V42.3968V42.3524C243.632 42.3524 243.632 42.3302 243.61 42.3081L243.543 42.2415V42.1972H244.386V42.2415L244.32 42.3081C244.32 42.3081 244.297 42.3302 244.275 42.3524V42.3968V45.2578C244.275 45.5018 244.364 45.657 244.519 45.7457C244.674 45.8344 244.985 45.8788 245.406 45.8788C245.828 45.8788 246.138 45.8344 246.315 45.7457C246.471 45.657 246.559 45.4796 246.559 45.2578L246.515 45.2356ZM249.864 42.7295H248.555V45.7901H249.842C250.108 45.7901 250.329 45.7901 250.485 45.7236C250.64 45.6792 250.773 45.6127 250.906 45.5018C251.083 45.3687 251.216 45.1913 251.305 44.9695C251.394 44.7699 251.438 44.5259 251.438 44.2598C251.438 44.0158 251.394 43.7718 251.305 43.5722C251.216 43.3505 251.083 43.173 250.928 43.04C250.817 42.9291 250.662 42.8625 250.507 42.8182C250.329 42.7738 250.13 42.7516 249.864 42.7516V42.7295ZM247.846 46.3667V46.3224L247.912 46.2558C247.912 46.2558 247.934 46.2337 247.934 46.2115C247.934 46.2115 247.934 46.1671 247.934 46.1449V42.3968V42.3524C247.934 42.3524 247.934 42.3302 247.912 42.3081L247.846 42.2415V42.1972H249.886C250.219 42.1972 250.507 42.2415 250.729 42.3081C250.973 42.3746 251.172 42.4855 251.35 42.6186C251.593 42.8182 251.793 43.0843 251.926 43.3726C252.059 43.661 252.126 43.9936 252.126 44.3485C252.126 44.6812 252.059 44.9695 251.948 45.2578C251.837 45.524 251.66 45.7679 251.416 45.9453C251.216 46.1006 251.017 46.2115 250.795 46.278C250.573 46.3446 250.263 46.3889 249.886 46.3889H247.868L247.846 46.3667ZM254.499 42.7295H253.19V45.7901H254.476C254.743 45.7901 254.964 45.7901 255.12 45.7236C255.275 45.6792 255.408 45.6127 255.541 45.5018C255.718 45.3687 255.851 45.1913 255.94 44.9695C256.029 44.7699 256.073 44.5259 256.073 44.2598C256.073 44.0158 256.029 43.7718 255.94 43.5722C255.851 43.3505 255.718 43.173 255.563 43.04C255.452 42.9291 255.297 42.8625 255.142 42.8182C254.964 42.7738 254.765 42.7516 254.499 42.7516V42.7295ZM252.481 46.3667V46.3224L252.547 46.2558C252.547 46.2558 252.569 46.2337 252.569 46.2115C252.569 46.2115 252.569 46.1671 252.569 46.1449V42.3968V42.3524C252.569 42.3524 252.569 42.3302 252.547 42.3081L252.481 42.2415V42.1972H254.521C254.853 42.1972 255.142 42.2415 255.364 42.3081C255.607 42.3746 255.807 42.4855 255.984 42.6186C256.228 42.8182 256.428 43.0843 256.561 43.3726C256.694 43.661 256.761 43.9936 256.761 44.3485C256.761 44.6812 256.694 44.9695 256.583 45.2578C256.472 45.524 256.295 45.7679 256.051 45.9453C255.851 46.1006 255.652 46.2115 255.43 46.278C255.208 46.3446 254.898 46.3889 254.521 46.3889H252.503L252.481 46.3667ZM257.249 46.1449V42.3968V42.3524C257.249 42.3524 257.249 42.3081 257.226 42.3081L257.16 42.2415V42.1972H258.003V42.2415L257.936 42.3081C257.936 42.3081 257.914 42.3302 257.914 42.3524C257.914 42.3524 257.914 42.3746 257.914 42.3968V46.1449C257.914 46.1449 257.914 46.1893 257.914 46.2115C257.914 46.2115 257.914 46.2558 257.936 46.2558L258.003 46.3224V46.3667H257.16V46.3224L257.226 46.2558C257.226 46.2558 257.249 46.2337 257.249 46.2115C257.249 46.2115 257.249 46.1671 257.249 46.1449ZM261.617 45.0804V42.3746V42.3302C261.617 42.3302 261.617 42.3081 261.595 42.2859L261.529 42.2193V42.175H262.327V42.2193L262.26 42.2859C262.26 42.2859 262.238 42.3081 262.238 42.3302V42.3746V46.4998L259.289 43.4835V46.1228C259.289 46.1228 259.289 46.1671 259.289 46.1893C259.289 46.1893 259.289 46.2337 259.311 46.2337L259.377 46.3002V46.3446H258.579V46.3002L258.668 46.2337C258.668 46.2337 258.69 46.2115 258.69 46.1893C258.69 46.1893 258.69 46.1449 258.69 46.1228V41.9976L261.639 45.0582L261.617 45.0804Z" fill="#EB2329"/>
<path d="M29.2065 32.8154H23.6846L40.0065 6.0459L56.2176 32.8154H50.6291V32.5714C50.8731 32.5714 51.0505 32.5271 51.1835 32.4162C51.3388 32.3275 51.4053 32.1944 51.4053 32.0392C51.4053 31.9283 51.4053 31.8396 51.361 31.7508C51.3388 31.6621 51.3166 31.5734 51.2723 31.5291L45.7725 22.5024H37.8332C37.4562 22.5024 37.2123 22.5024 37.0792 22.5467C36.9683 22.5467 36.8796 22.5911 36.8353 22.6576L36.3031 23.1012L36.1256 22.946L38.432 18.9538H43.577L39.9844 13.0321L28.5412 31.5069C28.5412 31.5069 28.4525 31.6621 28.4304 31.7508C28.4082 31.8396 28.386 31.9283 28.386 32.017C28.386 32.1722 28.4525 32.3053 28.5856 32.394C28.7408 32.4827 28.9182 32.5493 29.1622 32.5493V32.7932L29.2065 32.8154Z" fill="#2B388F"/>
<path d="M68.8583 25.0086C68.8583 27.537 68.1264 29.5331 66.685 31.0412C65.2435 32.5272 63.3363 33.259 60.919 33.259C58.9675 33.259 57.2821 32.7711 55.885 31.7731C54.4878 30.7972 53.5342 29.4443 53.0242 27.7144L56.4172 25.3191L56.7942 25.674C56.7055 25.8292 56.639 25.9623 56.6168 26.0954C56.5724 26.2284 56.5724 26.3615 56.5724 26.4946C56.5724 27.3596 56.9938 28.1358 57.8143 28.779C58.657 29.4443 59.655 29.7548 60.8303 29.7548C62.1609 29.7548 63.2032 29.3778 63.9572 28.6237C64.7112 27.8697 65.1104 26.8273 65.1104 25.5187C65.1104 25.4744 65.1104 25.3857 65.1104 25.2748C65.1104 25.1639 65.1104 25.053 65.1104 25.0086V8.26382C65.1104 8.13075 65.1104 8.01985 65.0661 7.93114C65.0217 7.84243 64.9552 7.73153 64.8665 7.64282L64.4008 7.17707V6.93311H69.6344V7.17707L69.1909 7.64282C69.1909 7.64282 69.0135 7.82025 68.9691 7.93114C68.9248 8.01985 68.9248 8.13075 68.9248 8.26382V25.0086H68.8583Z" fill="#2B388F"/>
<path d="M262.526 47.875V48.3852H227.266V47.875H262.526ZM262.526 40.8223V41.3324H227.266V40.8223H262.526Z" fill="#EB2329"/>
<path d="M454.531 13.9638C459.92 12.3448 464.422 12.5222 467.704 14.607C471.031 16.7361 472.406 20.3956 472.406 24.1881H467.372C467.372 21.5267 466.462 19.7746 465.021 18.8653C463.491 17.8894 460.697 17.4015 456.017 18.7987L454.576 13.9638H454.531Z" fill="#2B388F"/>
<path d="M286.233 17.1353H291.245V25.9401C291.245 28.8455 290.38 31.0412 288.628 32.5272C286.876 34.0131 284.393 34.7672 281.177 34.7672C277.961 34.7672 275.5 34.0131 273.726 32.505C271.974 30.9969 271.087 28.8233 271.087 25.9845V17.1574H276.121V26.1176C276.121 27.4926 276.586 28.6016 277.496 29.4444C278.427 30.2871 279.625 30.6863 281.11 30.6863C282.596 30.6863 283.905 30.265 284.814 29.4C285.745 28.5572 286.211 27.3374 286.211 25.7627V17.1574L286.233 17.1353Z" fill="#2B388F"/>
<path d="M283.173 10.0825H278.649V14.6069H283.173V10.0825Z" fill="#2B388F"/>
<path d="M316.438 28.7124H311.914V33.2368H316.438V28.7124Z" fill="#2B388F"/>
<path d="M321.96 28.7124H317.436V33.2368H321.96V28.7124Z" fill="#2B388F"/>
<path d="M464.578 28.7124H460.053V33.2368H464.578V28.7124Z" fill="#2B388F"/>
<path d="M485.734 7.04395H481.21V11.5684H485.734V7.04395Z" fill="#2B388F"/>
<path d="M290.491 20.9056C291.001 20.9056 291.046 20.5064 291.334 20.8613C291.556 21.1274 291.977 21.5266 292.598 21.9037C293.818 22.6799 295.791 23.4118 298.564 23.4118H318.212C318.212 23.4118 318.212 23.4118 318.256 23.4118C318.301 23.4118 318.345 23.4118 318.389 23.3896C318.5 23.3674 318.567 23.3009 318.633 23.2566C318.7 23.2122 318.766 23.1457 318.811 23.0126C318.877 22.8795 318.944 22.6134 318.944 22.1698V13.6089H323.978V22.1698C323.978 24.3655 323.157 26.0511 321.849 27.1378C320.629 28.1358 319.232 28.4685 318.19 28.4685H298.541C294.86 28.4685 291.955 27.4927 289.892 26.1841C288.872 25.5409 288.03 24.8091 287.431 24.0772C286.899 23.4118 286.278 22.436 286.189 21.327L290.469 20.9278L290.491 20.9056Z" fill="#2B388F"/>
<path d="M415.456 20.3959C415.966 20.3959 416.011 19.9967 416.299 20.3515C416.521 20.6177 416.942 21.0169 417.563 21.3939C418.783 22.1701 420.757 22.902 423.529 22.902H480.212C480.212 22.902 480.212 22.902 480.256 22.902C480.301 22.902 480.345 22.902 480.389 22.8799C480.5 22.8577 480.567 22.7911 480.633 22.7468C480.7 22.7024 480.766 22.6359 480.811 22.5028C480.877 22.3698 480.944 22.1036 480.944 21.66V13.0991H485.978V21.66C485.978 23.8557 485.157 25.5413 483.849 26.628C482.629 27.6261 481.232 27.9588 480.19 27.9588H423.506C419.825 27.9588 416.92 26.9829 414.858 25.6744C413.837 25.0312 412.995 24.2993 412.396 23.5674C411.864 22.902 411.243 21.9262 411.154 20.8173L415.434 20.418L415.456 20.3959Z" fill="#2B388F"/>
<path d="M334.246 13.6754C335.953 13.4536 338.526 13.631 340.766 15.0061C343.139 16.4699 344.802 19.0647 344.89 22.9238H366.956C367.466 22.946 368.176 22.8573 368.664 22.6133C368.886 22.5024 368.974 22.4137 368.996 22.3472C369.019 22.3028 369.085 22.2141 369.085 21.9258V3.51758H374.119V21.9036C374.119 24.5428 372.611 26.2062 370.97 27.0712C369.506 27.8253 367.865 28.0027 366.779 27.9583H329.034V22.9238H339.856C339.79 20.7281 338.925 19.7966 338.127 19.3087C337.129 18.6877 335.798 18.5546 334.889 18.6877L334.246 13.6975V13.6754Z" fill="#2B388F"/>
<path d="M382.945 3.51758H377.911V27.7144H382.945V3.51758Z" fill="#2B388F"/>
<path d="M392.526 23.168C392.526 21.1275 393.169 19.4641 394.411 18.3552C395.519 17.3572 396.85 17.0689 397.892 17.1132H401.862V22.1477H397.759C397.759 22.1477 397.737 22.1921 397.715 22.2365C397.671 22.3695 397.582 22.6579 397.582 23.1458V35.4992H392.548V23.1458L392.526 23.168Z" fill="#2B388F"/>
<path d="M411.176 20.3957C411.176 18.8654 409.934 17.6234 408.404 17.6234C406.874 17.6234 405.632 18.8654 405.632 20.3957C405.632 21.926 406.874 23.168 408.404 23.168V28.2026C404.102 28.2026 400.598 24.6984 400.598 20.3957C400.598 16.0931 404.102 12.5889 408.404 12.5889C412.706 12.5889 416.21 16.0931 416.21 20.3957C416.21 24.6984 412.706 28.2026 408.404 28.2026V23.168C409.934 23.168 411.176 21.926 411.176 20.3957Z" fill="#2B388F"/>
<path d="M348.683 44.0823C348.683 43.9049 348.638 43.6609 348.527 43.4392C348.417 43.2174 348.306 43.0843 348.195 43.0178C347.796 42.8182 346.421 42.3302 344.292 43.0399L343.981 42.0863C346.376 41.2878 348.04 41.7979 348.638 42.1084C349.037 42.308 349.281 42.6851 349.437 43.0178C349.592 43.3726 349.658 43.7496 349.658 44.0823V45.0804H348.66V44.0823H348.683Z" fill="#2B388F"/>
<path d="M320.075 47.4311H319.587C319.964 46.8545 320.252 46.3666 320.407 45.9452C320.563 45.546 320.696 45.1024 320.762 44.6145C320.851 44.1265 320.873 43.6608 320.873 43.2172C320.873 42.7071 320.829 42.197 320.74 41.7313C320.651 41.2433 320.518 40.7998 320.319 40.3562C320.141 39.9126 319.897 39.4912 319.565 39.0698H320.053L320.186 39.2251C320.518 39.6243 320.762 39.9348 320.917 40.2009C321.073 40.4671 321.25 40.7998 321.405 41.199C321.671 41.8643 321.782 42.5297 321.782 43.2172C321.782 43.9048 321.671 44.5257 321.428 45.1467C321.317 45.4572 321.161 45.7678 320.984 46.0561C320.807 46.3666 320.496 46.8101 320.03 47.3868L320.075 47.4311Z" fill="#2B388F"/>
<path d="M272.839 47.4311H273.327C272.95 46.8545 272.661 46.3666 272.506 45.9452C272.351 45.546 272.218 45.1024 272.151 44.6145C272.063 44.1265 272.04 43.6608 272.04 43.2172C272.04 42.7071 272.085 42.197 272.173 41.7313C272.262 41.2433 272.395 40.7998 272.595 40.3562C272.772 39.9126 273.016 39.4912 273.349 39.0698H272.861L272.728 39.2251C272.395 39.6243 272.151 39.9348 271.996 40.2009C271.841 40.4671 271.663 40.7998 271.508 41.199C271.242 41.8643 271.131 42.5297 271.131 43.2172C271.131 43.9048 271.242 44.5257 271.486 45.1467C271.597 45.4572 271.752 45.7678 271.929 46.0561C272.107 46.3666 272.417 46.8101 272.883 47.3868L272.839 47.4311Z" fill="#2B388F"/>
<path d="M317.946 44.3486C317.946 44.9696 317.613 45.3688 317.214 45.5906C316.859 45.7902 316.438 45.8568 316.172 45.8568H312.402V44.8587H316.172C316.327 44.8587 316.549 44.8144 316.704 44.7257C316.837 44.637 316.926 44.5482 316.926 44.3486H317.924H317.946Z" fill="#2B388F"/>
<path d="M311.404 41.8203H312.424V44.7257C312.424 45.1915 312.38 45.5241 312.313 45.7681C312.247 46.0121 312.136 46.1895 312.025 46.3447C311.914 46.5 311.781 46.6331 311.603 46.7661C311.049 47.1653 310.317 47.3871 309.43 47.3871C308.543 47.3871 307.789 47.1875 307.235 46.7883C307.057 46.6552 306.924 46.5222 306.813 46.3669C306.702 46.2117 306.614 46.0121 306.525 45.7903C306.458 45.5685 306.414 45.2136 306.414 44.7257V41.8425H307.434V44.7479C307.434 45.3023 307.501 45.7016 307.656 45.9233C307.811 46.1451 308.033 46.3226 308.343 46.4556C308.654 46.5887 309.009 46.6552 309.43 46.6552C310.029 46.6552 310.517 46.5222 310.894 46.256C311.093 46.123 311.226 45.9455 311.315 45.7459C311.404 45.5463 311.448 45.2136 311.448 44.7479V41.8425L311.404 41.8203Z" fill="#2B388F"/>
<path d="M276.631 43.0845C276.631 42.8849 276.697 42.5744 276.875 42.3082C277.074 42.0199 277.429 41.8203 277.895 41.8203H282.175V42.8183H277.895C277.895 42.8183 277.784 42.8183 277.762 42.8405C277.762 42.8405 277.718 42.8627 277.718 42.8849C277.718 42.9071 277.695 42.9292 277.673 42.9736C277.673 43.018 277.673 43.0401 277.673 43.0623V47.8529H276.675V43.0623L276.631 43.0845Z" fill="#2B388F"/>
<path d="M287.209 43.0845C287.209 42.8849 287.276 42.5744 287.453 42.3082C287.653 42.0199 288.007 41.8203 288.473 41.8203H292.753V42.8183H288.473C288.473 42.8183 288.362 42.8183 288.34 42.8405C288.34 42.8405 288.296 42.8627 288.296 42.8849C288.296 42.9071 288.273 42.9292 288.251 42.9736C288.251 43.018 288.251 43.0401 288.251 43.0623V47.8529H287.253V43.0623L287.209 43.0845Z" fill="#2B388F"/>
<path d="M282.175 45.3464V46.3445H281.177V45.3464H282.175ZM282.685 44.8363V43.3282C282.685 43.0398 282.463 42.8181 282.175 42.8181H281.177C280.889 42.8181 280.667 43.0398 280.667 43.3282V44.8363C280.667 45.1246 280.889 45.3464 281.177 45.3464V46.3445C280.379 46.3445 279.713 45.7013 279.669 44.9028V44.8141V43.306C279.669 42.4632 280.356 41.7979 281.177 41.7979H282.175C283.018 41.7979 283.683 42.4854 283.683 43.306V44.8141C283.683 45.6569 282.995 46.3223 282.175 46.3223V45.3242C282.463 45.3242 282.685 45.1025 282.685 44.8141V44.8363Z" fill="#2B388F"/>
<path d="M292.753 45.3464V46.3445H291.755V45.3464H292.753ZM293.263 44.8363V43.3282C293.263 43.0398 293.042 42.8181 292.753 42.8181H291.755C291.467 42.8181 291.245 43.0398 291.245 43.3282V44.8363C291.245 45.1246 291.467 45.3464 291.755 45.3464V46.3445C290.957 46.3445 290.292 45.7013 290.247 44.9028V44.8141V43.306C290.247 42.4632 290.935 41.7979 291.755 41.7979H292.753C293.596 41.7979 294.261 42.4854 294.261 43.306V44.8141C294.261 45.6569 293.574 46.3223 292.753 46.3223V45.3242C293.042 45.3242 293.263 45.1025 293.263 44.8141V44.8363Z" fill="#2B388F"/>
<path d="M299.185 41.5763C299.805 41.3767 301.247 41.3545 302.178 42.6852C303.065 43.9272 302.955 45.1692 302.711 45.7015L302.578 46.012H298.342V45.014H301.846C301.89 44.6369 301.846 43.9716 301.336 43.2841C300.715 42.4191 299.805 42.4413 299.451 42.5522L299.14 41.5985L299.185 41.5763Z" fill="#2B388F"/>
<path d="M284.703 44.8364H286.211V46.3446H284.703V44.8364Z" fill="#2B388F"/>
<path d="M295.281 44.8364H296.789V46.3446H295.281V44.8364Z" fill="#2B388F"/>
<path d="M303.332 44.8364H304.84V46.3446H303.332V44.8364Z" fill="#2B388F"/>
<path d="M299.805 39.8018H300.803V40.7998H299.805V39.8018Z" fill="#2B388F"/>
<path d="M312.912 39.8018H313.91V40.7998H312.912V39.8018Z" fill="#2B388F"/>
<path d="M314.93 39.8018H315.928V40.7998H314.93V39.8018Z" fill="#2B388F"/>
<path d="M313.91 38.2939H314.908V39.292H313.91V38.2939Z" fill="#2B388F"/>
<path d="M328.036 38.8037H329.034V39.8017H328.036V38.8037Z" fill="#2B388F"/>
<path d="M350.701 39.8018H351.699V40.7998H350.701V39.8018Z" fill="#2B388F"/>
<path d="M332.56 47.3647H333.558V48.3628H332.56V47.3647Z" fill="#2B388F"/>
<path d="M330.054 38.8037H331.052V39.8017H330.054V38.8037Z" fill="#2B388F"/>
<path d="M352.719 39.8018H353.717V40.7998H352.719V39.8018Z" fill="#2B388F"/>
<path d="M346.177 47.3647H347.174V48.3628H346.177V47.3647Z" fill="#2B388F"/>
<path d="M334.578 47.3647H335.576V48.3628H334.578V47.3647Z" fill="#2B388F"/>
<path d="M274.103 44.8364H275.611V46.3446H274.103V44.8364Z" fill="#2B388F"/>
<path d="M313.91 41.8203H314.908V45.8568H313.91V41.8203Z" fill="#2B388F"/>
<path d="M316.948 41.8203H317.946V44.3487H316.948V41.8203Z" fill="#2B388F"/>
<path d="M331.052 40.5562V45.3467H334.334C334.334 45.3467 334.334 45.3467 334.379 45.3467C334.401 45.3467 334.423 45.3245 334.467 45.3024C334.512 45.258 334.6 45.1471 334.6 44.8588V41.8425H335.598V44.8588C335.598 45.3689 335.443 45.7681 335.155 46.0343C334.889 46.2782 334.578 46.3669 334.334 46.3669H330.054V45.3911C329.721 45.502 329.278 45.6129 328.79 45.6129C328.147 45.6129 327.615 45.5463 327.238 45.3911C327.038 45.3024 326.861 45.1693 326.728 44.9919C326.595 44.7923 326.528 44.5927 326.528 44.3709V42.1087C326.528 41.8647 326.595 41.4877 326.816 41.1772C327.06 40.8445 327.459 40.6005 328.036 40.6005H331.052V40.5562ZM327.526 44.3487C327.526 44.3487 327.526 44.3709 327.526 44.393C327.526 44.393 327.526 44.4152 327.637 44.4596C327.814 44.5483 328.169 44.6148 328.79 44.6148C329.211 44.6148 329.588 44.5039 329.855 44.393C329.921 44.3709 329.988 44.3265 330.032 44.3043V41.5764H328.014C327.77 41.5764 327.681 41.6651 327.615 41.7538C327.548 41.8647 327.504 41.9978 327.504 42.0865V44.3487H327.526Z" fill="#2B388F"/>
<path d="M338.104 45.8568V41.8203H339.102V45.8568C339.102 46.2338 338.969 46.7218 338.57 47.1432C338.149 47.5646 337.505 47.8751 336.596 47.8751V46.877C337.284 46.877 337.661 46.6552 337.838 46.4556C338.038 46.2338 338.104 45.9899 338.104 45.8568Z" fill="#2B388F"/>
<path d="M340.122 44.0822V39.8018H341.12V44.0822C341.12 44.2375 341.165 44.4593 341.253 44.6145C341.342 44.7476 341.431 44.8363 341.63 44.8363H356.245C356.356 44.8363 356.511 44.8141 356.644 44.7476C356.688 44.7254 356.733 44.681 356.733 44.681C356.733 44.681 356.733 44.6367 356.733 44.5923V39.8018H357.73V44.5923C357.73 45.1246 357.42 45.4573 357.087 45.6347C356.777 45.79 356.444 45.8565 356.222 45.8565H341.608C340.987 45.8565 340.588 45.5238 340.366 45.1246C340.167 44.7698 340.1 44.3484 340.1 44.0822H340.122Z" fill="#2B388F"/>
<path d="M352.719 41.8203H353.717V44.8366H352.719V41.8203Z" fill="#2B388F"/>
<path d="M359.261 39.8018H360.259V45.8565H359.261V39.8018Z" fill="#2B388F"/>
</g>
<defs>
<clipPath id="clip0_632_31">
<rect width="486" height="79" fill="white" transform="translate(0 0.501465)"/>
</clipPath>
</defs>
</svg>
