<svg width="62" height="62" viewBox="0 0 62 62" fill="none" xmlns="http://www.w3.org/2000/svg">
<g clip-path="url(#clip0_917_1145)">
<path d="M3.83465 4.17534C-0.987596 9.18423 -0.000647053 14.5051 -0.000647053 30.6696C-0.000647053 44.0931 -2.34273 57.5499 9.91487 60.7178C13.7425 61.7022 47.6567 61.7022 51.4792 60.7127C56.5827 59.3959 60.7351 55.2563 61.3027 48.0383C61.382 47.0309 61.382 14.3261 61.3001 13.2982C60.6967 5.60974 55.964 1.17869 49.7278 0.281234C48.2985 0.0741279 48.0121 0.0127632 40.679 -2.11447e-05C14.6681 0.0127632 8.96627 -1.1455 3.83465 4.17534Z" fill="url(#paint0_linear_917_1145)"/>
<path d="M30.6764 8.02577C21.3924 8.02577 12.5763 7.19991 9.20894 15.8421C7.81801 19.4115 8.02 24.0471 8.02 30.6847C8.02 36.5092 7.83335 41.9835 9.20894 45.5247C12.5687 54.172 21.4563 53.3436 30.6712 53.3436C39.5615 53.3436 48.7278 54.2692 52.1361 45.5247C53.5296 41.9196 53.3251 37.353 53.3251 30.6847C53.3251 21.8328 53.8134 16.1182 49.5204 11.8278C45.1738 7.48116 39.2955 8.02577 30.6661 8.02577H30.6764ZM28.6462 12.1091C48.0119 12.0784 50.4767 9.92553 49.1165 39.8332C48.6332 50.4109 40.5791 49.2501 30.6789 49.2501C12.6275 49.2501 12.1084 48.7336 12.1084 30.6745C12.1084 12.4057 13.5403 12.1193 28.6462 12.104V12.1091ZM42.7703 15.8702C41.2694 15.8702 40.0524 17.0873 40.0524 18.5882C40.0524 20.0891 41.2694 21.3061 42.7703 21.3061C44.2712 21.3061 45.4883 20.0891 45.4883 18.5882C45.4883 17.0873 44.2712 15.8702 42.7703 15.8702ZM30.6764 19.0484C24.251 19.0484 19.0426 24.2593 19.0426 30.6847C19.0426 37.1101 24.251 42.3184 30.6764 42.3184C37.1018 42.3184 42.3075 37.1101 42.3075 30.6847C42.3075 24.2593 37.1018 19.0484 30.6764 19.0484ZM30.6764 23.1317C40.6609 23.1317 40.6737 38.2377 30.6764 38.2377C20.6944 38.2377 20.679 23.1317 30.6764 23.1317Z" fill="white"/>
</g>
<defs>
<linearGradient id="paint0_linear_917_1145" x1="3.95231" y1="57.4453" x2="60.9843" y2="8.08472" gradientUnits="userSpaceOnUse">
<stop stop-color="#FFDD55"/>
<stop offset="0.5" stop-color="#FF543E"/>
<stop offset="1" stop-color="#C837AB"/>
</linearGradient>
<clipPath id="clip0_917_1145">
<rect width="61.3647" height="61.3647" fill="white"/>
</clipPath>
</defs>
</svg>
