<svg width="94" height="95" viewBox="0 0 94 95" fill="none" xmlns="http://www.w3.org/2000/svg">
<g clip-path="url(#clip0_680_3392)">
<path d="M64.8219 0V6.47101H68.0547V0H64.8219ZM61.5891 0V9.69275H64.8219V0H61.5891ZM58.3286 0V9.69275H61.5614V0H58.3286ZM55.0958 0V3.22174H58.3286V0H55.0958ZM48.6026 0V3.22174H51.8354V0H48.6026ZM51.863 3.22174V9.69275H55.0958V3.22174H51.863ZM38.9042 3.22174V12.9145H42.137V3.22174H38.9042ZM35.6437 3.22174V6.44348H38.8765V3.22174H35.6437ZM29.1781 3.22174V12.9145H32.4109V3.22174H29.1781ZM25.9177 3.22174V6.44348H29.1505V3.22174H25.9177ZM55.0958 6.47101V9.69275H58.3286V6.47101H55.0958ZM48.6026 6.47101V16.1638H51.8354V6.47101H48.6026ZM42.137 6.47101V9.69275H45.3698V6.47101H42.137ZM32.4109 6.47101V9.69275H35.6437V6.47101H32.4109ZM64.8219 9.69275V12.9145H68.0547V9.69275H64.8219ZM45.3698 9.69275V16.1638H48.6026V9.69275H45.3698ZM25.9177 9.69275V22.6072H29.1505V9.69275H25.9177ZM58.3286 12.9145V32.3H61.5614V12.9145H58.3286ZM55.0958 12.9145V19.3855H58.3286V12.9145H55.0958ZM42.137 12.9145V19.3855H45.3698V12.9145H42.137ZM32.4109 12.9145V16.1362H35.6437V12.9145H32.4109ZM61.5891 16.1362V19.358H64.8219V16.1362H61.5891ZM38.9042 16.1362V22.6072H42.137V16.1362H38.9042ZM29.1781 16.1362V19.358H32.4109V16.1362H29.1781ZM64.8219 19.3855V22.6072H68.0547V19.3855H64.8219ZM51.863 19.3855V22.6072H55.0958V19.3855H51.863ZM45.3698 19.3855V22.6072H48.6026V19.3855H45.3698ZM32.4109 19.3855V22.6072H35.6437V19.3855H32.4109ZM48.6026 22.6072V29.0783H51.8354V22.6072H48.6026ZM42.137 22.6072V29.0783H45.3698V22.6072H42.137ZM35.6437 22.6072V25.829H38.8765V22.6072H35.6437ZM29.1781 22.6072V25.829H32.4109V22.6072H29.1781ZM87.5068 25.829V29.0507H90.7396V25.829H87.5068ZM81.0135 25.829V29.0507H84.2463V25.829H81.0135ZM77.7807 25.829V35.5217H81.0135V25.829H77.7807ZM74.5479 25.829V29.0507H77.7807V25.829H74.5479ZM68.0547 25.829V38.7435H71.2875V25.829H68.0547ZM55.0958 25.829V29.0507H58.3286V25.829H55.0958ZM51.863 25.829V35.5217H55.0958V25.829H51.863ZM38.9042 25.829V38.7435H42.137V25.829H38.9042ZM32.4109 25.829V29.0507H35.6437V25.829H32.4109ZM25.9177 25.829V29.0507H29.1505V25.829H25.9177ZM22.6849 25.829V35.5217H25.9177V25.829H22.6849ZM19.4521 25.829V29.0507H22.6849V25.829H19.4521ZM12.9588 25.829V35.5217H16.1917V25.829H12.9588ZM9.72604 25.829V32.3H12.9588V25.829H9.72604ZM3.2328 25.829V29.0507H6.46561V25.829H3.2328ZM71.3151 29.0783V32.3H74.5479V29.0783H71.3151ZM64.8219 29.0783V58.1565H68.0547V29.0783H64.8219ZM61.5891 29.0783V32.3H64.8219V29.0783H61.5891ZM45.3698 29.0783V35.5493H48.6026V29.0783H45.3698ZM29.1781 29.0783V35.5493H32.4109V29.0783H29.1781ZM81.0135 32.3V38.771H84.2463V32.3H81.0135ZM55.0958 32.3V38.771H58.3286V32.3H55.0958ZM35.6437 32.3V35.5217H38.8765V32.3H35.6437ZM32.4109 32.3V38.771H35.6437V32.3H32.4109ZM25.9177 32.3V38.771H29.1505V32.3H25.9177ZM19.4521 32.3V35.5217H22.6849V32.3H19.4521ZM0 32.3V38.771H3.2328V32.3H0ZM87.5068 35.5217V38.7435H90.7396V35.5217H87.5068ZM71.3151 35.5217V38.7435H74.5479V35.5217H71.3151ZM58.3286 35.5217V38.7435H61.5614V35.5217H58.3286ZM42.137 35.5217V38.7435H45.3698V35.5217H42.137ZM84.2739 38.771V41.9928H87.5068V38.771H84.2739ZM77.7807 38.771V45.242H81.0135V38.771H77.7807ZM74.5479 38.771V45.242H77.7807V38.771H74.5479ZM61.5891 38.771V41.9928H64.8219V38.771H61.5891ZM45.3698 38.771V41.9928H48.6026V38.771H45.3698ZM29.1781 38.771V45.242H32.4109V38.771H29.1781ZM22.6849 38.771V41.9928H25.9177V38.771H22.6849ZM19.4521 38.771V41.9928H22.6849V38.771H19.4521ZM16.1917 38.771V45.242H19.4245V38.771H16.1917ZM90.7396 41.9928V48.4638H93.9724V41.9928H90.7396ZM68.0547 41.9928V45.2145H71.2875V41.9928H68.0547ZM55.0958 41.9928V48.4638H58.3286V41.9928H55.0958ZM48.6026 41.9928V51.6855H51.8354V41.9928H48.6026ZM42.137 41.9928V45.2145H45.3698V41.9928H42.137ZM38.9042 41.9928V45.2145H42.137V41.9928H38.9042ZM35.6437 41.9928V45.2145H38.8765V41.9928H35.6437ZM32.4109 41.9928V45.2145H35.6437V41.9928H32.4109ZM12.9588 41.9928V51.6855H16.1917V41.9928H12.9588ZM3.2328 41.9928V45.2145H6.46561V41.9928H3.2328ZM0 41.9928V45.2145H3.2328V41.9928H0ZM84.2739 45.2145V48.4362H87.5068V45.2145H84.2739ZM81.0135 45.2145V48.4362H84.2463V45.2145H81.0135ZM71.3151 45.2145V67.8217H74.5479V45.2145H71.3151ZM51.863 45.2145V58.129H55.0958V45.2145H51.863ZM25.9177 45.2145V48.4362H29.1505V45.2145H25.9177ZM22.6849 45.2145V54.9072H25.9177V45.2145H22.6849ZM19.4521 45.2145V48.4362H22.6849V45.2145H19.4521ZM6.49324 45.2145V48.4362H9.72604V45.2145H6.49324ZM87.5068 48.4362V51.658H90.7396V48.4362H87.5068ZM74.5479 48.4362V51.658H77.7807V48.4362H74.5479ZM68.0547 48.4362V54.9072H71.2875V48.4362H68.0547ZM58.3286 48.4362V51.658H61.5614V48.4362H58.3286ZM42.137 48.4362V51.658H45.3698V48.4362H42.137ZM35.6437 48.4362V51.658H38.8765V48.4362H35.6437ZM29.1781 48.4362V51.658H32.4109V48.4362H29.1781ZM9.72604 48.4362V58.129H12.9588V48.4362H9.72604ZM84.2739 51.6855V54.9072H87.5068V51.6855H84.2739ZM81.0135 51.6855V58.1565H84.2463V51.6855H81.0135ZM77.7807 51.6855V80.7638H81.0135V51.6855H77.7807ZM55.0958 51.6855V54.9072H58.3286V51.6855H55.0958ZM45.3698 51.6855V58.1565H48.6026V51.6855H45.3698ZM32.4109 51.6855V61.3783H35.6437V51.6855H32.4109ZM19.4521 51.6855V54.9072H22.6849V51.6855H19.4521ZM16.1917 51.6855V61.3783H19.4245V51.6855H16.1917ZM6.49324 51.6855V54.9072H9.72604V51.6855H6.49324ZM3.2328 51.6855V58.1565H6.46561V51.6855H3.2328ZM0 51.6855V64.6H3.2328V51.6855H0ZM74.5479 54.9072V58.129H77.7807V54.9072H74.5479ZM48.6026 54.9072V61.3783H51.8354V54.9072H48.6026ZM42.137 54.9072V61.3783H45.3698V54.9072H42.137ZM35.6437 54.9072V58.129H38.8765V54.9072H35.6437ZM29.1781 54.9072V58.129H32.4109V54.9072H29.1781ZM12.9588 54.9072V58.129H16.1917V54.9072H12.9588ZM84.2739 58.129V61.3507H87.5068V58.129H84.2739ZM68.0547 58.129V67.8217H71.2875V58.129H68.0547ZM61.5891 58.129V61.3507H64.8219V58.129H61.5891ZM55.0958 58.129V74.2652H58.3286V58.129H55.0958ZM38.9042 58.129V64.6H42.137V58.129H38.9042ZM25.9177 58.129V64.6H29.1505V58.129H25.9177ZM19.4521 58.129V61.3507H22.6849V58.129H19.4521ZM6.49324 58.129V61.3507H9.72604V58.129H6.49324ZM90.7396 61.3783V87.2072H93.9724V61.3783H90.7396ZM87.5068 61.3783V64.6H90.7396V61.3783H87.5068ZM74.5479 61.3783V67.8493H77.7807V61.3783H74.5479ZM58.3286 61.3783V67.8493H61.5614V61.3783H58.3286ZM45.3698 61.3783V67.8493H48.6026V61.3783H45.3698ZM12.9588 61.3783V64.6H16.1917V61.3783H12.9588ZM9.72604 61.3783V67.8493H12.9588V61.3783H9.72604ZM84.2739 64.6V71.071H87.5068V64.6H84.2739ZM64.8219 64.6V83.9855H68.0547V64.6H64.8219ZM61.5891 64.6V80.7362H64.8219V64.6H61.5891ZM51.863 64.6V67.8217H55.0958V64.6H51.863ZM48.6026 64.6V67.8217H51.8354V64.6H48.6026ZM35.6437 64.6V67.8217H38.8765V64.6H35.6437ZM32.4109 64.6V74.2928H35.6437V64.6H32.4109ZM29.1781 64.6V67.8217H32.4109V64.6H29.1781ZM22.6849 64.6V67.8217H25.9177V64.6H22.6849ZM19.4521 64.6V67.8217H22.6849V64.6H19.4521ZM6.49324 64.6V67.8217H9.72604V64.6H6.49324ZM3.2328 64.6V67.8217H6.46561V64.6H3.2328ZM38.9042 67.8217V74.2928H42.137V67.8217H38.9042ZM25.9177 67.8217V74.2928H29.1505V67.8217H25.9177ZM71.3151 71.071V74.2928H74.5479V71.071H71.3151ZM45.3698 71.071V77.542H48.6026V71.071H45.3698ZM42.137 71.071V74.2928H45.3698V71.071H42.137ZM84.2739 74.2928V80.7638H87.5068V74.2928H84.2739ZM81.0135 74.2928V77.5145H84.2463V74.2928H81.0135ZM29.1781 74.2928V80.7638H32.4109V74.2928H29.1781ZM87.5068 77.5145V87.2072H90.7396V77.5145H87.5068ZM74.5479 77.5145V83.9855H77.7807V77.5145H74.5479ZM71.3151 77.5145V80.7362H74.5479V77.5145H71.3151ZM68.0547 77.5145V90.429H71.2875V77.5145H68.0547ZM58.3286 77.5145V83.9855H61.5614V77.5145H58.3286ZM55.0958 77.5145V80.7362H58.3286V77.5145H55.0958ZM51.863 77.5145V83.9855H55.0958V77.5145H51.863ZM48.6026 77.5145V87.2072H51.8354V77.5145H48.6026ZM42.137 77.5145V80.7362H45.3698V77.5145H42.137ZM35.6437 77.5145V83.9855H38.8765V77.5145H35.6437ZM25.9177 77.5145V83.9855H29.1505V77.5145H25.9177ZM45.3698 80.7362V83.958H48.6026V80.7362H45.3698ZM32.4109 80.7362V83.958H35.6437V80.7362H32.4109ZM84.2739 83.9855V93.6783H87.5068V83.9855H84.2739ZM81.0135 83.9855V90.4565H84.2463V83.9855H81.0135ZM71.3151 83.9855V90.4565H74.5479V83.9855H71.3151ZM61.5891 83.9855V87.2072H64.8219V83.9855H61.5891ZM55.0958 83.9855V87.2072H58.3286V83.9855H55.0958ZM42.137 83.9855V90.4565H45.3698V83.9855H42.137ZM38.9042 83.9855V90.4565H42.137V83.9855H38.9042ZM29.1781 83.9855V90.4565H32.4109V83.9855H29.1781ZM74.5479 87.2072V90.429H77.7807V87.2072H74.5479ZM64.8219 87.2072V90.429H68.0547V87.2072H64.8219ZM51.863 87.2072V90.429H55.0958V87.2072H51.863ZM25.9177 87.2072V90.429H29.1505V87.2072H25.9177ZM87.5068 90.429V93.6507H90.7396V90.429H87.5068ZM61.5891 90.429V93.6507H64.8219V90.429H61.5891ZM58.3286 90.429V93.6507H61.5614V90.429H58.3286ZM48.6026 90.429V93.6507H51.8354V90.429H48.6026ZM45.3698 90.429V93.6507H48.6026V90.429H45.3698ZM35.6437 90.429V93.6507H38.8765V90.429H35.6437Z" fill="#293476"/>
<mask id="mask0_680_3392" style="mask-type:luminance" maskUnits="userSpaceOnUse" x="0" y="0" width="94" height="94">
<path d="M64.8219 0V6.47101H68.0547V0H64.8219ZM61.5891 0V9.69275H64.8219V0H61.5891ZM58.3286 0V9.69275H61.5614V0H58.3286ZM55.0958 0V3.22174H58.3286V0H55.0958ZM48.6026 0V3.22174H51.8354V0H48.6026ZM51.863 3.22174V9.69275H55.0958V3.22174H51.863ZM38.9042 3.22174V12.9145H42.137V3.22174H38.9042ZM35.6437 3.22174V6.44348H38.8765V3.22174H35.6437ZM29.1781 3.22174V12.9145H32.4109V3.22174H29.1781ZM25.9177 3.22174V6.44348H29.1505V3.22174H25.9177ZM55.0958 6.47101V9.69275H58.3286V6.47101H55.0958ZM48.6026 6.47101V16.1638H51.8354V6.47101H48.6026ZM42.137 6.47101V9.69275H45.3698V6.47101H42.137ZM32.4109 6.47101V9.69275H35.6437V6.47101H32.4109ZM64.8219 9.69275V12.9145H68.0547V9.69275H64.8219ZM45.3698 9.69275V16.1638H48.6026V9.69275H45.3698ZM25.9177 9.69275V22.6072H29.1505V9.69275H25.9177ZM58.3286 12.9145V32.3H61.5614V12.9145H58.3286ZM55.0958 12.9145V19.3855H58.3286V12.9145H55.0958ZM42.137 12.9145V19.3855H45.3698V12.9145H42.137ZM32.4109 12.9145V16.1362H35.6437V12.9145H32.4109ZM61.5891 16.1362V19.358H64.8219V16.1362H61.5891ZM38.9042 16.1362V22.6072H42.137V16.1362H38.9042ZM29.1781 16.1362V19.358H32.4109V16.1362H29.1781ZM64.8219 19.3855V22.6072H68.0547V19.3855H64.8219ZM51.863 19.3855V22.6072H55.0958V19.3855H51.863ZM45.3698 19.3855V22.6072H48.6026V19.3855H45.3698ZM32.4109 19.3855V22.6072H35.6437V19.3855H32.4109ZM48.6026 22.6072V29.0783H51.8354V22.6072H48.6026ZM42.137 22.6072V29.0783H45.3698V22.6072H42.137ZM35.6437 22.6072V25.829H38.8765V22.6072H35.6437ZM29.1781 22.6072V25.829H32.4109V22.6072H29.1781ZM87.5068 25.829V29.0507H90.7396V25.829H87.5068ZM81.0135 25.829V29.0507H84.2463V25.829H81.0135ZM77.7807 25.829V35.5217H81.0135V25.829H77.7807ZM74.5479 25.829V29.0507H77.7807V25.829H74.5479ZM68.0547 25.829V38.7435H71.2875V25.829H68.0547ZM55.0958 25.829V29.0507H58.3286V25.829H55.0958ZM51.863 25.829V35.5217H55.0958V25.829H51.863ZM38.9042 25.829V38.7435H42.137V25.829H38.9042ZM32.4109 25.829V29.0507H35.6437V25.829H32.4109ZM25.9177 25.829V29.0507H29.1505V25.829H25.9177ZM22.6849 25.829V35.5217H25.9177V25.829H22.6849ZM19.4521 25.829V29.0507H22.6849V25.829H19.4521ZM12.9588 25.829V35.5217H16.1917V25.829H12.9588ZM9.72604 25.829V32.3H12.9588V25.829H9.72604ZM3.2328 25.829V29.0507H6.46561V25.829H3.2328ZM71.3151 29.0783V32.3H74.5479V29.0783H71.3151ZM64.8219 29.0783V58.1565H68.0547V29.0783H64.8219ZM61.5891 29.0783V32.3H64.8219V29.0783H61.5891ZM45.3698 29.0783V35.5493H48.6026V29.0783H45.3698ZM29.1781 29.0783V35.5493H32.4109V29.0783H29.1781ZM81.0135 32.3V38.771H84.2463V32.3H81.0135ZM55.0958 32.3V38.771H58.3286V32.3H55.0958ZM35.6437 32.3V35.5217H38.8765V32.3H35.6437ZM32.4109 32.3V38.771H35.6437V32.3H32.4109ZM25.9177 32.3V38.771H29.1505V32.3H25.9177ZM19.4521 32.3V35.5217H22.6849V32.3H19.4521ZM0 32.3V38.771H3.2328V32.3H0ZM87.5068 35.5217V38.7435H90.7396V35.5217H87.5068ZM71.3151 35.5217V38.7435H74.5479V35.5217H71.3151ZM58.3286 35.5217V38.7435H61.5614V35.5217H58.3286ZM42.137 35.5217V38.7435H45.3698V35.5217H42.137ZM84.2739 38.771V41.9928H87.5068V38.771H84.2739ZM77.7807 38.771V45.242H81.0135V38.771H77.7807ZM74.5479 38.771V45.242H77.7807V38.771H74.5479ZM61.5891 38.771V41.9928H64.8219V38.771H61.5891ZM45.3698 38.771V41.9928H48.6026V38.771H45.3698ZM29.1781 38.771V45.242H32.4109V38.771H29.1781ZM22.6849 38.771V41.9928H25.9177V38.771H22.6849ZM19.4521 38.771V41.9928H22.6849V38.771H19.4521ZM16.1917 38.771V45.242H19.4245V38.771H16.1917ZM90.7396 41.9928V48.4638H93.9724V41.9928H90.7396ZM68.0547 41.9928V45.2145H71.2875V41.9928H68.0547ZM55.0958 41.9928V48.4638H58.3286V41.9928H55.0958ZM48.6026 41.9928V51.6855H51.8354V41.9928H48.6026ZM42.137 41.9928V45.2145H45.3698V41.9928H42.137ZM38.9042 41.9928V45.2145H42.137V41.9928H38.9042ZM35.6437 41.9928V45.2145H38.8765V41.9928H35.6437ZM32.4109 41.9928V45.2145H35.6437V41.9928H32.4109ZM12.9588 41.9928V51.6855H16.1917V41.9928H12.9588ZM3.2328 41.9928V45.2145H6.46561V41.9928H3.2328ZM0 41.9928V45.2145H3.2328V41.9928H0ZM84.2739 45.2145V48.4362H87.5068V45.2145H84.2739ZM81.0135 45.2145V48.4362H84.2463V45.2145H81.0135ZM71.3151 45.2145V67.8217H74.5479V45.2145H71.3151ZM51.863 45.2145V58.129H55.0958V45.2145H51.863ZM25.9177 45.2145V48.4362H29.1505V45.2145H25.9177ZM22.6849 45.2145V54.9072H25.9177V45.2145H22.6849ZM19.4521 45.2145V48.4362H22.6849V45.2145H19.4521ZM6.49324 45.2145V48.4362H9.72604V45.2145H6.49324ZM87.5068 48.4362V51.658H90.7396V48.4362H87.5068ZM74.5479 48.4362V51.658H77.7807V48.4362H74.5479ZM68.0547 48.4362V54.9072H71.2875V48.4362H68.0547ZM58.3286 48.4362V51.658H61.5614V48.4362H58.3286ZM42.137 48.4362V51.658H45.3698V48.4362H42.137ZM35.6437 48.4362V51.658H38.8765V48.4362H35.6437ZM29.1781 48.4362V51.658H32.4109V48.4362H29.1781ZM9.72604 48.4362V58.129H12.9588V48.4362H9.72604ZM84.2739 51.6855V54.9072H87.5068V51.6855H84.2739ZM81.0135 51.6855V58.1565H84.2463V51.6855H81.0135ZM77.7807 51.6855V80.7638H81.0135V51.6855H77.7807ZM55.0958 51.6855V54.9072H58.3286V51.6855H55.0958ZM45.3698 51.6855V58.1565H48.6026V51.6855H45.3698ZM32.4109 51.6855V61.3783H35.6437V51.6855H32.4109ZM19.4521 51.6855V54.9072H22.6849V51.6855H19.4521ZM16.1917 51.6855V61.3783H19.4245V51.6855H16.1917ZM6.49324 51.6855V54.9072H9.72604V51.6855H6.49324ZM3.2328 51.6855V58.1565H6.46561V51.6855H3.2328ZM0 51.6855V64.6H3.2328V51.6855H0ZM74.5479 54.9072V58.129H77.7807V54.9072H74.5479ZM48.6026 54.9072V61.3783H51.8354V54.9072H48.6026ZM42.137 54.9072V61.3783H45.3698V54.9072H42.137ZM35.6437 54.9072V58.129H38.8765V54.9072H35.6437ZM29.1781 54.9072V58.129H32.4109V54.9072H29.1781ZM12.9588 54.9072V58.129H16.1917V54.9072H12.9588ZM84.2739 58.129V61.3507H87.5068V58.129H84.2739ZM68.0547 58.129V67.8217H71.2875V58.129H68.0547ZM61.5891 58.129V61.3507H64.8219V58.129H61.5891ZM55.0958 58.129V74.2652H58.3286V58.129H55.0958ZM38.9042 58.129V64.6H42.137V58.129H38.9042ZM25.9177 58.129V64.6H29.1505V58.129H25.9177ZM19.4521 58.129V61.3507H22.6849V58.129H19.4521ZM6.49324 58.129V61.3507H9.72604V58.129H6.49324ZM90.7396 61.3783V87.2072H93.9724V61.3783H90.7396ZM87.5068 61.3783V64.6H90.7396V61.3783H87.5068ZM74.5479 61.3783V67.8493H77.7807V61.3783H74.5479ZM58.3286 61.3783V67.8493H61.5614V61.3783H58.3286ZM45.3698 61.3783V67.8493H48.6026V61.3783H45.3698ZM12.9588 61.3783V64.6H16.1917V61.3783H12.9588ZM9.72604 61.3783V67.8493H12.9588V61.3783H9.72604ZM84.2739 64.6V71.071H87.5068V64.6H84.2739ZM64.8219 64.6V83.9855H68.0547V64.6H64.8219ZM61.5891 64.6V80.7362H64.8219V64.6H61.5891ZM51.863 64.6V67.8217H55.0958V64.6H51.863ZM48.6026 64.6V67.8217H51.8354V64.6H48.6026ZM35.6437 64.6V67.8217H38.8765V64.6H35.6437ZM32.4109 64.6V74.2928H35.6437V64.6H32.4109ZM29.1781 64.6V67.8217H32.4109V64.6H29.1781ZM22.6849 64.6V67.8217H25.9177V64.6H22.6849ZM19.4521 64.6V67.8217H22.6849V64.6H19.4521ZM6.49324 64.6V67.8217H9.72604V64.6H6.49324ZM3.2328 64.6V67.8217H6.46561V64.6H3.2328ZM38.9042 67.8217V74.2928H42.137V67.8217H38.9042ZM25.9177 67.8217V74.2928H29.1505V67.8217H25.9177ZM71.3151 71.071V74.2928H74.5479V71.071H71.3151ZM45.3698 71.071V77.542H48.6026V71.071H45.3698ZM42.137 71.071V74.2928H45.3698V71.071H42.137ZM84.2739 74.2928V80.7638H87.5068V74.2928H84.2739ZM81.0135 74.2928V77.5145H84.2463V74.2928H81.0135ZM29.1781 74.2928V80.7638H32.4109V74.2928H29.1781ZM87.5068 77.5145V87.2072H90.7396V77.5145H87.5068ZM74.5479 77.5145V83.9855H77.7807V77.5145H74.5479ZM71.3151 77.5145V80.7362H74.5479V77.5145H71.3151ZM68.0547 77.5145V90.429H71.2875V77.5145H68.0547ZM58.3286 77.5145V83.9855H61.5614V77.5145H58.3286ZM55.0958 77.5145V80.7362H58.3286V77.5145H55.0958ZM51.863 77.5145V83.9855H55.0958V77.5145H51.863ZM48.6026 77.5145V87.2072H51.8354V77.5145H48.6026ZM42.137 77.5145V80.7362H45.3698V77.5145H42.137ZM35.6437 77.5145V83.9855H38.8765V77.5145H35.6437ZM25.9177 77.5145V83.9855H29.1505V77.5145H25.9177ZM45.3698 80.7362V83.958H48.6026V80.7362H45.3698ZM32.4109 80.7362V83.958H35.6437V80.7362H32.4109ZM84.2739 83.9855V93.6783H87.5068V83.9855H84.2739ZM81.0135 83.9855V90.4565H84.2463V83.9855H81.0135ZM71.3151 83.9855V90.4565H74.5479V83.9855H71.3151ZM61.5891 83.9855V87.2072H64.8219V83.9855H61.5891ZM55.0958 83.9855V87.2072H58.3286V83.9855H55.0958ZM42.137 83.9855V90.4565H45.3698V83.9855H42.137ZM38.9042 83.9855V90.4565H42.137V83.9855H38.9042ZM29.1781 83.9855V90.4565H32.4109V83.9855H29.1781ZM74.5479 87.2072V90.429H77.7807V87.2072H74.5479ZM64.8219 87.2072V90.429H68.0547V87.2072H64.8219ZM51.863 87.2072V90.429H55.0958V87.2072H51.863ZM25.9177 87.2072V90.429H29.1505V87.2072H25.9177ZM87.5068 90.429V93.6507H90.7396V90.429H87.5068ZM61.5891 90.429V93.6507H64.8219V90.429H61.5891ZM58.3286 90.429V93.6507H61.5614V90.429H58.3286ZM48.6026 90.429V93.6507H51.8354V90.429H48.6026ZM45.3698 90.429V93.6507H48.6026V90.429H45.3698ZM35.6437 90.429V93.6507H38.8765V90.429H35.6437Z" fill="white"/>
</mask>
<g mask="url(#mask0_680_3392)">
<path d="M94 0H0V93.6783H94V0Z" fill="#293476"/>
</g>
<path d="M19.4521 1.34912V23.9564H22.6849V1.34912H19.4521ZM16.1917 1.34912V4.57086H19.4245V1.34912H16.1917ZM12.9588 1.34912V4.57086H16.1917V1.34912H12.9588ZM9.72604 1.34912V4.57086H12.9588V1.34912H9.72604ZM6.49324 1.34912V4.57086H9.72604V1.34912H6.49324ZM3.2328 1.34912V4.57086H6.46561V1.34912H3.2328ZM0 1.34912V23.9564H3.2328V1.34912H0ZM16.1917 20.7071V23.9288H19.4245V20.7071H16.1917ZM12.9588 20.7071V23.9288H16.1917V20.7071H12.9588ZM9.72604 20.7071V23.9288H12.9588V20.7071H9.72604ZM6.49324 20.7071V23.9288H9.72604V20.7071H6.49324ZM3.2328 20.7071V23.9288H6.46561V20.7071H3.2328Z" fill="#293476"/>
<mask id="mask1_680_3392" style="mask-type:luminance" maskUnits="userSpaceOnUse" x="0" y="1" width="23" height="23">
<path d="M19.4521 1.34912V23.9564H22.6849V1.34912H19.4521ZM16.1917 1.34912V4.57086H19.4245V1.34912H16.1917ZM12.9588 1.34912V4.57086H16.1917V1.34912H12.9588ZM9.72604 1.34912V4.57086H12.9588V1.34912H9.72604ZM6.49324 1.34912V4.57086H9.72604V1.34912H6.49324ZM3.2328 1.34912V4.57086H6.46561V1.34912H3.2328ZM0 1.34912V23.9564H3.2328V1.34912H0ZM16.1917 20.7071V23.9288H19.4245V20.7071H16.1917ZM12.9588 20.7071V23.9288H16.1917V20.7071H12.9588ZM9.72604 20.7071V23.9288H12.9588V20.7071H9.72604ZM6.49324 20.7071V23.9288H9.72604V20.7071H6.49324ZM3.2328 20.7071V23.9288H6.46561V20.7071H3.2328Z" fill="white"/>
</mask>
<g mask="url(#mask1_680_3392)">
<path d="M22.6849 1.34912H0V23.9564H22.6849V1.34912Z" fill="#293476"/>
</g>
<path d="M12.9597 7.79297V17.4857H16.1926V7.79297H12.9597ZM9.72694 7.79297V17.4857H12.9597V7.79297H9.72694ZM6.49414 7.79297V17.4857H9.72694V7.79297H6.49414Z" fill="#293476"/>
<mask id="mask2_680_3392" style="mask-type:luminance" maskUnits="userSpaceOnUse" x="6" y="7" width="11" height="11">
<path d="M12.9597 7.79297V17.4857H16.1926V7.79297H12.9597ZM9.72694 7.79297V17.4857H12.9597V7.79297H9.72694ZM6.49414 7.79297V17.4857H9.72694V7.79297H6.49414Z" fill="white"/>
</mask>
<g mask="url(#mask2_680_3392)">
<path d="M16.2202 7.79297H6.49414V17.4857H16.2202V7.79297Z" fill="#293476"/>
</g>
<path d="M90.7389 1.34912V23.9564H93.9717V1.34912H90.7389ZM87.5061 1.34912V4.57086H90.7389V1.34912H87.5061ZM84.2733 1.34912V4.57086H87.5061V1.34912H84.2733ZM81.0129 1.34912V4.57086H84.2457V1.34912H81.0129ZM77.7801 1.34912V4.57086H81.0129V1.34912H77.7801ZM74.5473 1.34912V4.57086H77.7801V1.34912H74.5473ZM71.3145 1.34912V23.9564H74.5473V1.34912H71.3145ZM87.5061 20.7071V23.9288H90.7389V20.7071H87.5061ZM84.2733 20.7071V23.9288H87.5061V20.7071H84.2733ZM81.0129 20.7071V23.9288H84.2457V20.7071H81.0129ZM77.7801 20.7071V23.9288H81.0129V20.7071H77.7801ZM74.5473 20.7071V23.9288H77.7801V20.7071H74.5473Z" fill="#293476"/>
<mask id="mask3_680_3392" style="mask-type:luminance" maskUnits="userSpaceOnUse" x="71" y="1" width="23" height="23">
<path d="M90.7389 1.34912V23.9564H93.9717V1.34912H90.7389ZM87.5061 1.34912V4.57086H90.7389V1.34912H87.5061ZM84.2733 1.34912V4.57086H87.5061V1.34912H84.2733ZM81.0129 1.34912V4.57086H84.2457V1.34912H81.0129ZM77.7801 1.34912V4.57086H81.0129V1.34912H77.7801ZM74.5473 1.34912V4.57086H77.7801V1.34912H74.5473ZM71.3145 1.34912V23.9564H74.5473V1.34912H71.3145ZM87.5061 20.7071V23.9288H90.7389V20.7071H87.5061ZM84.2733 20.7071V23.9288H87.5061V20.7071H84.2733ZM81.0129 20.7071V23.9288H84.2457V20.7071H81.0129ZM77.7801 20.7071V23.9288H81.0129V20.7071H77.7801ZM74.5473 20.7071V23.9288H77.7801V20.7071H74.5473Z" fill="white"/>
</mask>
<g mask="url(#mask3_680_3392)">
<path d="M93.9993 1.34912H71.3145V23.9564H93.9993V1.34912Z" fill="#293476"/>
</g>
<path d="M84.2745 7.79297V17.4857H87.5073V7.79297H84.2745ZM81.0141 7.79297V17.4857H84.2469V7.79297H81.0141ZM77.7812 7.79297V17.4857H81.0141V7.79297H77.7812Z" fill="#293476"/>
<mask id="mask4_680_3392" style="mask-type:luminance" maskUnits="userSpaceOnUse" x="77" y="7" width="11" height="11">
<path d="M84.2745 7.79297V17.4857H87.5073V7.79297H84.2745ZM81.0141 7.79297V17.4857H84.2469V7.79297H81.0141ZM77.7812 7.79297V17.4857H81.0141V7.79297H77.7812Z" fill="white"/>
</mask>
<g mask="url(#mask4_680_3392)">
<path d="M87.5073 7.79297H77.7812V17.4857H87.5073V7.79297Z" fill="#293476"/>
</g>
<path d="M19.4521 72.3926V94.9998H22.6849V72.3926H19.4521ZM16.1917 72.3926V75.6143H19.4245V72.3926H16.1917ZM12.9588 72.3926V75.6143H16.1917V72.3926H12.9588ZM9.72604 72.3926V75.6143H12.9588V72.3926H9.72604ZM6.49324 72.3926V75.6143H9.72604V72.3926H6.49324ZM3.2328 72.3926V75.6143H6.46561V72.3926H3.2328ZM0 72.3926V94.9998H3.2328V72.3926H0ZM16.1917 91.7781V94.9998H19.4245V91.7781H16.1917ZM12.9588 91.7781V94.9998H16.1917V91.7781H12.9588ZM9.72604 91.7781V94.9998H12.9588V91.7781H9.72604ZM6.49324 91.7781V94.9998H9.72604V91.7781H6.49324ZM3.2328 91.7781V94.9998H6.46561V91.7781H3.2328Z" fill="#293476"/>
<mask id="mask5_680_3392" style="mask-type:luminance" maskUnits="userSpaceOnUse" x="0" y="72" width="23" height="23">
<path d="M19.4521 72.3926V94.9998H22.6849V72.3926H19.4521ZM16.1917 72.3926V75.6143H19.4245V72.3926H16.1917ZM12.9588 72.3926V75.6143H16.1917V72.3926H12.9588ZM9.72604 72.3926V75.6143H12.9588V72.3926H9.72604ZM6.49324 72.3926V75.6143H9.72604V72.3926H6.49324ZM3.2328 72.3926V75.6143H6.46561V72.3926H3.2328ZM0 72.3926V94.9998H3.2328V72.3926H0ZM16.1917 91.7781V94.9998H19.4245V91.7781H16.1917ZM12.9588 91.7781V94.9998H16.1917V91.7781H12.9588ZM9.72604 91.7781V94.9998H12.9588V91.7781H9.72604ZM6.49324 91.7781V94.9998H9.72604V91.7781H6.49324ZM3.2328 91.7781V94.9998H6.46561V91.7781H3.2328Z" fill="white"/>
</mask>
<g mask="url(#mask5_680_3392)">
<path d="M22.6849 72.3926H0V94.9998H22.6849V72.3926Z" fill="#293476"/>
</g>
<path d="M12.9597 78.8638V88.5565H16.1926V78.8638H12.9597ZM9.72694 78.8638V88.5565H12.9597V78.8638H9.72694ZM6.49414 78.8638V88.5565H9.72694V78.8638H6.49414Z" fill="#293476"/>
<mask id="mask6_680_3392" style="mask-type:luminance" maskUnits="userSpaceOnUse" x="6" y="78" width="11" height="11">
<path d="M12.9597 78.8638V88.5565H16.1926V78.8638H12.9597ZM9.72694 78.8638V88.5565H12.9597V78.8638H9.72694ZM6.49414 78.8638V88.5565H9.72694V78.8638H6.49414Z" fill="white"/>
</mask>
<g mask="url(#mask6_680_3392)">
<path d="M16.2202 78.8638H6.49414V88.5565H16.2202V78.8638Z" fill="#293476"/>
</g>
</g>
<defs>
<clipPath id="clip0_680_3392">
<rect width="94" height="95" fill="white"/>
</clipPath>
</defs>
</svg>
