<svg width="68" height="79" viewBox="0 0 68 79" fill="none" xmlns="http://www.w3.org/2000/svg">
<path d="M15.805 12.5238V15.0872H3.50206V12.5238C3.50206 12.5238 -5.0888 3.27506 8.48167 2.34252C8.48167 2.34252 9.25035 -2.82581 11.2937 2.19124C11.2937 2.19124 25.8884 2.63264 15.804 12.5227M4.60468 9.33033C3.2455 6.9161 5.07302 4.40965 5.07302 4.40965C-0.412595 6.08511 4.60468 9.33241 4.60468 9.33241M8.90623 4.50912C2.98791 8.04861 8.94899 9.67434 8.94899 9.67434V4.65625L8.90623 4.50808V4.50912ZM14.5517 4.40965C14.5517 4.40965 16.3853 6.91817 15.021 9.33241C15.021 9.33241 20.0393 6.08511 14.5517 4.40965ZM10.6777 4.65729V9.67434C10.6777 9.67434 16.6388 8.04861 10.7236 4.50912L10.6777 4.65729ZM14.3189 10.8133H4.96747V11.8006H14.321L14.3189 10.8133ZM14.321 12.7879H4.96747V13.7752H14.321V12.7879Z" fill="#452667"/>
<path d="M0.884766 22.2502C0.884766 22.2502 10.5986 18.5947 10.5986 30.7353V60.162H24.3717V23.5578H29.7891C29.7891 23.5578 32.8445 23.1641 32.9534 27.9957V60.162H46.8436V24.4696C46.8436 24.4696 52.1469 21.8596 53.6202 25.253V60.162H66.7193V23.6863C66.7193 23.6863 67.1662 18.0714 61.4108 18.462H48.0847V19.6422C48.0847 19.6422 48.3086 22.6439 44.0244 18.9884H25.7278C25.7278 18.9884 24.9368 22.3818 21.8895 19.6422C21.8895 19.6422 10.9366 17.1565 0.884766 18.8558V22.2512V22.2502Z" fill="#452667"/>
<path d="M19.1621 73.9592V67H21.1146L23.241 73.7079H22.5547L24.6812 67H26.6433V73.9592H25.4061V67.4156H25.6091L23.5406 73.9592H22.1971L20.148 67.4736H20.3413V73.9592H19.1621Z" fill="#452667"/>
<path d="M31.0647 73.9592C31.0325 73.8304 31.0067 73.6886 30.9874 73.5339C30.9745 73.3793 30.968 73.1924 30.968 72.9733H30.9294V70.6343C30.9294 70.3765 30.8553 70.1832 30.7071 70.0543C30.5653 69.919 30.3462 69.8514 30.0498 69.8514C29.7598 69.8514 29.5279 69.9061 29.3539 70.0157C29.1863 70.1188 29.0832 70.2702 29.0446 70.47H27.875C27.9266 70.0124 28.1457 69.6419 28.5323 69.3584C28.9189 69.0749 29.4376 68.9331 30.0885 68.9331C30.7651 68.9331 31.2773 69.0878 31.6253 69.3971C31.9733 69.6999 32.1472 70.1478 32.1472 70.7406V72.9733C32.1472 73.128 32.1569 73.2859 32.1762 73.447C32.202 73.608 32.2375 73.7788 32.2826 73.9592H31.0647ZM29.3539 74.0559C28.8577 74.0559 28.4614 73.9335 28.165 73.6886C27.875 73.4373 27.7301 73.1022 27.7301 72.6834C27.7301 72.2323 27.8944 71.8747 28.223 71.6105C28.5516 71.3463 29.0156 71.1691 29.6149 71.0789L31.1517 70.8469V71.6202L29.8178 71.8231C29.5279 71.8682 29.3088 71.9488 29.1606 72.0648C29.0188 72.1808 28.9479 72.3419 28.9479 72.5481C28.9479 72.7349 29.0156 72.8799 29.1509 72.983C29.2862 73.0797 29.4731 73.128 29.7115 73.128C30.0595 73.128 30.3494 73.041 30.5814 72.867C30.8134 72.693 30.9294 72.4804 30.9294 72.2291L31.0647 72.9733C30.9358 73.3277 30.7232 73.5984 30.4268 73.7853C30.1368 73.9657 29.7792 74.0559 29.3539 74.0559Z" fill="#452667"/>
<path d="M33.4774 73.9592V69.0298H34.6663V70.2186H34.6953V73.9592H33.4774ZM34.6953 71.3882L34.5696 70.2186C34.6856 69.7998 34.8821 69.4808 35.1592 69.2618C35.4363 69.0427 35.7681 68.9331 36.1548 68.9331C36.2901 68.9331 36.3867 68.946 36.4447 68.9718V70.122C36.4125 70.1091 36.3674 70.1027 36.3094 70.1027C36.2514 70.0962 36.1805 70.093 36.0968 70.093C35.6264 70.093 35.2752 70.1961 35.0432 70.4023C34.8112 70.6085 34.6953 70.9371 34.6953 71.3882Z" fill="#452667"/>
<path d="M37.3402 73.9592V67H38.5581V73.9592H37.3402ZM40.8005 73.9592V70.8469C40.8005 70.5441 40.7232 70.3153 40.5685 70.1607C40.4139 70.006 40.1884 69.9287 39.892 69.9287C39.6342 69.9287 39.4022 69.9867 39.196 70.1027C38.9963 70.2186 38.8384 70.3797 38.7224 70.5859C38.6129 70.7921 38.5581 71.0306 38.5581 71.3012L38.4324 70.122C38.6 69.7611 38.8448 69.4744 39.167 69.2618C39.4892 69.0427 39.8758 68.9331 40.3269 68.9331C40.8617 68.9331 41.2774 69.0845 41.5738 69.3874C41.8766 69.6903 42.0281 70.093 42.0281 70.5956V73.9592H40.8005Z" fill="#452667"/>
<path d="M46.3345 73.9592C46.3022 73.8304 46.2765 73.6886 46.2571 73.5339C46.2442 73.3793 46.2378 73.1924 46.2378 72.9733H46.1991V70.6343C46.1991 70.3765 46.125 70.1832 45.9768 70.0543C45.8351 69.919 45.616 69.8514 45.3196 69.8514C45.0296 69.8514 44.7976 69.9061 44.6236 70.0157C44.4561 70.1188 44.353 70.2702 44.3143 70.47H43.1448C43.1964 70.0124 43.4154 69.6419 43.8021 69.3584C44.1887 69.0749 44.7074 68.9331 45.3582 68.9331C46.0348 68.9331 46.5471 69.0878 46.8951 69.3971C47.243 69.6999 47.417 70.1478 47.417 70.7406V72.9733C47.417 73.128 47.4267 73.2859 47.446 73.447C47.4718 73.608 47.5072 73.7788 47.5523 73.9592H46.3345ZM44.6236 74.0559C44.1275 74.0559 43.7312 73.9335 43.4348 73.6886C43.1448 73.4373 42.9998 73.1022 42.9998 72.6834C42.9998 72.2323 43.1641 71.8747 43.4928 71.6105C43.8214 71.3463 44.2853 71.1691 44.8846 71.0789L46.4214 70.8469V71.6202L45.0876 71.8231C44.7976 71.8682 44.5785 71.9488 44.4303 72.0648C44.2886 72.1808 44.2177 72.3419 44.2177 72.5481C44.2177 72.7349 44.2853 72.8799 44.4207 72.983C44.556 73.0797 44.7429 73.128 44.9813 73.128C45.3292 73.128 45.6192 73.041 45.8512 72.867C46.0831 72.693 46.1991 72.4804 46.1991 72.2291L46.3345 72.9733C46.2056 73.3277 45.9929 73.5984 45.6965 73.7853C45.4066 73.9657 45.0489 74.0559 44.6236 74.0559Z" fill="#452667"/>
<path d="M51.5598 74.0559C51.0895 74.0559 50.7028 73.9463 50.4 73.7273C50.1036 73.5017 49.9199 73.1924 49.849 72.7994L49.936 72.7897V73.9592H48.7472V67H49.965V70.1413L49.878 70.122C49.9618 69.7547 50.1583 69.4647 50.4676 69.2521C50.7834 69.0394 51.1732 68.9331 51.6372 68.9331C52.0753 68.9331 52.4555 69.0394 52.7777 69.2521C53.1063 69.4583 53.3609 69.7515 53.5413 70.1317C53.7217 70.5118 53.8119 70.9597 53.8119 71.4752C53.8119 71.9971 53.7185 72.4514 53.5316 72.838C53.3448 73.2246 53.0838 73.5243 52.7487 73.7369C52.4136 73.9496 52.0173 74.0559 51.5598 74.0559ZM51.2505 73.0507C51.6436 73.0507 51.9561 72.9153 52.1881 72.6447C52.4201 72.3676 52.5361 71.981 52.5361 71.4848C52.5361 70.9887 52.4169 70.6053 52.1784 70.3346C51.9465 70.064 51.6339 69.9287 51.2409 69.9287C50.8543 69.9287 50.5417 70.0672 50.3033 70.3443C50.0649 70.6149 49.9457 70.9983 49.9457 71.4945C49.9457 71.9907 50.0649 72.3741 50.3033 72.6447C50.5417 72.9153 50.8575 73.0507 51.2505 73.0507Z" fill="#452667"/>
<path d="M57.9113 73.9592C57.8791 73.8304 57.8533 73.6886 57.834 73.5339C57.8211 73.3793 57.8146 73.1924 57.8146 72.9733H57.776V70.6343C57.776 70.3765 57.7019 70.1832 57.5536 70.0543C57.4119 69.919 57.1928 69.8514 56.8964 69.8514C56.6064 69.8514 56.3744 69.9061 56.2005 70.0157C56.0329 70.1188 55.9298 70.2702 55.8912 70.47H54.7216C54.7732 70.0124 54.9923 69.6419 55.3789 69.3584C55.7655 69.0749 56.2842 68.9331 56.9351 68.9331C57.6116 68.9331 58.1239 69.0878 58.4719 69.3971C58.8198 69.6999 58.9938 70.1478 58.9938 70.7406V72.9733C58.9938 73.128 59.0035 73.2859 59.0228 73.447C59.0486 73.608 59.084 73.7788 59.1291 73.9592H57.9113ZM56.2005 74.0559C55.7043 74.0559 55.308 73.9335 55.0116 73.6886C54.7216 73.4373 54.5766 73.1022 54.5766 72.6834C54.5766 72.2323 54.741 71.8747 55.0696 71.6105C55.3982 71.3463 55.8622 71.1691 56.4614 71.0789L57.9983 70.8469V71.6202L56.6644 71.8231C56.3744 71.8682 56.1554 71.9488 56.0072 72.0648C55.8654 72.1808 55.7945 72.3419 55.7945 72.5481C55.7945 72.7349 55.8622 72.8799 55.9975 72.983C56.1328 73.0797 56.3197 73.128 56.5581 73.128C56.9061 73.128 57.196 73.041 57.428 72.867C57.66 72.693 57.776 72.4804 57.776 72.2291L57.9113 72.9733C57.7824 73.3277 57.5698 73.5984 57.2733 73.7853C56.9834 73.9657 56.6257 74.0559 56.2005 74.0559Z" fill="#452667"/>
<path d="M67.1807 62.8901H10.1621V64.9241H67.1807V62.8901Z" fill="#452667"/>
<path d="M67.1797 76.6749H10.1621V78.7089H67.1797V76.6749Z" fill="#452667"/>
</svg>
