<svg width="34" height="34" viewBox="0 0 34 34" fill="none" xmlns="http://www.w3.org/2000/svg">
<g clip-path="url(#clip0_707_578)">
<path d="M16.9985 4.32518C18.9766 4.32518 20.6558 3.02322 21.2255 1.23145C20.206 1.40928 18.1705 1.7364 16.9985 1.7364C15.8264 1.7364 13.791 1.40928 12.7715 1.23145C13.3412 3.02329 15.0204 4.32518 16.9985 4.32518Z" fill="#452667"/>
<path d="M34 13.1057L28.3194 4.08371L23.4164 1.64753C22.6438 4.46581 20.0602 6.54293 17.0001 6.54293C13.9399 6.54293 11.3563 4.46574 10.5838 1.64746L5.68059 4.08371L0 13.1057L6.90691 17.0963L8.06995 15.8601L7.54348 31.6612L8.27814 31.945C8.49608 32.0293 10.5927 32.7682 16.9999 32.7682C23.4071 32.7682 25.5038 32.0293 25.7217 31.945L26.4564 31.6612L25.9299 15.8601L27.093 17.0963L34 13.1057ZM19.7114 19.774L17 18.4697L14.2886 19.774L14.694 16.7974L12.6109 14.625L15.5755 14.0893L17.0001 11.4453L18.4247 14.0893L21.3892 14.625L19.3062 16.7974L19.7114 19.774Z" fill="#452667"/>
</g>
<defs>
<clipPath id="clip0_707_578">
<rect width="34" height="34" fill="white"/>
</clipPath>
</defs>
</svg>
