<svg width="67" height="79" viewBox="0 0 67 79" fill="none" xmlns="http://www.w3.org/2000/svg">
<path d="M14.9847 12.5238V15.0872H2.68175V12.5238C2.68175 12.5238 -5.90912 3.27506 7.66136 2.34252C7.66136 2.34252 8.43004 -2.82581 10.4734 2.19124C10.4734 2.19124 25.0681 2.63264 14.9837 12.5227M3.78437 9.33033C2.42519 6.9161 4.2527 4.40965 4.2527 4.40965C-1.23291 6.08511 3.78437 9.33241 3.78437 9.33241M8.08591 4.50912C2.1676 8.04861 8.12868 9.67434 8.12868 9.67434V4.65625L8.08591 4.50808V4.50912ZM13.7314 4.40965C13.7314 4.40965 15.565 6.91817 14.2007 9.33241C14.2007 9.33241 19.219 6.08511 13.7314 4.40965ZM9.85744 4.65729V9.67434C9.85744 9.67434 15.8185 8.04861 9.90325 4.50912L9.85744 4.65729ZM13.4986 10.8133H4.14716V11.8006H13.5006L13.4986 10.8133ZM13.5006 12.7879H4.14716V13.7752H13.5006V12.7879Z" fill="#452667"/>
<path d="M0.064209 22.2503C0.064209 22.2503 9.77806 18.5948 9.77806 30.7354V60.1621H23.5511V23.558H28.9685C28.9685 23.558 32.0239 23.1642 32.1329 27.9958V60.1621H46.023V24.4698C46.023 24.4698 51.3264 21.8597 52.7996 25.2531V60.1621H65.8987V23.6864C65.8987 23.6864 66.3456 18.0715 60.5902 18.4622H47.2641V19.6423C47.2641 19.6423 47.4881 22.6441 43.2039 18.9885H24.9073C24.9073 18.9885 24.1162 22.3819 21.069 19.6423C21.069 19.6423 10.1161 17.1566 0.064209 18.8559V22.2514V22.2503Z" fill="#452667"/>
<path d="M18.342 73.9592V67H20.2945L22.4209 73.7079H21.7347L23.8611 67H25.8232V73.9592H24.586V67.4156H24.789L22.7206 73.9592H21.377L19.3279 67.4736H19.5212V73.9592H18.342Z" fill="#452667"/>
<path d="M30.2446 73.9592C30.2124 73.8304 30.1866 73.6886 30.1673 73.5339C30.1544 73.3793 30.148 73.1924 30.148 72.9733H30.1093V70.6343C30.1093 70.3765 30.0352 70.1832 29.887 70.0543C29.7452 69.919 29.5261 69.8514 29.2297 69.8514C28.9398 69.8514 28.7078 69.9061 28.5338 70.0157C28.3663 70.1188 28.2632 70.2702 28.2245 70.47H27.055C27.1065 70.0124 27.3256 69.6419 27.7122 69.3584C28.0989 69.0749 28.6176 68.9331 29.2684 68.9331C29.945 68.9331 30.4573 69.0878 30.8052 69.3971C31.1532 69.6999 31.3272 70.1478 31.3272 70.7406V72.9733C31.3272 73.128 31.3368 73.2859 31.3562 73.447C31.3819 73.608 31.4174 73.7788 31.4625 73.9592H30.2446ZM28.5338 74.0559C28.0376 74.0559 27.6414 73.9335 27.3449 73.6886C27.055 73.4373 26.91 73.1022 26.91 72.6834C26.91 72.2323 27.0743 71.8747 27.4029 71.6105C27.7316 71.3463 28.1955 71.1691 28.7948 71.0789L30.3316 70.8469V71.6202L28.9978 71.8231C28.7078 71.8682 28.4887 71.9488 28.3405 72.0648C28.1987 72.1808 28.1279 72.3419 28.1279 72.5481C28.1279 72.7349 28.1955 72.8799 28.3308 72.983C28.4662 73.0797 28.653 73.128 28.8914 73.128C29.2394 73.128 29.5294 73.041 29.7613 72.867C29.9933 72.693 30.1093 72.4804 30.1093 72.2291L30.2446 72.9733C30.1158 73.3277 29.9031 73.5984 29.6067 73.7853C29.3167 73.9657 28.9591 74.0559 28.5338 74.0559Z" fill="#452667"/>
<path d="M32.6573 73.9592V69.0298H33.8462V70.2186H33.8752V73.9592H32.6573ZM33.8752 71.3882L33.7495 70.2186C33.8655 69.7998 34.0621 69.4808 34.3391 69.2618C34.6162 69.0427 34.9481 68.9331 35.3347 68.9331C35.47 68.9331 35.5667 68.946 35.6247 68.9718V70.122C35.5924 70.1091 35.5473 70.1027 35.4893 70.1027C35.4314 70.0962 35.3605 70.093 35.2767 70.093C34.8063 70.093 34.4551 70.1961 34.2232 70.4023C33.9912 70.6085 33.8752 70.9371 33.8752 71.3882Z" fill="#452667"/>
<path d="M36.5202 73.9592V67H37.738V73.9592H36.5202ZM39.9804 73.9592V70.8469C39.9804 70.5441 39.9031 70.3153 39.7485 70.1607C39.5938 70.006 39.3683 69.9287 39.0719 69.9287C38.8141 69.9287 38.5822 69.9867 38.376 70.1027C38.1762 70.2186 38.0183 70.3797 37.9023 70.5859C37.7928 70.7921 37.738 71.0306 37.738 71.3012L37.6124 70.122C37.7799 69.7611 38.0248 69.4744 38.347 69.2618C38.6692 69.0427 39.0558 68.9331 39.5068 68.9331C40.0417 68.9331 40.4573 69.0845 40.7537 69.3874C41.0566 69.6903 41.208 70.093 41.208 70.5956V73.9592H39.9804Z" fill="#452667"/>
<path d="M45.5144 73.9592C45.4822 73.8304 45.4564 73.6886 45.4371 73.5339C45.4242 73.3793 45.4177 73.1924 45.4177 72.9733H45.3791V70.6343C45.3791 70.3765 45.305 70.1832 45.1568 70.0543C45.015 69.919 44.7959 69.8514 44.4995 69.8514C44.2095 69.8514 43.9776 69.9061 43.8036 70.0157C43.636 70.1188 43.5329 70.2702 43.4943 70.47H42.3247C42.3763 70.0124 42.5954 69.6419 42.982 69.3584C43.3686 69.0749 43.8873 68.9331 44.5382 68.9331C45.2148 68.9331 45.727 69.0878 46.075 69.3971C46.423 69.6999 46.5969 70.1478 46.5969 70.7406V72.9733C46.5969 73.128 46.6066 73.2859 46.6259 73.447C46.6517 73.608 46.6871 73.7788 46.7323 73.9592H45.5144ZM43.8036 74.0559C43.3074 74.0559 42.9111 73.9335 42.6147 73.6886C42.3247 73.4373 42.1798 73.1022 42.1798 72.6834C42.1798 72.2323 42.3441 71.8747 42.6727 71.6105C43.0013 71.3463 43.4653 71.1691 44.0645 71.0789L45.6014 70.8469V71.6202L44.2675 71.8231C43.9776 71.8682 43.7585 71.9488 43.6103 72.0648C43.4685 72.1808 43.3976 72.3419 43.3976 72.5481C43.3976 72.7349 43.4653 72.8799 43.6006 72.983C43.7359 73.0797 43.9228 73.128 44.1612 73.128C44.5092 73.128 44.7991 73.041 45.0311 72.867C45.2631 72.693 45.3791 72.4804 45.3791 72.2291L45.5144 72.9733C45.3855 73.3277 45.1729 73.5984 44.8765 73.7853C44.5865 73.9657 44.2289 74.0559 43.8036 74.0559Z" fill="#452667"/>
<path d="M50.7398 74.0559C50.2694 74.0559 49.8828 73.9463 49.5799 73.7273C49.2835 73.5017 49.0998 73.1924 49.029 72.7994L49.116 72.7897V73.9592H47.9271V67H49.145V70.1413L49.058 70.122C49.1417 69.7547 49.3383 69.4647 49.6476 69.2521C49.9633 69.0394 50.3532 68.9331 50.8171 68.9331C51.2553 68.9331 51.6355 69.0394 51.9576 69.2521C52.2863 69.4583 52.5408 69.7515 52.7212 70.1317C52.9016 70.5118 52.9919 70.9597 52.9919 71.4752C52.9919 71.9971 52.8984 72.4514 52.7116 72.838C52.5247 73.2246 52.2637 73.5243 51.9286 73.7369C51.5936 73.9496 51.1973 74.0559 50.7398 74.0559ZM50.4305 73.0507C50.8235 73.0507 51.1361 72.9153 51.368 72.6447C51.6 72.3676 51.716 71.981 51.716 71.4848C51.716 70.9887 51.5968 70.6053 51.3584 70.3346C51.1264 70.064 50.8139 69.9287 50.4208 69.9287C50.0342 69.9287 49.7217 70.0672 49.4832 70.3443C49.2448 70.6149 49.1256 70.9983 49.1256 71.4945C49.1256 71.9907 49.2448 72.3741 49.4832 72.6447C49.7217 72.9153 50.0374 73.0507 50.4305 73.0507Z" fill="#452667"/>
<path d="M57.0912 73.9592C57.059 73.8304 57.0332 73.6886 57.0139 73.5339C57.001 73.3793 56.9946 73.1924 56.9946 72.9733H56.9559V70.6343C56.9559 70.3765 56.8818 70.1832 56.7336 70.0543C56.5918 69.919 56.3727 69.8514 56.0763 69.8514C55.7864 69.8514 55.5544 69.9061 55.3804 70.0157C55.2129 70.1188 55.1098 70.2702 55.0711 70.47H53.9016C53.9531 70.0124 54.1722 69.6419 54.5588 69.3584C54.9454 69.0749 55.4642 68.9331 56.115 68.9331C56.7916 68.9331 57.3039 69.0878 57.6518 69.3971C57.9998 69.6999 58.1738 70.1478 58.1738 70.7406V72.9733C58.1738 73.128 58.1834 73.2859 58.2028 73.447C58.2285 73.608 58.264 73.7788 58.3091 73.9592H57.0912ZM55.3804 74.0559C54.8842 74.0559 54.4879 73.9335 54.1915 73.6886C53.9016 73.4373 53.7566 73.1022 53.7566 72.6834C53.7566 72.2323 53.9209 71.8747 54.2495 71.6105C54.5781 71.3463 55.0421 71.1691 55.6414 71.0789L57.1782 70.8469V71.6202L55.8443 71.8231C55.5544 71.8682 55.3353 71.9488 55.1871 72.0648C55.0453 72.1808 54.9744 72.3419 54.9744 72.5481C54.9744 72.7349 55.0421 72.8799 55.1774 72.983C55.3127 73.0797 55.4996 73.128 55.738 73.128C56.086 73.128 56.376 73.041 56.6079 72.867C56.8399 72.693 56.9559 72.4804 56.9559 72.2291L57.0912 72.9733C56.9623 73.3277 56.7497 73.5984 56.4533 73.7853C56.1633 73.9657 55.8057 74.0559 55.3804 74.0559Z" fill="#452667"/>
<path d="M66.3609 62.8896H9.34229V64.9236H66.3609V62.8896Z" fill="#452667"/>
<path d="M66.3599 76.6748H9.34229V78.7088H66.3599V76.6748Z" fill="#452667"/>
</svg>
