<svg width="36" height="24" viewBox="0 0 36 24" fill="none" xmlns="http://www.w3.org/2000/svg">
<path d="M0 0H35.7077V24H0V0Z" fill="#D6D4D1"/>
<path d="M0.292969 0.289062H35.417V7.31404H0.292969V0.289062Z" fill="black"/>
<path d="M0.292969 16.6797H35.417V23.7047H0.292969V16.6797Z" fill="#076629"/>
<path d="M0.292969 8.48438H35.419V15.5094H0.292969V8.48438Z" fill="#BB0D1D"/>
<path d="M0.293945 7.31396H35.419V8.48458H0.293945V7.31396Z" fill="white"/>
<path d="M21.8841 18.8264L14.9874 6.88191C15.0932 6.47251 14.8674 6.08329 14.6484 5.70512C14.0375 4.64646 13.3517 3.94052 12.8849 3.53523C12.8788 3.53125 12.8709 3.52919 12.8668 3.53421C12.8596 3.53729 12.8576 3.54333 12.8587 3.5504C12.9756 4.1584 13.2429 5.10522 13.856 6.16491C14.0737 6.54307 14.2986 6.93332 14.704 7.04515L21.5999 18.9898C21.6026 18.9949 21.6089 18.9979 21.6137 18.9979C21.616 18.9979 21.6188 18.9968 21.621 18.9949L21.877 18.8485C21.882 18.8457 21.8841 18.8424 21.8851 18.8385C21.8862 18.8345 21.8862 18.8305 21.8841 18.8264Z" fill="white"/>
<path d="M21.6141 19.0211C21.6002 19.0211 21.5891 19.0139 21.5808 19.0029L14.6889 7.06446C14.2794 6.94646 14.0546 6.55518 13.8358 6.17715C13.2227 5.11643 12.9537 4.16549 12.8367 3.55454C12.8337 3.53847 12.8396 3.5233 12.8528 3.51521C12.865 3.50621 12.8871 3.50621 12.9002 3.51816C13.3681 3.92551 14.0567 4.63338 14.6688 5.69306C14.8896 6.07521 15.1145 6.46546 15.0116 6.87885L21.9046 18.8153C21.9073 18.8214 21.9106 18.8304 21.9073 18.8448C21.9046 18.8558 21.8972 18.8638 21.8882 18.869L21.6333 19.0155C21.6283 19.02 21.6183 19.0211 21.6141 19.0211ZM12.886 3.56752C13.0051 4.17552 13.2733 5.11129 13.8763 6.15388C14.092 6.52703 14.3139 6.91317 14.7111 7.02204C14.7162 7.0241 14.7212 7.02705 14.7243 7.0331L21.6161 18.9715L21.8598 18.8314L14.967 6.89363C14.964 6.88759 14.963 6.88155 14.9649 6.8755C15.0678 6.47716 14.8469 6.09308 14.6321 5.72096C14.0265 4.67361 13.3519 3.97397 12.886 3.56752Z" fill="black"/>
<path d="M13.8279 18.8264L20.7248 6.88191C20.619 6.47251 20.845 6.08329 21.0636 5.70512C21.6747 4.64646 22.3604 3.94052 22.8273 3.53523C22.8335 3.53125 22.8413 3.52919 22.8456 3.53421C22.853 3.53729 22.8547 3.54333 22.8537 3.5504C22.7368 4.1584 22.4696 5.10522 21.8565 6.16491C21.6386 6.54307 21.4139 6.93332 21.0082 7.04515L14.1123 18.9898C14.1094 18.9949 14.1033 18.9979 14.0983 18.9979C14.0962 18.9979 14.0932 18.9968 14.0911 18.9949L13.835 18.8485C13.83 18.8457 13.828 18.8424 13.827 18.8385C13.8258 18.8345 13.8258 18.8305 13.8279 18.8264Z" fill="white"/>
<path d="M14.0976 19.0211C14.1116 19.0211 14.1228 19.0139 14.1309 19.0029L21.0227 7.06446C21.4324 6.94646 21.6571 6.55518 21.8758 6.17715C22.4891 5.11643 22.7581 4.16549 22.8748 3.55454C22.8781 3.53847 22.872 3.5233 22.8588 3.51521C22.8467 3.50621 22.8246 3.50621 22.8115 3.51816C22.3436 3.92551 21.655 4.63338 21.0429 5.69306C20.8219 6.07521 20.5972 6.46546 20.6999 6.87885L13.807 18.8153C13.804 18.8214 13.8009 18.8304 13.804 18.8448C13.807 18.8558 13.8142 18.8638 13.8232 18.869L14.0782 19.0155C14.0833 19.02 14.0934 19.0211 14.0976 19.0211ZM22.8256 3.56752C22.7066 4.17552 22.4381 5.11129 21.8355 6.15388C21.6195 6.52703 21.3979 6.91317 21.0006 7.02204C20.9955 7.0241 20.9904 7.02705 20.9874 7.0331L14.0954 18.9718L13.8514 18.8314L20.7443 6.89376C20.7472 6.88772 20.7483 6.88168 20.7463 6.87563C20.6435 6.47729 20.8643 6.09321 21.0793 5.72109C21.6851 4.67361 22.3597 3.97397 22.8256 3.56752Z" fill="black"/>
<path d="M0.293945 15.5093H35.419V16.6798H0.293945V15.5093Z" fill="white"/>
<path d="M21.3665 11.9976C21.3665 15.8765 19.7957 19.0216 17.8557 19.0216C15.9146 19.0216 14.3438 15.8765 14.3438 11.9976C14.3438 8.11752 15.9148 4.97266 17.8557 4.97266C19.7958 4.97266 21.3665 8.11765 21.3665 11.9976Z" fill="#BB0D1D"/>
<path d="M14.8156 15.5042C15.1141 14.4718 15.2875 13.2758 15.2875 11.9972C15.2875 10.7176 15.1141 9.52285 14.8156 8.48926C14.5172 9.52285 14.3438 10.7176 14.3438 11.9972C14.3438 13.2757 14.517 14.4716 14.8156 15.5042Z" fill="black"/>
<path d="M20.8957 15.5042C21.194 14.4718 21.3676 13.2758 21.3676 11.9972C21.3676 10.7176 21.194 9.52285 20.8957 8.48926C20.5974 9.52285 20.4238 10.7176 20.4238 11.9972C20.4238 13.2757 20.5974 14.4716 20.8957 15.5042Z" fill="black"/>
<path d="M18.458 11.9971C18.458 11.5888 18.2735 11.2449 18.0224 11.1371C18.078 11.0201 18.6051 9.86054 18.6051 8.06471C18.6051 6.17915 18.0234 4.99337 18.0174 4.98231C18.0145 4.97524 18.0064 4.97126 17.9989 4.97332C17.9908 4.97537 17.9858 4.98141 17.9858 4.98938V11.1231C17.9434 11.11 17.9001 11.1019 17.8557 11.1019C17.8112 11.1019 17.7679 11.11 17.7255 11.1231V4.98925C17.7255 4.98116 17.7205 4.97512 17.7134 4.97319C17.7053 4.97113 17.6973 4.97524 17.6943 4.98218C17.6882 4.99324 17.1064 6.17915 17.1064 8.06458C17.1064 9.86041 17.6338 11.02 17.6892 11.1369C17.4382 11.2448 17.2536 11.5886 17.2536 11.997C17.2536 12.4044 17.4382 12.7492 17.6892 12.8571C17.6337 12.973 17.1064 14.1326 17.1064 15.9294C17.1064 17.8149 17.6882 18.9999 17.6943 19.0117C17.6973 19.018 17.7034 19.0207 17.7094 19.0207H17.7134C17.7205 19.0184 17.7255 19.0117 17.7255 19.0046V12.8699C17.7679 12.8839 17.8112 12.8922 17.8557 12.8922C17.9001 12.8922 17.9434 12.8841 17.9858 12.8699V19.005C17.9858 19.0121 17.9907 19.0189 17.9989 19.0211H18.0019C18.008 19.0211 18.0141 19.0183 18.0168 19.0121C18.0228 19 18.6047 17.8151 18.6047 15.9298C18.6047 14.133 18.0772 12.9735 18.0218 12.8576C18.2735 12.7494 18.458 12.4045 18.458 11.9971Z" fill="white"/>
</svg>
