<svg width="36" height="24" viewBox="0 0 36 24" fill="none" xmlns="http://www.w3.org/2000/svg">
<path d="M0 0H35.7067V24H0V0Z" fill="#D6D4D1"/>
<path d="M0.291016 0.294922H35.4139V4.15782H0.291016V0.294922Z" fill="#101211"/>
<path d="M0.291016 4.15869H35.4139V8.08007H0.291016V4.15869Z" fill="#FCDD05"/>
<path d="M0.291016 8.08008H35.4139V12.0025H0.291016V8.08008Z" fill="#D70C1C"/>
<path d="M0.291016 12.0024H35.4139V15.9237H0.291016V12.0024Z" fill="#101211"/>
<path d="M0.291016 15.9233H35.4139V19.8459H0.291016V15.9233Z" fill="#FCDD05"/>
<path d="M0.291016 19.8467H35.4139V23.7096H0.291016V19.8467Z" fill="#D70C1C"/>
<path d="M21.5119 12.0019C21.5119 14.0227 19.8743 15.6612 17.8536 15.6612C15.8329 15.6612 14.1943 14.0227 14.1943 12.0019C14.1943 9.98117 15.8329 8.34375 17.8536 8.34375C19.8743 8.34375 21.5119 9.9813 21.5119 12.0019Z" fill="white"/>
<path d="M19.3508 11.8389C19.3478 11.7794 19.2228 11.744 19.133 11.7138C19.0433 11.6845 17.9604 11.1552 17.8757 11.124C17.79 11.0917 17.7627 11.1199 17.7627 11.1199C17.7627 11.1199 17.6397 10.2971 17.9019 10.1206C18.1618 9.94118 18.2186 9.65377 18.2186 9.55493C18.2186 9.54182 18.2157 9.52267 18.2104 9.50146L18.5895 9.41367L18.5844 9.39657C18.4203 8.7341 17.9018 8.63525 17.6056 8.63525C17.2266 8.63525 17.0914 8.78757 17.0864 8.79361L17.0793 8.80261L17.3122 9.22909C17.2204 9.33398 17.2004 9.46495 17.2004 9.51148C17.2004 9.59413 17.2387 9.64658 17.2387 9.64658C17.2387 9.64658 16.6699 9.79889 16.7123 9.89774C16.7536 9.99452 17.2387 9.89876 17.2387 9.89876C17.2387 9.89876 17.1277 9.99851 17.1277 10.1165C17.1277 10.2355 17.2468 10.2576 17.2468 10.2576C17.0097 10.4764 16.6236 10.9534 16.6236 11.4758C16.6236 11.999 16.9714 12.2733 16.9714 12.2733L17.0097 12.2433C17.3637 12.6746 17.64 12.6969 17.64 12.6969L17.9132 12.9631C17.9132 12.9631 17.9222 13.1194 17.9374 13.2686C17.9513 13.4178 17.9182 13.5257 17.9182 13.5257C17.9182 13.5257 17.6702 13.4601 16.9987 13.5066C16.3252 13.5529 16.5318 14.279 16.5318 14.279L16.668 13.9654C16.6761 14.1874 16.792 14.2438 16.792 14.2438C16.7637 14.0138 16.8545 13.8485 16.8545 13.8485C16.8545 13.8485 16.8596 14.1158 16.9462 14.1189C17.033 14.1209 16.9624 14.0443 17.0894 13.8396C17.2164 13.6329 17.406 13.7194 17.6439 13.7326C17.882 13.7437 17.9101 13.7336 17.9101 13.7336C17.9744 14.1813 17.9867 14.7379 17.9867 14.7379C17.2225 14.6623 17.1186 14.9528 17.1186 14.9528C17.3234 14.9176 17.5986 14.9618 17.5986 14.9618C17.3293 15.2373 17.4483 15.3681 17.4483 15.3681C18.0301 14.7872 18.7914 14.9637 18.7914 14.9637C18.6824 14.7146 18.2236 14.7298 18.2236 14.7298C18.147 14.3345 18.1613 13.8344 18.1724 13.7577C18.1847 13.68 18.4589 13.7326 18.6717 13.7326C18.8843 13.7326 18.8459 13.5149 18.8028 13.4533C18.7599 13.3917 18.5033 13.0208 18.582 12.942C18.6626 12.8623 19.1909 12.9853 19.1909 12.9853C19.2584 13.07 19.2999 13.2051 19.2999 13.2051L19.3271 13.1557C19.3404 13.316 19.2999 13.3856 19.2999 13.3856C19.4824 13.3221 19.5114 13.073 19.5114 13.073C19.5578 13.562 19.1143 13.7586 19.1143 13.7586C19.1303 13.7887 19.2087 13.8181 19.2087 13.8181C18.9649 14.051 19.4003 13.8503 19.4003 13.8503C19.2662 14.0641 19.5233 13.9209 19.5233 13.9209L19.3742 14.1447C19.487 14.2103 20.2675 13.7343 20.2675 12.9236C20.2674 12.1128 19.3508 11.8389 19.3508 11.8389ZM18.3222 8.95505C18.4179 9.05891 18.4987 9.19901 18.5482 9.3886L18.2023 9.46932C18.1852 9.41483 18.1562 9.34927 18.1067 9.2868L18.3222 8.95505ZM17.6054 8.66957C17.795 8.66957 18.0824 8.71199 18.299 8.9287L18.0833 9.25943C17.9997 9.16469 17.8694 9.08397 17.6779 9.08397C17.6396 9.08397 17.6054 9.08796 17.5731 9.09207L17.5964 8.66957H17.6054ZM17.1193 8.80775C17.1515 8.77844 17.2806 8.6796 17.5628 8.6706L17.5387 9.09811C17.4509 9.11932 17.3864 9.15762 17.337 9.20403L17.1193 8.80775ZM18.1499 13.5701L18.1338 13.0631C18.3353 13.1942 18.399 13.2949 18.4454 13.4714C18.4906 13.6488 18.1499 13.5701 18.1499 13.5701Z" fill="#101211"/>
<path d="M19.0309 12.6369C18.8021 12.412 18.5469 12.2619 18.5469 12.2619L18.569 12.2458C18.569 12.2458 18.4239 12.0795 18.2595 11.9806C18.0954 11.8828 17.8551 11.7871 17.9339 11.5723C18.0135 11.3596 18.4723 11.6206 18.4723 11.6206C18.4723 11.6206 18.7346 11.7436 19.0712 11.8323L18.9768 11.7295L19.2113 11.7961C19.2113 11.7961 18.7528 11.5844 18.5942 11.5076C18.4363 11.43 17.9321 11.1829 17.8713 11.1617C17.8692 11.1607 17.8683 11.1597 17.8672 11.1597C17.831 11.1507 17.7927 11.1445 17.7684 11.1547C17.7462 11.1648 17.719 11.2011 17.6938 11.2444C17.6837 11.2615 17.6776 11.2796 17.6716 11.2998C17.6192 11.4752 17.6746 11.9704 17.9963 12.1377C18.3167 12.3031 18.3896 12.2274 18.7382 12.4543C19.0872 12.6801 19.2968 13.0886 19.2968 13.0886L19.303 13.029C19.3031 13.0294 19.2608 12.8609 19.0309 12.6369Z" fill="#9AA59B"/>
<path d="M17.7978 12.1323C17.7978 12.1323 17.9561 12.3551 18.0528 12.4268C18.1497 12.4984 18.1942 12.5438 18.1942 12.5438L18.1718 12.5738C18.1718 12.5738 18.0438 12.481 17.805 12.598C17.8047 12.5981 17.7039 12.4278 17.7978 12.1323Z" fill="#9AA59B"/>
<path d="M17.5721 10.1152L17.6014 10.1323C17.6014 10.1323 17.2091 10.9601 17.5247 11.3201L17.3755 11.3091L17.4239 11.4664L17.2686 11.4462L17.3402 11.5773L17.2143 11.5461L17.2325 11.7014L17.1378 11.6489L17.1136 11.8304C17.1134 11.8304 16.6738 11.1901 17.5721 10.1152Z" fill="#9AA59B"/>
<path d="M17.8558 9.29102C17.8558 9.29102 18.0332 9.33343 18.0332 9.59757C18.0332 9.86172 17.6831 10.0442 17.6179 9.89912C17.5523 9.75285 17.7873 9.79423 17.8439 9.58549C17.9003 9.37572 17.8558 9.29102 17.8558 9.29102Z" fill="#9AA59B"/>
<path d="M19.1488 11.888L19.0632 11.8647C18.7263 11.776 18.461 11.653 18.4582 11.652V11.651L18.456 11.6489C18.4539 11.6479 18.2311 11.5229 18.0786 11.5229C17.998 11.5229 17.9758 11.5582 17.9658 11.5845C17.9113 11.7317 18.0264 11.8095 18.2057 11.9113C18.2299 11.9254 18.2541 11.9395 18.2763 11.9526C18.4439 12.0535 18.589 12.2159 18.594 12.2231L18.6029 12.2331C18.6715 12.2231 18.8016 12.2422 18.8016 12.2422C18.7444 12.1776 18.6275 12.084 18.6275 12.084C18.7665 12.09 19.053 12.1677 19.053 12.1677C19.0128 12.073 18.8294 11.9195 18.8294 11.9195C18.9606 11.9215 19.3556 12.1272 19.3556 12.1272L19.1488 11.888Z" fill="white"/>
<path d="M17.4154 10.1419C17.4476 10.0914 17.4214 10.1076 17.4566 10.0722C17.4566 10.0722 17.4656 10.0308 17.3992 9.97646C17.3529 9.93905 17.3105 9.91399 17.2874 9.90088L17.2601 9.92402C17.2601 9.92504 17.1611 10.0148 17.1611 10.1167C17.1611 10.2074 17.2489 10.2245 17.2539 10.2256L17.2681 10.2276C17.3095 10.2135 17.3912 10.1802 17.4154 10.1419Z" fill="#D8091B"/>
<path d="M19.3419 11.8708L19.0404 11.769L19.1078 11.8417L19.1584 11.8558L19.1684 11.8579L19.1744 11.8669L19.381 12.105L19.495 12.2401L19.3396 12.1573C19.2612 12.1161 19.0775 12.0261 18.9463 11.9807C19.0009 12.0342 19.0614 12.1017 19.0832 12.1552L19.1116 12.2187L19.0447 12.2005C19.042 12.2005 18.8733 12.155 18.7342 12.131C18.7666 12.1592 18.8017 12.1914 18.8272 12.2187L18.8896 12.2883L18.7967 12.2743C18.7967 12.2743 18.7181 12.2642 18.6536 12.2642C18.6353 12.2642 18.6191 12.2642 18.6081 12.2662L18.5947 12.2672C18.5969 12.2694 18.5997 12.2712 18.6008 12.2712C18.6653 12.2964 18.7946 12.373 19.0477 12.6059C19.2413 12.7845 19.3181 12.9417 19.3422 13.0577L19.3512 13.0407L19.3593 13.1526C19.3653 13.2223 19.3613 13.2766 19.3553 13.316C19.4572 13.2313 19.4762 13.07 19.4762 13.07L19.5147 12.7534L19.5441 13.0691C19.5824 13.4795 19.2891 13.6962 19.1728 13.7648C19.1869 13.7729 19.203 13.7809 19.2192 13.7871L19.2703 13.8052L19.2301 13.8425C19.2059 13.8659 19.1918 13.8828 19.1816 13.8949C19.2341 13.8847 19.3309 13.8466 19.3854 13.8202L19.4883 13.7728L19.4278 13.8675C19.4055 13.9038 19.3977 13.925 19.3954 13.9341C19.4238 13.932 19.4761 13.909 19.5063 13.8919L19.628 13.8243L19.5504 13.9403L19.4354 14.1126C19.644 14.0621 20.2339 13.6115 20.2339 12.9238C20.2352 12.1481 19.35 11.8728 19.3419 11.8708Z" fill="#D8091B"/>
<path d="M17.5708 9.60428C17.5708 9.64259 17.5385 9.67382 17.5001 9.67382C17.4639 9.67382 17.4326 9.64259 17.4326 9.60428C17.4326 9.56688 17.4639 9.53564 17.5001 9.53564C17.5385 9.53564 17.5708 9.56688 17.5708 9.60428Z" fill="white"/>
<path d="M16.7462 9.92509C16.8692 9.89283 17.1243 9.82933 17.2504 9.82329C17.2605 9.82329 17.2665 9.81519 17.2665 9.8062C17.2655 9.79707 17.2605 9.7891 17.2483 9.79013C17.1092 9.7972 16.8237 9.86982 16.7119 9.899C16.718 9.91005 16.73 9.91802 16.7462 9.92509Z" fill="white"/>
<path d="M17.5965 8.66895L17.5732 9.09144C17.6055 9.08746 17.6398 9.08335 17.678 9.08335C17.8695 9.08335 17.9996 9.16394 18.0834 9.2588L18.2992 8.92807C18.0824 8.71123 17.795 8.66895 17.6055 8.66895C17.6036 8.66895 17.5996 8.66895 17.5965 8.66895Z" fill="#FDDD09"/>
<path d="M17.3369 9.20383C17.3864 9.15743 17.4509 9.11913 17.5386 9.09792L17.5627 8.67041C17.2805 8.67954 17.1514 8.77838 17.1191 8.80756L17.3369 9.20383Z" fill="#D8091B"/>
<path d="M18.1064 9.28683C18.1559 9.3493 18.1851 9.41485 18.2022 9.46935L18.5481 9.38863C18.4985 9.19904 18.4179 9.05894 18.322 8.95508L18.1064 9.28683Z" fill="#D8091B"/>
</svg>
